<?xml version="1.0" encoding="UTF-8"?>
<svg version="1.1" xmlns="http://www.w3.org/2000/svg" width="183" height="163" viewBox="0 0 183 163">
<path d="M0 0 C5.71962476 4.5773087 9.71800128 9.01976863 12 16 C12.34546875 16.75023438 12.6909375 17.50046875 13.046875 18.2734375 C15.19235214 24.410909 15.24329788 32.92343794 12.75 39 C5.52262789 51.38978076 -2.31721358 60.22693497 -16 65 C-16.94875 65.350625 -17.8975 65.70125 -18.875 66.0625 C-21.57678919 67.06098731 -24.28696598 68.03259484 -27 69 C-28.051875 69.391875 -29.10375 69.78375 -30.1875 70.1875 C-37.37403452 72.26360997 -44.58405256 72.12269031 -52 72 C-51.96519531 72.680625 -51.93039063 73.36125 -51.89453125 74.0625 C-51.34092292 93.88695055 -57.61147399 112.32765971 -71.0546875 127.109375 C-78.43549878 134.2826936 -85.86954023 136.92106029 -96 137.3125 C-101.07990149 137.20206736 -105.33425862 135.93655289 -110 134 C-111.03125 133.5875 -112.0625 133.175 -113.125 132.75 C-119.20928934 129.04651953 -123.06884349 124.47939859 -126 118 C-126.66 117.67 -127.32 117.34 -128 117 C-129.81174516 111.98088972 -130.33805807 107.33652501 -130.3125 102 C-130.32861328 101.32710938 -130.34472656 100.65421875 -130.36132812 99.9609375 C-130.36919908 91.80662476 -127.11111125 86.51318796 -121.6875 80.875 C-120.99624023 80.12669922 -120.99624023 80.12669922 -120.29101562 79.36328125 C-115.7698829 74.54660855 -111.36798873 70.18708878 -105 68 C-103.28925419 67.19259193 -101.58101391 66.3798589 -99.875 65.5625 C-88.12903417 60.19608165 -76.80461704 58.81076921 -64 59 C-64.03480469 58.319375 -64.06960937 57.63875 -64.10546875 56.9375 C-64.62789142 38.22979305 -59.41386484 19.94266085 -46.79296875 5.796875 C-32.47654429 -8.55073992 -17.52322054 -11.49236486 0 0 Z " fill="#CF9B32" transform="translate(150,17)"/>
<path d="M0 0 C5.84425826 4.10341537 11.87923694 9.01321562 13.9375 16.0625 C14.23828125 18.96484375 14.23828125 18.96484375 14.25 22 C14.26675781 22.99902344 14.28351563 23.99804688 14.30078125 25.02734375 C13.5368344 31.40999646 10.11444157 35.31687555 5.6875 39.75 C4.77484375 40.68199219 3.8621875 41.61398438 2.921875 42.57421875 C-8.83619817 52.37774311 -26.36950792 54.30558259 -41.0625 54.0625 C-41.74295091 44.08255331 -39.82845719 35.54432371 -37.0625 26.0625 C-36.84722656 25.26714844 -36.63195312 24.47179687 -36.41015625 23.65234375 C-33.07926552 13.05009679 -25.06625654 5.11730642 -15.6875 -0.3125 C-10.39671037 -1.57221182 -5.20685302 -1.5939346 0 0 Z " fill="#201A00" transform="translate(138.0625,22.9375)"/>
<path d="M0 0 C0.87292751 12.77060618 -0.9652744 23.19578582 -6 35 C-6.66 35.66 -7.32 36.32 -8 37 C-8.26296875 37.74894531 -8.5259375 38.49789062 -8.796875 39.26953125 C-10.32352869 42.73424206 -12.59387577 45.07054114 -15.25 47.6875 C-15.71535156 48.17283203 -16.18070313 48.65816406 -16.66015625 49.15820312 C-21.37250879 53.86406482 -25.9516211 55.2809141 -32.5 55.375 C-40.63505785 55.17738726 -44.70995055 50.51336216 -50.265625 45.09765625 C-53.78790286 40.83760398 -54.41656321 36.74801164 -54.23046875 31.38671875 C-53.40194212 22.80655318 -49.88756047 18.23926895 -43.765625 12.26171875 C-38.35048653 7.83323686 -32.80847622 5.31018069 -26.1875 3.3125 C-25.48753906 3.09827393 -24.78757812 2.88404785 -24.06640625 2.66333008 C-15.98520159 0.28053023 -8.36870239 -0.02637196 0 0 Z " fill="#282101" transform="translate(86,88)"/>
<path d="M0 0 C-0.97810582 1.12592245 -1.95758435 2.25065233 -2.9375 3.375 C-3.88496094 4.46361328 -3.88496094 4.46361328 -4.8515625 5.57421875 C-6.34645163 7.26208448 -7.86395011 8.9300831 -9.3984375 10.58203125 C-10.19507812 11.44183594 -10.99171875 12.30164063 -11.8125 13.1875 C-12.56144531 13.98542969 -13.31039062 14.78335937 -14.08203125 15.60546875 C-16.07757592 18.0968514 -16.92930038 20.0079659 -18 23 C-18.66105936 24.39533842 -19.32401902 25.78977724 -19.98828125 27.18359375 C-22.15560755 32.03772141 -23.24231772 36.85003908 -24.1875 42.0625 C-24.4340332 43.3319043 -24.4340332 43.3319043 -24.68554688 44.62695312 C-25.65840504 49.73544316 -26.40873014 54.83385427 -27 60 C-25.35 60 -23.7 60 -22 60 C-20.15348866 63.11598788 -19.61920621 65.38245897 -20 69 C-22 71 -22 71 -24.625 71.125 C-25.40875 71.08375 -26.1925 71.0425 -27 71 C-26.95359375 71.93199219 -26.9071875 72.86398438 -26.859375 73.82421875 C-26.6325041 81.8376232 -27.23637796 88.26962512 -29.9296875 95.92578125 C-30.96860349 98.90982098 -31.71575112 101.86384529 -32.4375 104.9375 C-33.75305974 109.83707116 -35.42029848 112.42029848 -39 116 C-39.886875 116.94875 -40.77375 117.8975 -41.6875 118.875 C-44 121 -44 121 -46 121 C-44.9284589 118.77449157 -43.79587609 116.66829864 -42.5 114.5625 C-41.04577972 112.07820701 -40.04343448 109.67801625 -39 107 C-38.52240234 105.83210938 -38.52240234 105.83210938 -38.03515625 104.640625 C-37.35091883 102.95888484 -36.6788171 101.27218126 -36.015625 99.58203125 C-35.40437182 98.02803759 -34.7745629 96.48090142 -34.109375 94.94921875 C-31.08739316 87.32019597 -31.26966826 79.09934683 -31 71 C-45.25223669 72.24817746 -45.25223669 72.24817746 -59 76 C-59.8146875 76.25265625 -60.629375 76.5053125 -61.46875 76.765625 C-70.96891998 79.99099135 -79.62614796 87.45261838 -84.25 96.42578125 C-85.14140436 99.48534099 -85.1239856 102.00649447 -85 105.1875 C-84.89303195 111.0573717 -85.5640542 116.32032153 -87 122 C-88.65 121.67 -90.3 121.34 -92 121 C-92.33 120.01 -92.66 119.02 -93 118 C-93.66 117.67 -94.32 117.34 -95 117 C-96.81174516 111.98088972 -97.33805807 107.33652501 -97.3125 102 C-97.32861328 101.32710938 -97.34472656 100.65421875 -97.36132812 99.9609375 C-97.36919908 91.80662476 -94.11111125 86.51318796 -88.6875 80.875 C-87.99624023 80.12669922 -87.99624023 80.12669922 -87.29101562 79.36328125 C-82.7698829 74.54660855 -78.36798873 70.18708878 -72 68 C-70.28925419 67.19259193 -68.58101391 66.3798589 -66.875 65.5625 C-55.12903417 60.19608165 -43.80461704 58.81076921 -31 59 C-31.05220703 57.9790625 -31.05220703 57.9790625 -31.10546875 56.9375 C-31.63073947 38.12780566 -26.33565157 19.84336805 -13.67578125 5.61328125 C-9.68717571 1.77343489 -5.63920248 -2.00504977 0 0 Z " fill="#D7B37C" transform="translate(117,17)"/>
<path d="M0 0 C4.13600543 1.71145052 5.92178209 3.75948296 7.8515625 7.76953125 C10.86483237 15.35902872 11.86809449 25.29042572 8.75 33 C1.5006811 45.42740383 -6.31692456 54.16356685 -20 59 C-20.84433594 59.350625 -21.68867188 59.70125 -22.55859375 60.0625 C-33.55048196 64.50498677 -45.2306379 65.44043351 -57 65 C-56.67 64.4225 -56.34 63.845 -56 63.25 C-54.72924102 60.80116138 -54.72924102 60.80116138 -55 57 C-50.5600324 54.8456962 -46.52581226 54.58254154 -41.6875 54.375 C-40.94693359 54.33632812 -40.20636719 54.29765625 -39.44335938 54.2578125 C-37.62928691 54.16418295 -35.81467884 54.08103149 -34 54 C-34 53.01 -34 52.02 -34 51 C-32.69675781 50.51080078 -32.69675781 50.51080078 -31.3671875 50.01171875 C-30.21476562 49.57472656 -29.06234375 49.13773438 -27.875 48.6875 C-26.73804687 48.25824219 -25.60109375 47.82898438 -24.4296875 47.38671875 C-18.540782 45.00566926 -14.25091833 42.66733783 -9.75 38.125 C-8.89921875 37.28195313 -8.0484375 36.43890625 -7.171875 35.5703125 C-2.72037822 30.30217422 -2.62362611 25.54575595 -2.74609375 18.8671875 C-3.06371032 15.2805635 -4.03973537 13.0104064 -6 10 C-6.73505614 8.71167579 -7.46410282 7.41990669 -8.1875 6.125 C-8.785625 5.09375 -9.38375 4.0625 -10 3 C-7.66666667 3 -5.33333333 3 -3 3 C-1.31201173 1.56249809 -1.31201173 1.56249809 0 0 Z " fill="#EFBD57" transform="translate(154,23)"/>
<path d="M0 0 C3.50669329 2.39978253 5.53885094 4.75196598 8.09375 8.1171875 C6.11375 9.7671875 4.13375 11.4171875 2.09375 13.1171875 C0.77375 12.4571875 -0.54625 11.7971875 -1.90625 11.1171875 C-1.24625 12.7671875 -0.58625 14.4171875 0.09375 16.1171875 C-0.35355469 15.70726563 -0.80085938 15.29734375 -1.26171875 14.875 C-7.15047886 9.62659547 -11.36100544 7.63056782 -19.34375 7.796875 C-26.46500618 8.68703202 -32.46035514 13.27260282 -37.0390625 18.59765625 C-41.22787235 24.28950964 -44.30254789 29.22880261 -45.90625 36.1171875 C-46.17050781 37.1896875 -46.43476562 38.2621875 -46.70703125 39.3671875 C-48.46382822 46.9605469 -49.43210517 54.34121233 -49.90625 62.1171875 C-42.31625 61.4571875 -34.72625 60.7971875 -26.90625 60.1171875 C-26.90625 60.7771875 -26.90625 61.4371875 -26.90625 62.1171875 C-33.04740777 63.52663354 -38.61261827 64.23161717 -44.90625 64.1171875 C-45.40125 64.6121875 -45.40125 64.6121875 -45.90625 65.1171875 C-47.57242115 65.15782582 -49.24013095 65.1599085 -50.90625 65.1171875 C-51.23625 64.4571875 -51.56625 63.7971875 -51.90625 63.1171875 C-54.43358235 62.46163631 -54.43358235 62.46163631 -56.90625 62.1171875 C-57.48522016 52.46768476 -54.97667908 43.20263748 -51.90625 34.1171875 C-51.59827692 32.78752596 -51.30427691 31.45446216 -51.03125 30.1171875 C-50.06985026 26.16643543 -48.334337 23.40224639 -45.90625 20.1171875 C-45.37 19.2096875 -44.83375 18.3021875 -44.28125 17.3671875 C-41.50357731 13.13882745 -37.66907957 9.78551476 -34.05078125 6.2890625 C-31.87190064 4.3069986 -31.87190064 4.3069986 -30.90625 2.1171875 C-32.88625 2.4471875 -34.86625 2.7771875 -36.90625 3.1171875 C-26.72778916 -8.65165784 -12.53065417 -6.46650731 0 0 Z " fill="#CA972F" transform="translate(146.90625,14.8828125)"/>
<path d="M0 0 C0 0.33 0 0.66 0 1 C-1.051875 1.20625 -2.10375 1.4125 -3.1875 1.625 C-7.5397269 2.8672348 -9.44643852 5.27909613 -12 9 C-12.42345703 10.28197266 -12.42345703 10.28197266 -12.85546875 11.58984375 C-14 14 -14 14 -16.03125 15.046875 C-16.8459375 15.27890625 -17.660625 15.5109375 -18.5 15.75 C-27.1533274 18.82255828 -35.03833242 26.25251384 -39.25 34.42578125 C-40.14140436 37.48534099 -40.1239856 40.00649447 -40 43.1875 C-39.89303195 49.0573717 -40.5640542 54.32032153 -42 60 C-43.65 59.67 -45.3 59.34 -47 59 C-47.495 57.515 -47.495 57.515 -48 56 C-48.66 55.67 -49.32 55.34 -50 55 C-51.81174516 49.98088972 -52.33805807 45.33652501 -52.3125 40 C-52.32861328 39.32710937 -52.34472656 38.65421875 -52.36132812 37.9609375 C-52.36919908 29.80662476 -49.11111125 24.51318796 -43.6875 18.875 C-43.22666016 18.37613281 -42.76582031 17.87726563 -42.29101562 17.36328125 C-37.76692458 12.54345686 -33.36770512 8.19680765 -27 6 C-25.22741392 5.14947664 -23.45663259 4.29518367 -21.6875 3.4375 C-14.41081906 0.12105024 -7.91304529 -0.14130438 0 0 Z " fill="#FEE09E" transform="translate(72,79)"/>
<path d="M0 0 C4.13600543 1.71145052 5.92178209 3.75948296 7.8515625 7.76953125 C10.86483237 15.35902872 11.86809449 25.29042572 8.75 33 C4.40748185 40.44431682 -0.64250428 48.21762778 -8 53 C-11.3125 53.75 -11.3125 53.75 -14 54 C-14 52.68 -14 51.36 -14 50 C-12.3125 48.5 -12.3125 48.5 -10 47 C-4.11399924 42.81784157 -0.18884871 37.40460754 3 31 C4.625 29.25 4.625 29.25 6 28 C5.67 27.34 5.34 26.68 5 26 C1.6063997 29.0165336 -0.46720868 32.27574526 -2.65625 36.1953125 C-4.21440592 38.28795213 -5.6120242 39.01850147 -8 40 C-7.03177844 36.87189958 -6.10508538 34.1697533 -4.375 31.375 C-1.93032787 25.37444114 -1.96446085 18.74417876 -4.25 12.6875 C-4.8275 11.800625 -5.405 10.91375 -6 10 C-6.73505614 8.71167579 -7.46410282 7.41990669 -8.1875 6.125 C-9.0846875 4.578125 -9.0846875 4.578125 -10 3 C-7.66666667 3 -5.33333333 3 -3 3 C-1.31201173 1.56249809 -1.31201173 1.56249809 0 0 Z " fill="#F9E1A7" transform="translate(154,23)"/>
<path d="M0 0 C2.48063781 12.48519362 2.48063781 12.48519362 1 19 C0.67 19 0.34 19 0 19 C0 16.69 0 14.38 0 12 C-14.08465428 13.4375209 -14.08465428 13.4375209 -28 16 C-26.64994369 10.32976351 -24.1842771 7.82042691 -20 4 C-21.98 4 -23.96 4 -26 4 C-18.57569041 -0.94953972 -8.6096356 -0.27045976 0 0 Z " fill="#DEA535" transform="translate(86,76)"/>
<path d="M0 0 C0 0.33 0 0.66 0 1 C-1.051875 1.20625 -2.10375 1.4125 -3.1875 1.625 C-7.5397269 2.8672348 -9.44643852 5.27909613 -12 9 C-12.28230469 9.85464844 -12.56460938 10.70929688 -12.85546875 11.58984375 C-14 14 -14 14 -16.03125 15.046875 C-16.8459375 15.27890625 -17.660625 15.5109375 -18.5 15.75 C-24.95649384 18.00883166 -29.2201097 22.24044966 -34 27 C-34.56640625 25.08984375 -34.56640625 25.08984375 -35 23 C-33.35742509 20.77769277 -31.19253384 19.37757817 -29 17.6875 C-25.98190781 15.22497702 -24.51131666 12.61036758 -23 9 C-23.556875 9.144375 -24.11375 9.28875 -24.6875 9.4375 C-28.18293681 10.28774139 -31.3909736 11 -35 11 C-32.60528692 8.22717433 -30.37841784 7.31544718 -27 6 C-25.22741392 5.14947664 -23.45663259 4.29518367 -21.6875 3.4375 C-14.41081906 0.12105024 -7.91304529 -0.14130438 0 0 Z " fill="#FBCA65" transform="translate(72,79)"/>
<path d="M0 0 C0.33 0 0.66 0 1 0 C1.27033995 19.43443852 1.27033995 19.43443852 -3 29 C-3.31700319 30.51575475 -3.60762827 32.03720795 -3.875 33.5625 C-4.81211483 38.12415813 -6.71822857 40.6419083 -10 44 C-10.886875 44.94875 -11.77375 45.8975 -12.6875 46.875 C-15 49 -15 49 -17 49 C-15.9284589 46.77449157 -14.79587609 44.66829864 -13.5 42.5625 C-12.04577972 40.07820701 -11.04343448 37.67801625 -10 35 C-9.52240234 33.83210938 -9.52240234 33.83210938 -9.03515625 32.640625 C-8.00218095 30.10174596 -6.99735313 27.55306997 -6 25 C-5.57654297 23.95005859 -5.57654297 23.95005859 -5.14453125 22.87890625 C-2.86424854 16.75571056 -2.15974834 10.51777482 -1.4296875 4.0625 C-1 1 -1 1 0 0 Z " fill="#E8E0D6" transform="translate(88,89)"/>
<path d="M0 0 C3.37881434 1.39813007 5.15017878 2.82887791 7 6 C8.0625 8.9375 8.0625 8.9375 8 12 C6.18852039 14.11523381 4.3196083 15.39047587 2 17 C1.01 15.68 0.02 14.36 -1 13 C-1.99 14.485 -1.99 14.485 -3 16 C-3.4125 15.154375 -3.825 14.30875 -4.25 13.4375 C-6.05963279 9.88286417 -7.99919438 6.44966486 -10 3 C-7.66666667 3 -5.33333333 3 -3 3 C-1.31201173 1.56249809 -1.31201173 1.56249809 0 0 Z " fill="#FAD17E" transform="translate(154,23)"/>
<path d="M0 0 C-0.33 0.66 -0.66 1.32 -1 2 C-3.33744294 2.46806645 -5.69739079 2.82669794 -8.0625 3.125 C-9.99802734 3.37636719 -9.99802734 3.37636719 -11.97265625 3.6328125 C-13.47119141 3.81457031 -13.47119141 3.81457031 -15 4 C-15.73814408 7.36065599 -16.12939374 10.56806557 -16.3125 14 C-16.8565548 20.6465362 -18.8524147 26.71706441 -21 33 C-21.66 33 -22.32 33 -23 33 C-23.0825 34.0725 -23.165 35.145 -23.25 36.25 C-24.05476902 40.2738451 -24.87729874 41.48169253 -28 44 C-28 40.55847851 -27.13791464 38.91441922 -25.6875 35.8125 C-20.98197965 24.78851889 -19.65351841 12.89854204 -19 1 C-12.63849395 0.34513908 -6.39628979 -0.12068471 0 0 Z " fill="#493908" transform="translate(117,88)"/>
<path d="M0 0 C0.78375 0.495 1.5675 0.99 2.375 1.5 C-0.18341631 2.77920816 -0.91323946 2.23082908 -3.625 1.5 C-8.28510584 0.86321535 -12.69930774 0.3733363 -16.875 2.81640625 C-18.93054098 4.61098988 -20.7776859 6.49255931 -22.625 8.5 C-23.89417949 9.73087427 -25.16494855 10.96011218 -26.4375 12.1875 C-31.68723198 17.41229263 -33.48818496 22.03823439 -35.0859375 29.1875 C-36.31736901 34.29491268 -36.31736901 34.29491268 -39.625 36.5 C-38.81506506 23.94600849 -33.8669884 13.1818346 -24.50390625 4.54296875 C-16.98530305 -1.29851692 -9.16572642 -3.79271438 0 0 Z " fill="#48380A" transform="translate(138.625,23.5)"/>
<path d="M0 0 C0.66 0 1.32 0 2 0 C1.34 1.32 0.68 2.64 0 4 C-0.66 4 -1.32 4 -2 4 C-2.268125 4.680625 -2.53625 5.36125 -2.8125 6.0625 C-3.204375 7.031875 -3.59625 8.00125 -4 9 C-4.433125 10.093125 -4.86625 11.18625 -5.3125 12.3125 C-6.47298896 15.0738686 -7.91021962 17.36140182 -9.625 19.8125 C-12.57363264 24.31956911 -12.88075834 28.71000632 -13 34 C-13.66 34 -14.32 34 -15 34 C-16.37733457 15.36772399 -16.37733457 15.36772399 -11.375 9.0625 C-8.2132992 5.83902529 -4.93306413 3.20635305 -1 1 C-0.67 0.67 -0.34 0.34 0 0 Z " fill="#FEECC0" transform="translate(36,92)"/>
<path d="M0 0 C1.22742877 3.68228631 0.6083322 4.60053285 -0.8125 8.125 C-4.7552268 18.53054703 -5.81291131 29.00048676 -7 40 C-8.485 40.495 -8.485 40.495 -10 41 C-10.62011027 27.58724456 -9.50300389 13.53927331 -2 2 C-1.34 1.34 -0.68 0.68 0 0 Z " fill="#ECE2D5" transform="translate(96,36)"/>
<path d="M0 0 C-4.28536925 2.85691283 -8.9886158 4.1364974 -13.84765625 5.78125 C-17.04138195 6.77168498 -17.04138195 6.77168498 -19 9 C-19.7425 9.26425781 -20.485 9.52851562 -21.25 9.80078125 C-24.75049922 11.32727736 -27.25366127 13.60288914 -30 16.1875 C-30.52964355 16.68000244 -31.05928711 17.17250488 -31.60498047 17.67993164 C-36.41824361 22.24021862 -40.30849272 26.882938 -43 33 C-43.25 27.375 -43.25 27.375 -41 24 C-40.34 24 -39.68 24 -39 24 C-39 23.01 -39 22.02 -39 21 C-38.34 21 -37.68 21 -37 21 C-36.67 19.68 -36.34 18.36 -36 17 C-35.34 17 -34.68 17 -34 17 C-33.67 16.01 -33.34 15.02 -33 14 C-32.01 14 -31.02 14 -30 14 C-29.7525 13.401875 -29.505 12.80375 -29.25 12.1875 C-27.79509261 9.64141207 -26.52050729 8.48265135 -24 7 C-22.68 7 -21.36 7 -20 7 C-20 6.34 -20 5.68 -20 5 C-6.08928571 -0.36904762 -6.08928571 -0.36904762 0 0 Z " fill="#534418" transform="translate(63,78)"/>
<path d="M0 0 C0 0.33 0 0.66 0 1 C-1.051875 1.20625 -2.10375 1.4125 -3.1875 1.625 C-7.5397269 2.8672348 -9.44643852 5.27909613 -12 9 C-12.268125 9.886875 -12.53625 10.77375 -12.8125 11.6875 C-14.52055147 15.0137055 -16.87537451 15.41004055 -20.3203125 16.51953125 C-21.15175781 16.75736328 -21.15175781 16.75736328 -22 17 C-21.46864683 12.48349806 -19.76591425 9.57941844 -17 6 C-16.01 5.67 -15.02 5.34 -14 5 C-13.67 4.34 -13.34 3.68 -13 3 C-13.9075 3.350625 -14.815 3.70125 -15.75 4.0625 C-18.87758436 4.96468779 -20.05208081 5.13381507 -23 4 C-15.37252878 0.34517004 -8.34445701 -0.14900816 0 0 Z " fill="#E9B54D" transform="translate(72,79)"/>
<path d="M0 0 C2.64 0 5.28 0 8 0 C6.75928315 5.79001199 3.80261285 8.80580938 -1 12 C-1.66 12 -2.32 12 -3 12 C-3.0825 13.03125 -3.165 14.0625 -3.25 15.125 C-4.06833241 19.35305079 -5.4403897 21.58718627 -8 25 C-8.66 25.99 -9.32 26.98 -10 28 C-10.55389659 23.56882728 -9.10829564 20.902644 -7.078125 17.12109375 C-6.01537195 15.03024265 -5.21182165 12.96175919 -4.4375 10.75 C-3.35728891 7.71709964 -1.98319459 5.54982162 0 3 C0 2.01 0 1.02 0 0 Z " fill="#FEDD95" transform="translate(41,88)"/>
<path d="M0 0 C0.33 0 0.66 0 1 0 C1 4.62 1 9.24 1 14 C2.711875 13.71125 4.42375 13.4225 6.1875 13.125 C15.10774677 11.6382922 24.04337911 10.24976105 33 9 C26.33553889 15.66446111 12.92689097 16.0284279 4 16.0625 C2.33327851 16.04664803 0.66656881 16.02757191 -1 16 C-1.02712153 14.083412 -1.04645097 12.1667127 -1.0625 10.25 C-1.07410156 9.18265625 -1.08570312 8.1153125 -1.09765625 7.015625 C-1.01510087 4.46631499 -0.74617558 2.42066409 0 0 Z " fill="#5D470E" transform="translate(98,61)"/>
<path d="M0 0 C0 0.66 0 1.32 0 2 C0.86625 2.185625 1.7325 2.37125 2.625 2.5625 C7.03684887 4.44162082 9.16264073 7.23697742 12 11 C11.67 11.66 11.34 12.32 11 13 C10.21689453 12.22076172 10.21689453 12.22076172 9.41796875 11.42578125 C1.99623049 4.3939767 -5.12716035 -0.18236424 -15.5625 -0.5625 C-23.39206845 -0.21844533 -29.96008682 1.6775213 -35.625 7.25 C-36.40875 8.1575 -37.1925 9.065 -38 10 C-38.66 9.67 -39.32 9.34 -40 9 C-32.20825985 -2.55326988 -12.34179568 -6.9833863 0 0 Z " fill="#3B2E08" transform="translate(145,11)"/>
<path d="M0 0 C1.125 3.75 1.125 3.75 0 6 C-0.61801851 11.94248565 0.17489341 15.70292515 3 21 C3.1875 24.375 3.1875 24.375 3 27 C2.34 27.33 1.68 27.66 1 28 C0.67 28.99 0.34 29.98 0 31 C-0.66 31 -1.32 31 -2 31 C-2.33 31.66 -2.66 32.32 -3 33 C-4.32 31.35 -5.64 29.7 -7 28 C-6.34 27.67 -5.68 27.34 -5 27 C-4.34 27.33 -3.68 27.66 -3 28 C-2.25000909 21.196511 -1.92955258 14.5708793 -2.16015625 7.7265625 C-1.98668268 4.77328082 -1.23766687 2.66947756 0 0 Z " fill="#DCB054" transform="translate(33,111)"/>
<path d="M0 0 C3.80676045 2.70480348 5.60372403 4.54976883 7 9 C7.30078125 11.90234375 7.30078125 11.90234375 7.3125 14.9375 C7.33763672 16.43603516 7.33763672 16.43603516 7.36328125 17.96484375 C6.5731951 24.56588608 2.92017738 28.49919284 -1.6875 32.875 C-2.19861328 33.37257812 -2.70972656 33.87015625 -3.23632812 34.3828125 C-4.48408112 35.59558176 -5.74109864 36.79880719 -7 38 C-7.66 37.67 -8.32 37.34 -9 37 C-8.31292969 36.27554688 -7.62585938 35.55109375 -6.91796875 34.8046875 C-6.00745088 33.82846215 -5.0973149 32.85188053 -4.1875 31.875 C-3.29417969 30.92367187 -2.40085938 29.97234375 -1.48046875 28.9921875 C2.40991369 24.29922223 4.52754779 20.36249218 4.30078125 14.15625 C3.75654977 10.2547464 2.39559592 6.66615095 1 3 C0.67 2.01 0.34 1.02 0 0 Z " fill="#4F4119" transform="translate(145,30)"/>
<path d="M0 0 C0.33 0 0.66 0 1 0 C2.04819354 7.45067301 1.91318843 13.7109102 0 21 C-1.65 20.67 -3.3 20.34 -5 20 C-5.33 19.01 -5.66 18.02 -6 17 C-6.66 16.67 -7.32 16.34 -8 16 C-8.625 13.4375 -8.625 13.4375 -9 11 C-7.68 12.32 -6.36 13.64 -5 15 C-4.34 12.36 -3.68 9.72 -3 7 C-2.34 7 -1.68 7 -1 7 C-0.67 4.69 -0.34 2.38 0 0 Z " fill="#F4CC79" transform="translate(30,118)"/>
<path d="M0 0 C0.66 0.33 1.32 0.66 2 1 C-4.04289049 9.6327007 -12.88046299 13.39017352 -23.0625 15.4375 C-26.38684229 15.99239022 -28.77764605 16.01954386 -32 15 C-31.24976562 14.75765625 -30.49953125 14.5153125 -29.7265625 14.265625 C-13.47110678 9.53885483 -13.47110678 9.53885483 0 0 Z " fill="#5D4A17" transform="translate(149,72)"/>
<path d="M0 0 C0.33 0 0.66 0 1 0 C1.36637449 4.38056454 0.29866441 6.84968814 -1.875 10.625 C-2.40867187 11.56601563 -2.94234375 12.50703125 -3.4921875 13.4765625 C-4.61092078 15.3488467 -5.79016692 17.18525038 -7 19 C-7.45772063 21.73872955 -7.45772063 21.73872955 -7.625 24.6875 C-7.73714844 26.17830078 -7.73714844 26.17830078 -7.8515625 27.69921875 C-7.90054687 28.45847656 -7.94953125 29.21773437 -8 30 C-8.99 29.67 -9.98 29.34 -11 29 C-12.59412284 25.81175432 -12.10174735 22.37103338 -12.0625 18.875 C-12.05798828 18.12089844 -12.05347656 17.36679688 -12.04882812 16.58984375 C-12.03703499 14.72652873 -12.01909942 12.86325445 -12 11 C-11.67 11 -11.34 11 -11 11 C-11 15.95 -11 20.9 -11 26 C-10.34 26 -9.68 26 -9 26 C-9.06960937 25.38253906 -9.13921875 24.76507813 -9.2109375 24.12890625 C-9.62599796 17.63617481 -8.42114302 14.28012974 -4.53515625 9.1171875 C-2.44473648 6.23421672 -1.26914531 3.31387941 0 0 Z " fill="#F5E0AD" transform="translate(32,100)"/>
<path d="M0 0 C1.56167035 3.12334069 0.31834531 6.08758034 -0.375 9.375 C-1.75560924 16.25234956 -2.56174902 22.98798425 -3 30 C-14.385 30.99 -14.385 30.99 -26 32 C-21.02540629 28.68360419 -15.97547992 28.87780123 -10.125 28.9375 C-8.97257812 28.94652344 -7.82015625 28.95554687 -6.6328125 28.96484375 C-5.76398438 28.97644531 -4.89515625 28.98804687 -4 29 C-4.02094727 28.3702124 -4.04189453 27.7404248 -4.06347656 27.09155273 C-4.14720099 24.20703429 -4.19883621 21.32277232 -4.25 18.4375 C-4.28351563 17.44685547 -4.31703125 16.45621094 -4.3515625 15.43554688 C-4.43678096 9.02285814 -3.74243422 5.2526685 0 0 Z " fill="#584515" transform="translate(89,46)"/>
<path d="M0 0 C0.33 0 0.66 0 1 0 C1.06058594 1.07378906 1.12117188 2.14757812 1.18359375 3.25390625 C1.26807651 4.69011315 1.35272054 6.12631058 1.4375 7.5625 C1.47681641 8.26697266 1.51613281 8.97144531 1.55664062 9.69726562 C1.82518279 14.1798541 2.30616197 18.56293497 3 23 C3.99 23.33 4.98 23.66 6 24 C7.03729079 25.71801287 8.06894702 27.44137789 9.015625 29.2109375 C10.16273989 31.29577329 11.51493058 33.14366323 13 35 C10.51339545 34.6121322 9.27654781 34.29037521 7.515625 32.44140625 C7.09796875 31.82136719 6.6803125 31.20132813 6.25 30.5625 C5.82203125 29.94503906 5.3940625 29.32757813 4.953125 28.69140625 C4 27 4 27 4 25 C3.34 25 2.68 25 2 25 C-2.03026109 17.94704309 -2.15887333 9.45197225 -0.484375 1.57421875 C-0.32453125 1.05472656 -0.1646875 0.53523438 0 0 Z " fill="#5C4B1B" transform="translate(19,111)"/>
<path d="M0 0 C-0.53367187 0.31710938 -1.06734375 0.63421875 -1.6171875 0.9609375 C-9.02262021 5.59894207 -17.50877896 11.72027359 -21 20 C-21.33 20 -21.66 20 -22 20 C-22.48047576 15.97823991 -22.32899546 14.43429781 -19.83984375 11.1484375 C-18.89007244 10.20580732 -17.92160083 9.28173191 -16.9375 8.375 C-16.43597412 7.89643555 -15.93444824 7.41787109 -15.41772461 6.92480469 C-5.95279955 -1.90283873 -5.95279955 -1.90283873 0 0 Z " fill="#59491B" transform="translate(56,95)"/>
<path d="M0 0 C2.68493249 2.32884065 2.97493776 2.79592178 3.4375 6.5625 C3.19340816 12.85077069 0.81223183 18.76136069 -3.125 23.625 C-5 25 -5 25 -7 25 C-6.06532402 21.6507444 -5.32147408 19.35609436 -2.96875 16.75 C-0.47709944 13.26959921 -0.40855325 10.92879943 -0.25 6.6875 C-0.19328125 5.43324219 -0.1365625 4.17898437 -0.078125 2.88671875 C-0.05234375 1.93410156 -0.0265625 0.98148438 0 0 Z " fill="#FDF2DE" transform="translate(153,38)"/>
<path d="M0 0 C0 3.26347266 -0.41514153 4.22649768 -2 7 C-2.556875 8.010625 -3.11375 9.02125 -3.6875 10.0625 C-6.51832563 13.65841363 -8.63160337 14.71960788 -13 16 C-16.4375 15.6875 -16.4375 15.6875 -19 15 C-16.08235 13.0549 -14.37462715 12.54723683 -11 12 C-11 11.34 -11 10.68 -11 10 C-9.35546875 8.37890625 -9.35546875 8.37890625 -7.1875 6.5625 C-4.68897282 4.45536324 -2.2757944 2.34758602 0 0 Z " fill="#BD9652" transform="translate(74,131)"/>
<path d="M0 0 C1.8125 0.125 1.8125 0.125 4 1 C7.83906162 7.34921729 9.2688098 13.24798346 9.1875 20.625 C9.17783203 22.56246094 9.17783203 22.56246094 9.16796875 24.5390625 C9.03663187 27.24521308 8.81208875 29.44029626 8 32 C7.34 32 6.68 32 6 32 C6.04640625 30.81664063 6.0928125 29.63328125 6.140625 28.4140625 C6.38482661 19.46568263 6.4275897 12.04722508 2 4 C1.3314898 2.66759003 0.66427182 1.33452807 0 0 Z " fill="#5E5432" transform="translate(157,24)"/>
<path d="M0 0 C2.48063781 12.48519362 2.48063781 12.48519362 1 19 C0.67 19 0.34 19 0 19 C0 16.69 0 14.38 0 12 C-6.435 12.495 -6.435 12.495 -13 13 C-8.93274566 10.2884971 -5.8452389 10.42132512 -1 10 C-1 7.03 -1 4.06 -1 1 C-4.12290635 1.48578543 -6.99580359 1.9986012 -10 3 C-12.26171875 2.87890625 -12.26171875 2.87890625 -14.6875 2.5625 C-15.89986328 2.40974609 -15.89986328 2.40974609 -17.13671875 2.25390625 C-17.75160156 2.17011719 -18.36648437 2.08632812 -19 2 C-19 1.67 -19 1.34 -19 1 C-12.65758005 -0.15316726 -6.43311296 -0.09507063 0 0 Z " fill="#B38935" transform="translate(86,76)"/>
<path d="M0 0 C1 1 1 1 1.1875 3.4375 C1 6 1 6 -1 8 C-5.55555556 7.44444444 -5.55555556 7.44444444 -7 6 C-7.04080783 4.00041636 -7.04254356 1.99954746 -7 0 C-4.31633121 -1.3418344 -2.84719317 -0.73004953 0 0 Z " fill="#FAF8F3" transform="translate(95,79)"/>
<path d="M0 0 C0.556875 0.33773437 1.11375 0.67546875 1.6875 1.0234375 C13.1261524 7.7088661 23.07253117 7.66806049 36 6 C36 6.66 36 7.32 36 8 C25.31603077 11.56132308 11.73716321 9.17042975 1.8125 4.5 C1.214375 4.005 0.61625 3.51 0 3 C0 2.01 0 1.02 0 0 Z " fill="#816118" transform="translate(32,146)"/>
<path d="M0 0 C0.625 1.875 0.625 1.875 1 4 C0.34 4.66 -0.32 5.32 -1 6 C-1.90151199 9.18266581 -2.67983912 12.36544384 -3.41210938 15.58984375 C-4.68413056 20.78942037 -4.68413056 20.78942037 -8 23 C-7.44531682 14.40241069 -5.46627042 6.82502907 0 0 Z " fill="#4C3A0B" transform="translate(107,37)"/>
<path d="M0 0 C0 0.33 0 0.66 0 1 C-0.75925781 1.02578125 -1.51851562 1.0515625 -2.30078125 1.078125 C-3.29464844 1.13484375 -4.28851563 1.1915625 -5.3125 1.25 C-6.29863281 1.29640625 -7.28476563 1.3428125 -8.30078125 1.390625 C-11.64149764 2.14482436 -12.17393611 3.21003142 -14 6 C-19.18918919 8.27027027 -19.18918919 8.27027027 -23 7 C-23.99 7 -24.98 7 -26 7 C-17.9721154 -0.27527041 -10.36169622 -0.42647225 0 0 Z " fill="#BC8F38" transform="translate(136,10)"/>
<path d="M0 0 C3.36720387 1.39332574 4.9859524 2.9789286 7 6 C6.67 6.66 6.34 7.32 6 8 C5.01 7.67 4.02 7.34 3 7 C3 6.01 3 5.02 3 4 C2.401875 4.309375 1.80375 4.61875 1.1875 4.9375 C-1 6 -1 6 -4 7 C-4.66 6.67 -5.32 6.34 -6 6 C-5.67 7.32 -5.34 8.64 -5 10 C-8.01327566 8.49336217 -8.61056618 5.96833589 -10 3 C-7.66666667 3 -5.33333333 3 -3 3 C-1.31201173 1.56249809 -1.31201173 1.56249809 0 0 Z " fill="#EAB54D" transform="translate(154,23)"/>
<path d="M0 0 C0.66 0.99 1.32 1.98 2 3 C1.34 3 0.68 3 0 3 C0.66 5.31 1.32 7.62 2 10 C4.44480079 9.81171228 4.44480079 9.81171228 7 9 C8.36020151 7.03241727 8.36020151 7.03241727 9 5 C9.125 7.375 9.125 7.375 9 10 C7 12 7 12 4.375 12.125 C3.59125 12.08375 2.8075 12.0425 2 12 C2.02320312 13.04800781 2.04640625 14.09601563 2.0703125 15.17578125 C2.08907303 16.55468037 2.10727293 17.9335872 2.125 19.3125 C2.15013672 20.34793945 2.15013672 20.34793945 2.17578125 21.40429688 C2.21217794 25.17135396 2.14378864 26.78431704 0 30 C0.01160156 28.89140625 0.02320312 27.7828125 0.03515625 26.640625 C0.04453792 25.17708502 0.05363771 23.71354322 0.0625 22.25 C0.07087891 21.52039063 0.07925781 20.79078125 0.08789062 20.0390625 C0.1039614 16.50349119 -0.08253826 13.40123648 -1 10 C-1.21192095 8.41974995 -1.39923371 6.83601539 -1.5625 5.25 C-1.68818359 4.05117187 -1.68818359 4.05117187 -1.81640625 2.828125 C-1.90728516 1.92320313 -1.90728516 1.92320313 -2 1 C-1.34 0.67 -0.68 0.34 0 0 Z " fill="#D3B687" transform="translate(88,76)"/>
<path d="M0 0 C1.10153804 3.30461413 0.95317786 3.98668832 -0.1875 7.125 C-0.42855469 7.82882813 -0.66960937 8.53265625 -0.91796875 9.2578125 C-2 11 -2 11 -3.97265625 11.64453125 C-4.64167969 11.76183594 -5.31070313 11.87914062 -6 12 C-8.2072358 13.48800372 -8.2072358 13.48800372 -10 15 C-8.83097826 11.8826087 -7.52263513 8.83337277 -6.125 5.8125 C-5.81820312 5.13832031 -5.51140625 4.46414062 -5.1953125 3.76953125 C-3.7452006 1.62279697 -2.36870785 0.96631387 0 0 Z " fill="#FCEABB" transform="translate(161,52)"/>
<path d="M0 0 C0.6640625 1.75390625 0.6640625 1.75390625 1 4 C-0.0390625 5.96484375 -0.0390625 5.96484375 -1.625 7.9375 C-2.17929688 8.62714844 -2.73359375 9.31679687 -3.3046875 10.02734375 C-5.44306078 12.51554307 -7.54560449 14.8183151 -10 17 C-10.66 17 -11.32 17 -12 17 C-10.9284589 14.77449157 -9.79587609 12.66829864 -8.5 10.5625 C-6.93013079 8.03757254 -6.93013079 8.03757254 -5.9375 5.25 C-5 3 -5 3 -3 2 C-3.33 3.32 -3.66 4.64 -4 6 C-1.2160817 4.60804085 -1.02101003 2.84424221 0 0 Z " fill="#D8BD96" transform="translate(83,121)"/>
<path d="M0 0 C0.33 0 0.66 0 1 0 C1.02708567 1.60407328 1.04643483 3.2082785 1.0625 4.8125 C1.07410156 5.70582031 1.08570312 6.59914063 1.09765625 7.51953125 C1 10 1 10 0 13 C-0.66 13 -1.32 13 -2 13 C-2.0825 14.0725 -2.165 15.145 -2.25 16.25 C-3.05476902 20.2738451 -3.87729874 21.48169253 -7 24 C-7 20.49051468 -6.05300712 18.56944367 -4.625 15.375 C-2.42660644 10.25579461 -1.00294261 5.47059606 0 0 Z " fill="#614A0E" transform="translate(96,108)"/>
<path d="M0 0 C0 4.57142857 0 4.57142857 -1 7 C-4.72346264 10.55027833 -8.28276523 12.86601284 -13 15 C-11.80305384 10.0625971 -8.72863565 7.75150833 -4.97265625 4.6484375 C-3.21084313 3.17618971 -1.59447784 1.64945984 0 0 Z " fill="#EFCE8C" transform="translate(147,58)"/>
<path d="M0 0 C1.65 1.32 3.3 2.64 5 4 C5.99 2.68 6.98 1.36 8 0 C8.99 0.33 9.98 0.66 11 1 C11.33 2.65 11.66 4.3 12 6 C11.67 5.34 11.34 4.68 11 4 C8.03824877 4.61277612 6.61941217 5.25372522 4 7 C3.34 6.01 2.68 5.02 2 4 C1.96261719 4.91523437 1.92523438 5.83046875 1.88671875 6.7734375 C1.82097656 7.96195313 1.75523437 9.15046875 1.6875 10.375 C1.62949219 11.55835938 1.57148438 12.74171875 1.51171875 13.9609375 C1.34285156 14.96382812 1.17398438 15.96671875 1 17 C0.01 17.66 -0.98 18.32 -2 19 C-1.505 17.515 -1.505 17.515 -1 16 C-0.77202438 13.26710707 -0.58331813 10.54957796 -0.4375 7.8125 C-0.39431641 7.06291016 -0.35113281 6.31332031 -0.30664062 5.54101562 C-0.20077315 3.69421625 -0.0999024 1.84713166 0 0 Z " fill="#E8CD96" transform="translate(152,35)"/>
<path d="M0 0 C0.66 0.33 1.32 0.66 2 1 C1.071875 1.86625 0.14375 2.7325 -0.8125 3.625 C-6.15740989 9.00746195 -8.29314819 16.04737554 -11 23 C-11.33 23 -11.66 23 -12 23 C-11.38400666 12.060808 -11.38400666 12.060808 -8 8 C-7.34 8 -6.68 8 -6 8 C-5.67 6.68 -5.34 5.36 -5 4 C-4.34 4 -3.68 4 -3 4 C-3 3.34 -3 2.68 -3 2 C-2.01 1.34 -1.02 0.68 0 0 Z " fill="#4D3D14" transform="translate(102,23)"/>
<path d="M0 0 C0.59296875 0.20496094 1.1859375 0.40992187 1.796875 0.62109375 C-2.23835852 5.43233371 -6.24779733 9.75352094 -11.203125 13.62109375 C-9.9539508 10.16184212 -8.52784705 7.47416172 -6.203125 4.62109375 C-6.863125 4.29109375 -7.523125 3.96109375 -8.203125 3.62109375 C-2.74543269 -0.47217548 -2.74543269 -0.47217548 0 0 Z " fill="#D09E42" transform="translate(115.203125,16.37890625)"/>
<path d="M0 0 C0.99 0.33 1.98 0.66 3 1 C2.690625 1.763125 2.38125 2.52625 2.0625 3.3125 C1.32106407 5.18789677 0.63771783 7.08684652 0 9 C-0.33 8.34 -0.66 7.68 -1 7 C-1.99 7 -2.98 7 -4 7 C-4.33 7.99 -4.66 8.98 -5 10 C-5.66 7.69 -6.32 5.38 -7 3 C-6.21625 2.87625 -5.4325 2.7525 -4.625 2.625 C-1.85942178 2.20882007 -1.85942178 2.20882007 0 0 Z " fill="#FBC865" transform="translate(155,26)"/>
<path d="M0 0 C-0.2165625 1.918125 -0.2165625 1.918125 -0.4375 3.875 C-0.99814645 8.91280884 -1.50501531 13.95536879 -2 19 C-2.66 19 -3.32 19 -4 19 C-4.02698422 16.56242587 -4.04683099 14.12515085 -4.0625 11.6875 C-4.07087891 10.99720703 -4.07925781 10.30691406 -4.08789062 9.59570312 C-4.10307906 6.4516975 -4.00193327 4.00579981 -3 1 C-1 0 -1 0 0 0 Z " fill="#FDF7EA" transform="translate(25,107)"/>
<path d="M0 0 C0.66 0 1.32 0 2 0 C1.34 1.32 0.68 2.64 0 4 C-0.66 4 -1.32 4 -2 4 C-2 4.66 -2 5.32 -2 6 C-2.598125 6.433125 -3.19625 6.86625 -3.8125 7.3125 C-6.32708737 9.25232454 -7.50149792 11.22777115 -9 14 C-9.66 13.34 -10.32 12.68 -11 12 C-8.92835249 6.10377246 -6.32970624 4.0856194 -1 1 C-0.67 0.67 -0.34 0.34 0 0 Z " fill="#EDDFBE" transform="translate(36,92)"/>
<path d="M0 0 C0.33 0 0.66 0 1 0 C1.3690205 13.6332574 1.3690205 13.6332574 -1 20 C-1.33 20 -1.66 20 -2 20 C-2.0544452 17.79194476 -2.09299283 15.58349446 -2.125 13.375 C-2.14820312 12.14523438 -2.17140625 10.91546875 -2.1953125 9.6484375 C-2.0030428 6.05683959 -1.30258556 3.33338825 0 0 Z " fill="#EFEAE3" transform="translate(88,89)"/>
<path d="M0 0 C-1.32 0.33 -2.64 0.66 -4 1 C-4 1.66 -4 2.32 -4 3 C-9.45461169 4.38529821 -14.36718401 5.2396943 -20 5 C-14.38031638 -0.15137665 -7.19911624 -0.25711129 0 0 Z " fill="#5D470D" transform="translate(76,89)"/>
<path d="M0 0 C0 0.33 0 0.66 0 1 C-1.0725 1.268125 -2.145 1.53625 -3.25 1.8125 C-6.56508928 2.86227827 -8.43877646 3.74612328 -11 6 C-11.33 4.35 -11.66 2.7 -12 1 C-8.0186217 -0.3271261 -4.14954773 -0.06915913 0 0 Z M-14 8 C-13.34 8.66 -12.68 9.32 -12 10 C-12.75 11.9375 -12.75 11.9375 -14 14 C-16.125 14.75 -16.125 14.75 -18 15 C-17.6875 13.0625 -17.6875 13.0625 -17 11 C-16.01 10.67 -15.02 10.34 -14 10 C-14 9.34 -14 8.68 -14 8 Z " fill="#F8B840" transform="translate(72,79)"/>
<path d="M0 0 C0.33 0.99 0.66 1.98 1 3 C-0.1875 5.25 -0.1875 5.25 -2 8 C-4.71405875 12.57997414 -6.98840725 17.07159777 -9 22 C-9.95465783 19.83032311 -10.14401212 18.43671207 -9.3984375 16.17578125 C-8.64129615 14.4315257 -7.82390802 12.71372869 -7 11 C-6.34 11 -5.68 11 -5 11 C-4.9175 10.29875 -4.835 9.5975 -4.75 8.875 C-3.82972275 5.34727053 -2.11873023 2.93888386 0 0 Z " fill="#DBA954" transform="translate(103,28)"/>
<path d="M0 0 C0.77601562 0.16371094 1.55203125 0.32742187 2.3515625 0.49609375 C7.0492078 1.144912 11.64013661 1.10640387 16.375 1.0625 C17.76525391 1.05573242 17.76525391 1.05573242 19.18359375 1.04882812 C21.45579709 1.03711574 23.72786388 1.02071372 26 1 C22.24200762 4.75799238 16.51752322 4.17802801 11.4375 4.25 C10.34308594 4.27578125 9.24867187 4.3015625 8.12109375 4.328125 C4.65701827 3.96394185 2.78309938 3.05234145 0 1 C0 0.67 0 0.34 0 0 Z " fill="#3B2E06" transform="translate(42,153)"/>
<path d="M0 0 C1.1854683 2.80201597 1.01522667 3.95622331 0 6.875 C-2.46325365 10.72383383 -5.41140497 13.22744165 -9 16 C-9.66 15.67 -10.32 15.34 -11 15 C-10.54109375 14.50371094 -10.0821875 14.00742188 -9.609375 13.49609375 C-5.74280707 9.21525069 -2.66482385 5.11646179 0 0 Z " fill="#5F5738" transform="translate(162,56)"/>
<path d="M0 0 C2.05078125 0.03255208 4.1015625 0.06510417 6.15234375 0.09765625 C6.15234375 0.75765625 6.15234375 1.41765625 6.15234375 2.09765625 C-5.39482606 6.09765625 -5.39482606 6.09765625 -10.84765625 6.09765625 C-8.48438026 3.36123142 -6.21071148 2.3366766 -2.84765625 1.09765625 C-1.84765625 0.09765625 -1.84765625 0.09765625 0 0 Z " fill="#EBC880" transform="translate(47.84765625,83.90234375)"/>
<path d="M0 0 C1.57432497 3.14864995 0.71895552 5.64487425 0 9 C-0.99 9.66 -1.98 10.32 -3 11 C-3.73606499 14.56769552 -3.73606499 14.56769552 -4 18 C-6 16 -6 16 -6.1171875 14.046875 C-5.49974053 8.19108757 -4.26516242 4.26516242 0 0 Z " fill="#FDD98B" transform="translate(30,116)"/>
<path d="M0 0 C1.5 1.125 1.5 1.125 3 3 C3.1875 6.1875 3.1875 6.1875 3 9 C2.01 9.495 2.01 9.495 1 10 C0.67 10.99 0.34 11.98 0 13 C-0.66 13 -1.32 13 -2 13 C-2.33 13.66 -2.66 14.32 -3 15 C-3.99 13.68 -4.98 12.36 -6 11 C-3.525 11.495 -3.525 11.495 -1 12 C-1.01160156 11.38511719 -1.02320313 10.77023438 -1.03515625 10.13671875 C-1.04417969 9.32847656 -1.05320312 8.52023438 -1.0625 7.6875 C-1.07410156 6.88699219 -1.08570313 6.08648437 -1.09765625 5.26171875 C-1 3 -1 3 0 0 Z " fill="#F1B844" transform="translate(33,129)"/>
<path d="M0 0 C0.66 0 1.32 0 2 0 C1.67 0.94875 1.34 1.8975 1 2.875 C-0.10159191 5.77062452 -0.10159191 5.77062452 0 8 C-1.98 8.33 -3.96 8.66 -6 9 C-6 7.68 -6 6.36 -6 5 C-4.125 3.375 -4.125 3.375 -2 2 C-1.34 1.34 -0.68 0.68 0 0 Z " fill="#FEDB8F" transform="translate(146,68)"/>
<path d="M0 0 C-1.27231719 4.97360357 -3.08584614 7.67296922 -7 11 C-7.66 11 -8.32 11 -9 11 C-4.91428571 0 -4.91428571 0 0 0 Z " fill="#FDD47E" transform="translate(49,88)"/>
<path d="M0 0 C0.33 0 0.66 0 1 0 C1.33 6.6 1.66 13.2 2 20 C1.67 19.34 1.34 18.68 1 18 C0.34 18 -0.32 18 -1 18 C-1.02707139 15.75006641 -1.04642829 13.50003905 -1.0625 11.25 C-1.07410156 9.99703125 -1.08570312 8.7440625 -1.09765625 7.453125 C-1.02021027 4.71463499 -0.82780815 2.58119707 0 0 Z " fill="#5F5532" transform="translate(19,111)"/>
<path d="M0 0 C6.14250692 0.71424499 9.84821843 2.46599611 13.8125 7.1875 C14.534375 8.115625 15.25625 9.04375 16 10 C15.67 10.66 15.34 11.32 15 12 C14.41992188 11.45730469 13.83984375 10.91460937 13.2421875 10.35546875 C9.03272029 6.50026363 5.30205308 3.17520126 0 1 C0 0.67 0 0.34 0 0 Z " fill="#594410" transform="translate(141,12)"/>
<path d="M0 0 C0.66 0 1.32 0 2 0 C1.39212833 3.36205563 0.1832736 5.34514405 -1.9375 8 C-3.98365252 10.57402971 -5.61884896 13.0108422 -7 16 C-7.25 10.375 -7.25 10.375 -5 7 C-4.34 7 -3.68 7 -3 7 C-3 6.01 -3 5.02 -3 4 C-2.34 4 -1.68 4 -1 4 C-0.67 2.68 -0.34 1.36 0 0 Z " fill="#484021" transform="translate(27,95)"/>
<path d="M0 0 C1.65 0 3.3 0 5 0 C4.51660156 0.53882812 4.03320312 1.07765625 3.53515625 1.6328125 C1.65161592 4.53720293 1.57304894 6.43817841 1.4375 9.875 C1.18115301 14.24357993 0.70123312 17.9170405 -1 22 C-1.93423645 18.98968256 -2.04449911 18.13349732 -1 15 C-0.77281504 12.43365139 -0.58391816 9.88321893 -0.4375 7.3125 C-0.39431641 6.61060547 -0.35113281 5.90871094 -0.30664062 5.18554688 C-0.2008264 3.45724794 -0.09993419 1.7286489 0 0 Z " fill="#C59848" transform="translate(90,88)"/>
<path d="M0 0 C0 3 0 3 -2.40625 5.69921875 C-3.4299968 6.70302243 -4.4616054 7.69885649 -5.5 8.6875 C-6.02464844 9.19861328 -6.54929688 9.70972656 -7.08984375 10.23632812 C-8.38660904 11.49772708 -9.69246117 12.74977212 -11 14 C-11.66 13.67 -12.32 13.34 -13 13 C-11.39979779 11.20465118 -9.79509897 9.41370539 -8.1875 7.625 C-7.73568359 7.11710937 -7.28386719 6.60921875 -6.81835938 6.0859375 C-4.64829248 3.67827204 -2.71407209 1.80938139 0 0 Z " fill="#675628" transform="translate(149,54)"/>
<path d="M0 0 C3.34373475 0.55728913 6.03312999 1.35173889 9 3 C9 3.66 9 4.32 9 5 C11.97 5 14.94 5 18 5 C18 5.33 18 5.66 18 6 C7.24899957 6.68867618 7.24899957 6.68867618 3.375 4.125 C1 2 1 2 0 0 Z " fill="#624A0F" transform="translate(41,137)"/>
<path d="M0 0 C0.99 0.66 1.98 1.32 3 2 C2.41196203 5.02419525 1.77321882 8.01758453 1 11 C-0.32 11 -1.64 11 -3 11 C-2.01 7.37 -1.02 3.74 0 0 Z " fill="#DFD4C4" transform="translate(85,105)"/>
<path d="M0 0 C0 3 0 3 -1.5 5.5625 C-4.87273382 8.85091548 -7.41155408 9.15878491 -12 10 C-9.62226815 7.49914935 -7.04733058 5.41316697 -4.3125 3.3125 C-3.50425781 2.68988281 -2.69601563 2.06726563 -1.86328125 1.42578125 C-1.24839844 0.95527344 -0.63351563 0.48476562 0 0 Z " fill="#5A450D" transform="translate(80,142)"/>
<path d="M0 0 C0 3 0 3 -2.40625 5.69921875 C-3.4299968 6.70302243 -4.4616054 7.69885649 -5.5 8.6875 C-6.02464844 9.19861328 -6.54929687 9.70972656 -7.08984375 10.23632812 C-8.38660904 11.49772708 -9.69246117 12.74977212 -11 14 C-11.66 13.67 -12.32 13.34 -13 13 C-12.278125 12.29875 -11.55625 11.5975 -10.8125 10.875 C-8.86886803 8.94238011 -7.09777169 6.94370996 -5.375 4.8125 C-3 2 -3 2 0 0 Z " fill="#5C4819" transform="translate(76,127)"/>
<path d="M0 0 C0.66 0 1.32 0 2 0 C1.46246904 6.18160604 -0.54582388 11.326858 -3 17 C-4.35168942 14.29662115 -3.47140836 12.79239094 -2.61328125 10.01953125 C-1.60915417 6.71294716 -0.82413123 3.35539145 0 0 Z " fill="#4F3F12" transform="translate(82,107)"/>
<path d="M0 0 C0.99 0.33 1.98 0.66 3 1 C2.43224464 2.29858939 1.84508337 3.58870441 1.25 4.875 C0.92515625 5.59429687 0.6003125 6.31359375 0.265625 7.0546875 C-1.21929686 9.3370674 -2.50415408 10.00375898 -5 11 C-4.46884894 6.48521602 -2.63379708 3.65333143 0 0 Z " fill="#F8C150" transform="translate(55,85)"/>
<path d="M0 0 C0.66 0.66 1.32 1.32 2 2 C1.9765625 4.6015625 1.9765625 4.6015625 1.625 7.625 C1.51414062 8.62789062 1.40328125 9.63078125 1.2890625 10.6640625 C1.19367188 11.43492188 1.09828125 12.20578125 1 13 C-0.515625 11.75390625 -0.515625 11.75390625 -2 10 C-2.109375 8.02734375 -2.109375 8.02734375 -1.75 5.9375 C-1.64171875 5.24527344 -1.5334375 4.55304687 -1.421875 3.83984375 C-1 2 -1 2 0 0 Z " fill="#E4D8C8" transform="translate(90,46)"/>
<path d="M0 0 C0 4.66993394 -2.17546569 7.40513814 -5 11 C-5.99 10.67 -6.98 10.34 -8 10 C-5.83735988 6.01618925 -3.28788824 3.11016455 0 0 Z " fill="#C5AB85" transform="translate(74,131)"/>
<path d="M0 0 C0.33 0 0.66 0 1 0 C1.103125 1.051875 1.20625 2.10375 1.3125 3.1875 C1.75881125 6.96260616 1.75881125 6.96260616 3.625 9.6875 C5 12 5 12 4.6875 14.3125 C4.460625 14.869375 4.23375 15.42625 4 16 C0.9005971 12.09205721 -0.13464242 9.29032666 -0.0625 4.3125 C-0.05347656 3.50425781 -0.04445313 2.69601563 -0.03515625 1.86328125 C-0.02355469 1.24839844 -0.01195313 0.63351563 0 0 Z " fill="#5B4919" transform="translate(32,117)"/>
<path d="M0 0 C0.144375 1.11375 0.28875 2.2275 0.4375 3.375 C0.78372035 6.82142047 0.78372035 6.82142047 2 9 C0.35 9 -1.3 9 -3 9 C-3 6.36 -3 3.72 -3 1 C-1 0 -1 0 0 0 Z " fill="#C1943D" transform="translate(93,68)"/>
<path d="M0 0 C0 4.38968456 -2.12805101 5.76905739 -5 9 C-5.33 8.34 -5.66 7.68 -6 7 C-6.66 6.67 -7.32 6.34 -8 6 C-5.79072873 2.51167694 -3.91402949 1.26941497 0 0 Z " fill="#D9B177" transform="translate(110,19)"/>
<path d="M0 0 C3.36591866 1.44253657 5.51047079 3.33264727 8 6 C6.25 6.75 6.25 6.75 4 7 C1.75 5.25 1.75 5.25 0 3 C0 2.01 0 1.02 0 0 Z " fill="#E3A731" transform="translate(31,142)"/>
<path d="M0 0 C0.66 0.33 1.32 0.66 2 1 C1.34 4.3 0.68 7.6 0 11 C-1.65 10.67 -3.3 10.34 -5 10 C-5 9.34 -5 8.68 -5 8 C-4.34 8 -3.68 8 -3 8 C-2.01 5.36 -1.02 2.72 0 0 Z " fill="#FBCA68" transform="translate(30,128)"/>
<path d="M0 0 C-0.59167969 0.23074219 -1.18335937 0.46148437 -1.79296875 0.69921875 C-6.91265887 2.81223931 -10.37979369 4.79588945 -14 9 C-14.66 8.67 -15.32 8.34 -16 8 C-11.93404441 2.45551511 -7.41132722 -2.3515152 0 0 Z " fill="#5A4511" transform="translate(121,12)"/>
<path d="M0 0 C0 0.33 0 0.66 0 1 C-1.08667969 1.07347656 -1.08667969 1.07347656 -2.1953125 1.1484375 C-7.4851539 1.55751857 -11.96450587 2.28056298 -17 4 C-19.16015625 3.5546875 -19.16015625 3.5546875 -21 3 C-13.93924474 -0.32270836 -7.7276932 -0.31806054 0 0 Z " fill="#946F1F" transform="translate(136,10)"/>
<path d="M0 0 C0.75 1.625 0.75 1.625 1 4 C-0.8125 7.0625 -0.8125 7.0625 -3 10 C-3.66 10.99 -4.32 11.98 -5 13 C-5.42161769 8.36220546 -4.06085642 5.12171284 -2 1 C-1.34 0.67 -0.68 0.34 0 0 Z " fill="#F5D387" transform="translate(36,103)"/>
<path d="M0 0 C0.33 0.99 0.66 1.98 1 3 C-1.31 4.98 -3.62 6.96 -6 9 C-5.8125 6.1875 -5.8125 6.1875 -5 3 C-2.4375 1.125 -2.4375 1.125 0 0 Z " fill="#ECC673" transform="translate(43,97)"/>
<path d="M0 0 C0.66 0.33 1.32 0.66 2 1 C-0.97 3.64 -3.94 6.28 -7 9 C-7.33 7.68 -7.66 6.36 -8 5 C-7.360625 4.896875 -6.72125 4.79375 -6.0625 4.6875 C-5.381875 4.460625 -4.70125 4.23375 -4 4 C-3.67 3.01 -3.34 2.02 -3 1 C-2.01 0.67 -1.02 0.34 0 0 Z " fill="#564C29" transform="translate(37,88)"/>
<path d="M0 0 C0.33 1.32 0.66 2.64 1 4 C0.360625 4.165 -0.27875 4.33 -0.9375 4.5 C-3.16119241 5.781786 -3.16119241 5.781786 -3.48828125 7.9140625 C-3.7275978 9.93575155 -3.86893028 11.96841939 -4 14 C-4.66 14 -5.32 14 -6 14 C-5.05944297 8.31953056 -4.13782924 4.27575688 0 0 Z " fill="#735715" transform="translate(107,37)"/>
<path d="M0 0 C0.66 0.33 1.32 0.66 2 1 C-2.77899344 7.70459519 -2.77899344 7.70459519 -7.875 8.9375 C-8.90625 8.958125 -9.9375 8.97875 -11 9 C-8.6227567 6.37252056 -6.02316819 4.81390092 -3 3 C-1.24850835 1.41754725 -1.24850835 1.41754725 0 0 Z " fill="#60532C" transform="translate(149,72)"/>
<path d="M0 0 C1.26237731 3.78713193 0.67558873 6.25651933 0.0625 10.1875 C-0.13214844 11.45980469 -0.32679687 12.73210937 -0.52734375 14.04296875 C-0.68332031 15.01878906 -0.83929688 15.99460937 -1 17 C-1.33 17 -1.66 17 -2 17 C-2.05383848 14.54137599 -2.09359038 12.0839245 -2.125 9.625 C-2.14175781 8.92632812 -2.15851563 8.22765625 -2.17578125 7.5078125 C-2.19344267 5.67102514 -2.10303261 3.83398037 -2 2 C-1.34 1.34 -0.68 0.68 0 0 Z " fill="#352A04" transform="translate(101,58)"/>
<path d="M0 0 C0.99 0.33 1.98 0.66 3 1 C1.8803014 2.00593243 0.7540588 3.0045849 -0.375 4 C-1.00148437 4.556875 -1.62796875 5.11375 -2.2734375 5.6875 C-4 7 -4 7 -6 7 C-4.61990379 3.66476748 -3.15049348 1.81392049 0 0 Z " fill="#44370E" transform="translate(137,63)"/>
<path d="M0 0 C0.66 0.99 1.32 1.98 2 3 C0.95125002 5.62187494 0.35068687 6.79371361 -2.125 8.25 C-2.74375 8.4975 -3.3625 8.745 -4 9 C-2.94124926 5.59687262 -1.99097846 2.98646769 0 0 Z " fill="#FAE4BB" transform="translate(150,54)"/>
<path d="M0 0 C0.99 0.33 1.98 0.66 3 1 C-0.27301919 3.96909598 -2.38065762 4.34354794 -6.75 4.1875 C-8.22726563 4.14689453 -8.22726563 4.14689453 -9.734375 4.10546875 C-10.85585938 4.05326172 -10.85585938 4.05326172 -12 4 C-12 3.67 -12 3.34 -12 3 C-11.38511719 2.95101562 -10.77023438 2.90203125 -10.13671875 2.8515625 C-9.32847656 2.77679688 -8.52023438 2.70203125 -7.6875 2.625 C-6.88699219 2.55539063 -6.08648437 2.48578125 -5.26171875 2.4140625 C-2.72775559 2.10435574 -2.72775559 2.10435574 0 0 Z " fill="#403207" transform="translate(62,138)"/>
<path d="M0 0 C-1.75 3.875 -1.75 3.875 -4 5 C-4 4.34 -4 3.68 -4 3 C-5.65 4.32 -7.3 5.64 -9 7 C-9.66 6.67 -10.32 6.34 -11 6 C-7.87921364 2.5324596 -4.85451611 0 0 0 Z " fill="#EAD6A6" transform="translate(42,89)"/>
<path d="M0 0 C0.66 0.99 1.32 1.98 2 3 C1.34 3 0.68 3 0 3 C0.391875 4.258125 0.78375 5.51625 1.1875 6.8125 C1.85546875 8.95703125 1.85546875 8.95703125 2 11 C1.01 11.99 0.02 12.98 -1 14 C-1.33 9.71 -1.66 5.42 -2 1 C-1.34 0.67 -0.68 0.34 0 0 Z " fill="#D7BC90" transform="translate(88,76)"/>
<path d="M0 0 C0.33 0 0.66 0 1 0 C1.20413361 5.73842251 1.27141454 10.60539047 -1 16 C-1.77772405 13.66682784 -2.42415568 11.38564077 -3 9 C-2.34 8.67 -1.68 8.34 -1 8 C-0.53476937 6.10466658 -0.53476937 6.10466658 -0.375 3.9375 C-0.25125 2.638125 -0.1275 1.33875 0 0 Z " fill="#DFD0A6" transform="translate(163,42)"/>
<path d="M0 0 C1.48280196 0.78483659 2.9611498 1.57809334 4.4375 2.375 C5.67306641 3.03628906 5.67306641 3.03628906 6.93359375 3.7109375 C9 5 9 5 10 7 C8.51515588 6.60404157 7.0371169 6.18249294 5.5625 5.75 C4.73878906 5.51796875 3.91507813 5.2859375 3.06640625 5.046875 C1 4 1 4 0.21484375 1.890625 C0.14394531 1.26671875 0.07304688 0.6428125 0 0 Z " fill="#59440D" transform="translate(32,146)"/>
<path d="M0 0 C0.66 0.33 1.32 0.66 2 1 C1.3503125 1.5878125 1.3503125 1.5878125 0.6875 2.1875 C-1.26366224 4.28319278 -2.59010162 6.51589333 -4 9 C-4.66 8.34 -5.32 7.68 -6 7 C-4.02 4.69 -2.04 2.38 0 0 Z " fill="#FFF8EA" transform="translate(31,97)"/>
<path d="M0 0 C2.31 0 4.62 0 7 0 C5.48065294 3.03869411 3.01995228 3.64410306 0 5 C-0.66 5 -1.32 5 -2 5 C-1.34 3.35 -0.68 1.7 0 0 Z " fill="#DCBC75" transform="translate(138,76)"/>
<path d="M0 0 C0.66 0.33 1.32 0.66 2 1 C1.38511719 1.59748047 1.38511719 1.59748047 0.7578125 2.20703125 C0.21898438 2.73683594 -0.31984375 3.26664063 -0.875 3.8125 C-1.40867187 4.33457031 -1.94234375 4.85664063 -2.4921875 5.39453125 C-4.20776561 7.13259904 -4.20776561 7.13259904 -6 10 C-6 8.35 -6 6.7 -6 5 C-5.01 4.67 -4.02 4.34 -3 4 C-3 3.34 -3 2.68 -3 2 C-2.01 1.34 -1.02 0.68 0 0 Z " fill="#5F4918" transform="translate(102,23)"/>
<path d="M0 0 C0.53625 0.2475 1.0725 0.495 1.625 0.75 C-3.79038462 4.81153846 -3.79038462 4.81153846 -6.75 4.5 C-7.28625 4.2525 -7.8225 4.005 -8.375 3.75 C-2.95961538 -0.31153846 -2.95961538 -0.31153846 0 0 Z " fill="#CFA256" transform="translate(115.375,16.25)"/>
<path d="M0 0 C0.75 1.6875 0.75 1.6875 1 4 C-0.8125 6.75 -0.8125 6.75 -3 9 C-3.66 9 -4.32 9 -5 9 C-3.50163895 5.88801935 -1.80066242 2.9465385 0 0 Z " fill="#E6D7C5" transform="translate(76,129)"/>
<path d="M0 0 C1 3 1 3 0 6 C-0.99 6 -1.98 6 -3 6 C-3.33 6.99 -3.66 7.98 -4 9 C-3.46930939 5.17902761 -2.50298434 2.93828597 0 0 Z " fill="#C8C2AD" transform="translate(25,102)"/>
<path d="M0 0 C1 2 1 2 0.0625 5.125 C-0.288125 6.07375 -0.63875 7.0225 -1 8 C-1.66 8 -2.32 8 -3 8 C-3.33 8.66 -3.66 9.32 -4 10 C-3.5205537 5.78087253 -2.83374881 3.20336822 0 0 Z " fill="#43350D" transform="translate(89,46)"/>
<path d="M0 0 C4 1 4 1 5.8125 3.9375 C6.204375 4.948125 6.59625 5.95875 7 7 C6.67 7.66 6.34 8.32 6 9 C4.02 6.03 2.04 3.06 0 0 Z " fill="#403513" transform="translate(157,24)"/>
<path d="M0 0 C1 3 1 3 0.3125 5.0625 C-1.21259665 7.31383315 -2.50584728 8.00233891 -5 9 C-3.90931332 5.22454612 -3.0916909 2.52956528 0 0 Z " fill="#53400B" transform="translate(93,123)"/>
<path d="M0 0 C0.66 0.33 1.32 0.66 2 1 C1.25 2.9375 1.25 2.9375 0 5 C-2.125 5.75 -2.125 5.75 -4 6 C-3.6875 4.125 -3.6875 4.125 -3 2 C-2.01 1.34 -1.02 0.68 0 0 Z " fill="#EFB238" transform="translate(58,88)"/>
<path d="M0 0 C0.33 1.32 0.66 2.64 1 4 C-0.98 4.99 -2.96 5.98 -5 7 C-3.75023244 3.34683329 -3.32901247 2.21934164 0 0 Z " fill="#FBCF78" transform="translate(139,66)"/>
<path d="M0 0 C0.95465783 2.16967689 1.14401212 3.56328793 0.3984375 5.82421875 C-0.35870385 7.5684743 -1.17609198 9.28627131 -2 11 C-2.95465783 8.83032311 -3.14401212 7.43671207 -2.3984375 5.17578125 C-1.64129615 3.4315257 -0.82390802 1.71372869 0 0 Z " fill="#DEB26C" transform="translate(96,39)"/>
<path d="M0 0 C0 0.66 0 1.32 0 2 C-3.47325181 3.1577506 -6.36067448 3.06866652 -10 3 C-4 0 -4 0 0 0 Z " fill="#E1A631" transform="translate(120,75)"/>
<path d="M0 0 C0.66 0.33 1.32 0.66 2 1 C0.35 2.65 -1.3 4.3 -3 6 C-3.66 5.01 -4.32 4.02 -5 3 C-2.625 1.4375 -2.625 1.4375 0 0 Z " fill="#E3B251" transform="translate(134,68)"/>
<path d="M0 0 C0.66 0 1.32 0 2 0 C1.67 0.94875 1.34 1.8975 1 2.875 C-0.10159191 5.77062452 -0.10159191 5.77062452 0 8 C-0.99 8 -1.98 8 -3 8 C-2.690625 7.236875 -2.38125 6.47375 -2.0625 5.6875 C-1.32106407 3.81210323 -0.63771783 1.91315348 0 0 Z " fill="#FADE9B" transform="translate(146,68)"/>
</svg>
