<?xml version="1.0" encoding="UTF-8"?>
<svg version="1.1" xmlns="http://www.w3.org/2000/svg" width="512" height="512" viewBox="0 0 512 512">
<path d="M0 0 C5.05176238 4.3238678 9.89539835 8.86239806 14.70117188 13.45605469 C15.37792969 14.0915625 16.0546875 14.72707031 16.75195312 15.38183594 C21.88645192 20.3274796 26.28947142 25.86994697 30.70117188 31.45605469 C31.1889209 32.06739258 31.67666992 32.67873047 32.17919922 33.30859375 C43.25820772 47.23945311 52.75111839 61.82321425 61.13867188 77.51855469 C69.38748798 92.87229936 79.93915593 106.62795961 91.70117188 119.45605469 C92.17876953 119.97893066 92.65636719 120.50180664 93.1484375 121.04052734 C111.17326582 140.52270815 135.25757057 155.71269118 162.38867188 156.76855469 C181.55649253 156.21652145 198.16362033 149.89770156 212.70117188 137.45605469 C213.37664062 136.88113281 214.05210937 136.30621094 214.74804688 135.71386719 C227.35020726 124.05965692 234.66856563 105.66785531 235.69726562 88.74902344 C235.72151755 68.30465148 228.46959934 50.39644814 214.45117188 35.58105469 C204.91489194 26.56204168 194.21683098 21.16273071 181.70117188 17.45605469 C180.87359375 17.20984375 180.04601562 16.96363281 179.19335938 16.70996094 C159.12469476 11.7778315 137.16725015 17.35747767 119.69091797 27.63867188 C113.43185016 31.52340072 107.48764466 35.75752879 101.76367188 40.39355469 C95.94307631 45.00651267 90.39156917 47.05362747 82.92382812 46.73339844 C75.35099467 45.78845788 69.71155288 42.15370034 64.70117188 36.45605469 C60.5091735 30.21515823 59.80917996 23.82042692 60.70117188 16.45605469 C61.96628516 10.72411835 64.24078512 7.33465187 68.70117188 3.45605469 C69.590625 2.59947266 69.590625 2.59947266 70.49804688 1.72558594 C96.98904162 -23.22176062 134.05033469 -35.72507196 170.03759766 -34.68017578 C203.61554382 -32.96280695 233.35474601 -17.1731615 256.20117188 7.08105469 C275.37010972 28.99325042 285.14009153 56.1348235 285.01367188 85.14355469 C285.01093765 86.13659103 285.01093765 86.13659103 285.00814819 87.14968872 C284.96113214 97.29397682 284.44243041 106.67221324 281.70117188 116.45605469 C281.3840625 117.64972656 281.06695312 118.84339844 280.74023438 120.07324219 C276.12442566 135.55747993 268.09720705 150.11732608 257.70117188 162.45605469 C256.89421875 163.43703125 256.08726562 164.41800781 255.25585938 165.42871094 C235.26905507 188.93122067 204.93789413 203.1946838 174.46679688 205.98730469 C150.19492473 207.76987126 127.53913457 203.09936472 105.70117188 192.45605469 C104.76402344 192.00746094 103.826875 191.55886719 102.86132812 191.09667969 C81.60173002 180.22711073 61.96029823 163.08923912 47.13867188 144.51074219 C45.41112158 142.34576729 43.6671632 140.21076639 41.88867188 138.08886719 C30.95453636 124.92974131 22.38043712 110.56516712 14.07617188 95.64355469 C9.14274411 86.78252237 3.8981557 78.48008029 -2.29882812 70.45605469 C-2.98460937 69.56015625 -3.67039063 68.66425781 -4.37695312 67.74121094 C-9.0793327 61.73364333 -14.09117258 56.0290107 -19.29882812 50.45605469 C-20.53052734 49.12574219 -20.53052734 49.12574219 -21.78710938 47.76855469 C-38.47951454 30.35899434 -61.23646533 15.84029806 -86.00610352 15.16308594 C-106.14583216 14.97623933 -124.46285389 21.29815018 -139.61523438 34.76464844 C-152.21722415 47.40332523 -159.86316397 63.65381912 -161.29882812 81.45605469 C-161.35167969 82.09285156 -161.40453125 82.72964844 -161.45898438 83.38574219 C-162.28394053 102.39560141 -154.38395514 119.68368209 -142.24414062 133.85449219 C-128.30036397 148.81979094 -108.37414788 156.04999254 -88.23632812 156.83105469 C-64.89266955 155.88308886 -45.80588777 145.58608951 -27.765625 131.49267578 C-20.13814528 125.59119236 -13.96557506 124.50925118 -4.29882812 125.45605469 C2.623665 127.49857658 7.86331322 132.42513394 11.70117188 138.45605469 C14.56352289 144.78335693 14.74500296 151.97601646 12.63867188 158.58105469 C5.74829379 174.16199974 -13.83345555 184.03484725 -28.29882812 191.45605469 C-28.92112305 191.77944824 -29.54341797 192.1028418 -30.18457031 192.43603516 C-60.45037606 207.98288382 -95.67798448 210.38927833 -128.06445312 200.20654297 C-158.78030452 189.88961474 -184.72121653 167.9390767 -199.22875977 138.87426758 C-212.71232508 110.52334643 -215.23664667 77.36556359 -205.29882812 47.45605469 C-199.38406908 31.25594795 -190.96249896 17.12593724 -179.29882812 4.45605469 C-178.50734375 3.58207031 -177.71585938 2.70808594 -176.90039062 1.80761719 C-165.86781474 -9.81140792 -152.86451861 -18.0847098 -138.29882812 -24.54394531 C-137.22117187 -25.02605469 -136.14351563 -25.50816406 -135.03320312 -26.00488281 C-88.40626291 -45.33514697 -37.48117176 -31.30652785 0 0 Z " fill="#d4af37" transform="translate(256,256)"/>
</svg>
