<?xml version="1.0" encoding="UTF-8"?>
<svg version="1.1" xmlns="http://www.w3.org/2000/svg" width="420" height="209">
<path d="M0 0 C138.6 0 277.2 0 420 0 C420 68.97 420 137.94 420 209 C281.4 209 142.8 209 0 209 C0 140.03 0 71.06 0 0 Z " fill="#1D1700" transform="translate(0,0)"/>
<path d="M0 0 C2.89589652 -0.02706445 5.79153795 -0.04687029 8.6875 -0.0625 C9.91243164 -0.07506836 9.91243164 -0.07506836 11.16210938 -0.08789062 C15.24499084 -0.10442051 19.01651707 -0.03035098 23 1 C23 1.66 23 2.32 23 3 C23.515625 3.2475 24.03125 3.495 24.5625 3.75 C25.7690625 4.36875 25.7690625 4.36875 27 5 C28.5778125 5.7734375 28.5778125 5.7734375 30.1875 6.5625 C39.7642938 12.14381424 45.55351237 20.66053712 49 31 C49.8024079 41.53446937 49.59367245 50.66192932 44 60 C41.4375 62.9375 41.4375 62.9375 39 65 C38.401875 65.78375 37.80375 66.5675 37.1875 67.375 C32.88534119 72.53759057 28.35901725 76.68763009 22 79 C21.67 79.99 21.34 80.98 21 82 C19.03533587 83.06775224 17.03144641 84.06553465 15 85 C14.01 85.66 13.02 86.32 12 87 C7.73374377 87.96443463 3.39042374 88.50177898 -0.9375 89.125 C-2.11119141 89.30675781 -3.28488281 89.48851563 -4.49414062 89.67578125 C-12.05186844 90.78708893 -19.36454547 91.23622926 -27 91 C-26.94835693 91.85883789 -26.89671387 92.71767578 -26.84350586 93.60253906 C-25.97615175 110.75416116 -31.12486899 133.68833402 -42.2890625 147.15625 C-51.3 156.86666667 -51.3 156.86666667 -56 160 C-56.33 160.99 -56.66 161.98 -57 163 C-65.29276652 168.25882755 -77.8525818 168.32720372 -87.29296875 166.57421875 C-89.34029001 165.88614996 -91.10755187 165.04308164 -93 164 C-93.86109375 163.5359375 -94.7221875 163.071875 -95.609375 162.59375 C-104.80751828 157.20699205 -112.49484575 149.76116753 -117 140 C-119.08625359 130.31690574 -120.14625097 117.82805439 -115.5625 108.8125 C-112.15853135 103.63045831 -107.79979083 99.85289332 -103 96 C-101.0317991 94.22132956 -99.0738026 92.43201483 -97.1171875 90.640625 C-91.77723745 86.50265633 -86.01851357 84.04737153 -79.6875 81.875 C-78.94201904 81.61565674 -78.19653809 81.35631348 -77.4284668 81.08911133 C-72.01610466 79.24816783 -66.6605023 77.84348598 -61 77 C-60.06285156 76.82210937 -59.12570313 76.64421875 -58.16015625 76.4609375 C-54.76810373 75.96617582 -51.55099301 75.90254089 -48.125 75.9375 C-46.39636719 75.95103516 -46.39636719 75.95103516 -44.6328125 75.96484375 C-43.32957031 75.98224609 -43.32957031 75.98224609 -42 76 C-42.01160156 75.07316406 -42.02320313 74.14632812 -42.03515625 73.19140625 C-42.04417969 71.99386719 -42.05320312 70.79632813 -42.0625 69.5625 C-42.07410156 68.36753906 -42.08570313 67.17257813 -42.09765625 65.94140625 C-42 63 -42 63 -41 62 C-40.68704613 59.90659238 -40.37919831 57.81226815 -40.09985352 55.71411133 C-38.92464063 47.01687986 -37.21858865 39.77886251 -33 32 C-32.73960937 31.34644531 -32.47921875 30.69289063 -32.2109375 30.01953125 C-29.1097594 22.42321116 -22.67102641 16.73774437 -17 11 C-16.25878906 10.23429687 -15.51757812 9.46859375 -14.75390625 8.6796875 C-10.23340062 4.33199798 -6.22569065 2.70615473 0 2 C0 1.34 0 0.68 0 0 Z " fill="#D4A138" transform="translate(253,28)"/>
<path d="M0 0 C2.89589652 -0.02706445 5.79153795 -0.04687029 8.6875 -0.0625 C9.91243164 -0.07506836 9.91243164 -0.07506836 11.16210938 -0.08789062 C15.24499084 -0.10442051 19.01651707 -0.03035098 23 1 C23 1.66 23 2.32 23 3 C23.515625 3.2475 24.03125 3.495 24.5625 3.75 C25.7690625 4.36875 25.7690625 4.36875 27 5 C28.5778125 5.7734375 28.5778125 5.7734375 30.1875 6.5625 C39.7642938 12.14381424 45.55351237 20.66053712 49 31 C49.8024079 41.53446937 49.59367245 50.66192932 44 60 C41.4375 62.9375 41.4375 62.9375 39 65 C38.401875 65.78375 37.80375 66.5675 37.1875 67.375 C34.15449621 71.01460455 30.59918575 73.93616225 27 77 C26.67 77.33 26.34 77.66 26 78 C23.66702567 78.04092937 21.33294775 78.04241723 19 78 C19 78.66 19 79.32 19 80 C17.35 80 15.7 80 14 80 C13.01 78.02 12.02 76.04 11 74 C13.82512849 69.21901333 16.26166961 67.03968364 21 64 C27.47617846 59.38220318 31.34972486 55.0608947 33.46484375 47.2890625 C34.55608809 40.58229074 35.08041052 33.49985728 31.5 27.4765625 C29.77239704 25.47343666 27.9991898 23.72855712 26 22 C24.64946454 20.68409365 23.30693833 19.35921586 22 18 C22 17.34 22 16.68 22 16 C21.05125 15.690625 20.1025 15.38125 19.125 15.0625 C16 14 16 14 14 13 C7.92543101 12.65748699 1.98446551 12.93609502 -4 14 C-4.495 13.01 -4.495 13.01 -5 12 C-5 13.32 -5 14.64 -5 16 C-6.828125 17.74609375 -6.828125 17.74609375 -9.25 19.4375 C-14.57038968 23.3652485 -17.61597159 26.74570759 -20.07421875 32.953125 C-21.98493866 37.17767029 -24.55535848 41.06800377 -27 45 C-27.66 44.34 -28.32 43.68 -29 43 C-32.89922792 53.79786192 -34.45890954 63.51026478 -34 75 C-33.01 75 -32.02 75 -31 75 C-29.2927556 77.97917548 -28.70470389 80.19569052 -28.6875 83.625 C-28.67074219 84.40101562 -28.65398437 85.17703125 -28.63671875 85.9765625 C-28.75660156 86.64429687 -28.87648438 87.31203125 -29 88 C-32.22791555 90.1519437 -33.28400809 90.20086443 -37 90 C-36.94779297 91.74023438 -36.94779297 91.74023438 -36.89453125 93.515625 C-36.70335362 102.80566313 -37.05835382 111.07000268 -40 120 C-40.66 120 -41.32 120 -42 120 C-42.16435547 120.85271484 -42.16435547 120.85271484 -42.33203125 121.72265625 C-43.53980516 127.60441699 -45.31166969 132.62333938 -48 138 C-48.66 138 -49.32 138 -50 138 C-50.33 138.99 -50.66 139.98 -51 141 C-51.66 141 -52.32 141 -53 141 C-52.21302675 137.58978257 -51.12880057 134.31114834 -50 131 C-49.34 131 -48.68 131 -48 131 C-47.896875 130.236875 -47.79375 129.47375 -47.6875 128.6875 C-47.12919209 125.6929394 -46.3954872 123.02113665 -45.5 120.125 C-43.7650247 113.98520878 -43.47173554 108.03909484 -43.2109375 101.69921875 C-43.0222139 98.38956599 -42.61540789 95.2535909 -42 92 C-58.48107449 92.43314256 -75.25668306 94.70478726 -88 106 C-89.65532623 107.01866229 -91.32260138 108.01810813 -93 109 C-94.22259981 109.72651164 -95.43024929 110.47854671 -96.625 111.25 C-97.19476563 111.60578125 -97.76453125 111.9615625 -98.3515625 112.328125 C-102.60098347 116.63796428 -103.35331691 121.7259213 -103.3125 127.51171875 C-103.291875 128.25035156 -103.27125 128.98898438 -103.25 129.75 C-103.24484375 130.50410156 -103.2396875 131.25820312 -103.234375 132.03515625 C-103.1884895 135.26434811 -103.0269659 137.9191023 -102 141 C-103.4375 143.1875 -103.4375 143.1875 -105 145 C-105.33 143.68 -105.66 142.36 -106 141 C-107.5833253 142.2488427 -107.5833253 142.2488427 -109 144 C-109 145.32 -109 146.64 -109 148 C-110.75 147.9375 -110.75 147.9375 -113 147 C-119.32033709 137.79036595 -119.25507883 125.84914586 -118 115 C-115.4536603 106.52515949 -109.71386657 101.38936228 -103 96 C-101.0317991 94.22132956 -99.0738026 92.43201483 -97.1171875 90.640625 C-91.77723745 86.50265633 -86.01851357 84.04737153 -79.6875 81.875 C-78.94201904 81.61565674 -78.19653809 81.35631348 -77.4284668 81.08911133 C-72.01610466 79.24816783 -66.6605023 77.84348598 -61 77 C-60.06285156 76.82210937 -59.12570313 76.64421875 -58.16015625 76.4609375 C-54.76810373 75.96617582 -51.55099301 75.90254089 -48.125 75.9375 C-46.39636719 75.95103516 -46.39636719 75.95103516 -44.6328125 75.96484375 C-43.32957031 75.98224609 -43.32957031 75.98224609 -42 76 C-42.01160156 75.07316406 -42.02320313 74.14632812 -42.03515625 73.19140625 C-42.04417969 71.99386719 -42.05320312 70.79632813 -42.0625 69.5625 C-42.07410156 68.36753906 -42.08570313 67.17257813 -42.09765625 65.94140625 C-42 63 -42 63 -41 62 C-40.68704613 59.90659238 -40.37919831 57.81226815 -40.09985352 55.71411133 C-38.92464063 47.01687986 -37.21858865 39.77886251 -33 32 C-32.73960937 31.34644531 -32.47921875 30.69289063 -32.2109375 30.01953125 C-29.1097594 22.42321116 -22.67102641 16.73774437 -17 11 C-16.25878906 10.23429687 -15.51757812 9.46859375 -14.75390625 8.6796875 C-10.23340062 4.33199798 -6.22569065 2.70615473 0 2 C0 1.34 0 0.68 0 0 Z " fill="#D5B467" transform="translate(253,28)"/>
<path d="M0 0 C5.87541306 4.66800617 10.00845796 8.79698067 10.92578125 16.4453125 C11.10882253 22.74578617 11.22675044 28.92789947 7 34 C6.34 34 5.68 34 5 34 C5 34.66 5 35.32 5 36 C3.1875 38.125 3.1875 38.125 1 40 C0.01 40 -0.98 40 -2 40 C-2 40.66 -2 41.32 -2 42 C-2.99 42 -3.98 42 -5 42 C-5.12604614 42.91036011 -5.12604614 42.91036011 -5.25463867 43.83911133 C-6.479773 47.39091741 -9.19114528 48.19521568 -12.39697266 49.84912109 C-16.55543453 51.68770572 -20.76093777 52.81475132 -25.1875 53.8125 C-26.09717529 54.02479248 -27.00685059 54.23708496 -27.9440918 54.45581055 C-35.43397418 56.09812571 -42.33827096 56.45973248 -50 56 C-50.11745244 52.18776488 -50.18766603 48.37600318 -50.25 44.5625 C-50.28351563 43.49322266 -50.31703125 42.42394531 -50.3515625 41.32226562 C-50.43870052 34.19873232 -49.37353418 29.24608065 -46 23 C-45.505 21.824375 -45.01 20.64875 -44.5 19.4375 C-40.78116124 10.91516117 -37.07367878 3.2572792 -29 -2 C-19.69841514 -5.32199459 -8.1943457 -6.20429032 0 0 Z " fill="#201900" transform="translate(277,47)"/>
<path d="M0 0 C-0.1140575 2.91747073 -0.24080268 5.83344495 -0.375 8.75 C-0.4059375 9.575 -0.436875 10.4 -0.46875 11.25 C-0.50742188 12.04921875 -0.54609375 12.8484375 -0.5859375 13.671875 C-0.6173584 14.4050293 -0.6487793 15.13818359 -0.68115234 15.89355469 C-1.03900778 18.25770221 -1.90753658 19.8877971 -3 22 C-3.185625 23.5778125 -3.185625 23.5778125 -3.375 25.1875 C-4.1471228 29.89744909 -5.92128429 33.73621569 -8 38 C-8.66 38 -9.32 38 -10 38 C-10.33 39.65 -10.66 41.3 -11 43 C-11.66 43 -12.32 43 -13 43 C-13.11472656 43.56976563 -13.22945312 44.13953125 -13.34765625 44.7265625 C-15.17730663 51.10294886 -19.33440631 55.97016753 -24.8125 59.5625 C-31.61597809 63.22356444 -36.94871239 62.67022407 -44.25 60.8125 C-52.29867307 58.11302232 -55.33233329 52.19377436 -59 45 C-59.556875 44.0409375 -59.556875 44.0409375 -60.125 43.0625 C-61.87170202 38.94527381 -61.43729567 34.37948355 -61 30 C-59.625 27.125 -59.625 27.125 -58 25 C-57.7525 24.195625 -57.505 23.39125 -57.25 22.5625 C-54.37275855 16.66415503 -48.68576643 13.78239634 -43 11 C-42.15308594 10.21367187 -41.30617187 9.42734375 -40.43359375 8.6171875 C-36.47087059 5.26224023 -32.0662257 4.04444246 -27.125 2.6875 C-25.7479187 2.29860596 -25.7479187 2.29860596 -24.34301758 1.90185547 C-16.09390208 -0.27111018 -8.49115744 -0.64854668 0 0 Z " fill="#281F01" transform="translate(211,120)"/>
<path d="M0 0 C2.89589652 -0.02706445 5.79153795 -0.04687029 8.6875 -0.0625 C9.91243164 -0.07506836 9.91243164 -0.07506836 11.16210938 -0.08789062 C15.24499084 -0.10442051 19.01651707 -0.03035098 23 1 C23 1.66 23 2.32 23 3 C23.515625 3.2475 24.03125 3.495 24.5625 3.75 C25.366875 4.1625 26.17125 4.575 27 5 C28.051875 5.515625 29.10375 6.03125 30.1875 6.5625 C39.7642938 12.14381424 45.55351237 20.66053712 49 31 C49.8024079 41.53446937 49.59367245 50.66192932 44 60 C41.4375 62.9375 41.4375 62.9375 39 65 C38.401875 65.78375 37.80375 66.5675 37.1875 67.375 C34.15449621 71.01460455 30.59918575 73.93616225 27 77 C26.67 77.33 26.34 77.66 26 78 C23.66702567 78.04092937 21.33294775 78.04241723 19 78 C19 78.66 19 79.32 19 80 C17.35 80 15.7 80 14 80 C13.01 78.02 12.02 76.04 11 74 C13.82512849 69.21901333 16.26166961 67.03968364 21 64 C27.47617846 59.38220318 31.34972486 55.0608947 33.46484375 47.2890625 C34.55608809 40.58229074 35.08041052 33.49985728 31.5 27.4765625 C29.77239704 25.47343666 27.9991898 23.72855712 26 22 C24.64946454 20.68409365 23.30693833 19.35921586 22 18 C22 17.34 22 16.68 22 16 C21.05125 15.690625 20.1025 15.38125 19.125 15.0625 C16 14 16 14 14 13 C7.92543101 12.65748699 1.98446551 12.93609502 -4 14 C-4.495 13.01 -4.495 13.01 -5 12 C-5 13.32 -5 14.64 -5 16 C-6.828125 17.74609375 -6.828125 17.74609375 -9.25 19.4375 C-14.57038968 23.3652485 -17.61597159 26.74570759 -20.07421875 32.953125 C-21.98493866 37.17767029 -24.55535848 41.06800377 -27 45 C-27.66 44.34 -28.32 43.68 -29 43 C-32.89922792 53.79786192 -34.45890954 63.51026478 -34 75 C-33.01 75 -32.02 75 -31 75 C-31 75.66 -31 76.32 -31 77 C-32.98 77 -34.96 77 -37 77 C-37.71241294 58.16063551 -33.05226097 40.9992176 -25 24 C-26.65 24.99 -28.3 25.98 -30 27 C-28.37766372 23.09333965 -25.72287104 20.23940911 -22.875 17.1875 C-22.13467529 16.39400146 -22.13467529 16.39400146 -21.37939453 15.58447266 C-19.92966892 14.04628602 -18.46826471 12.52048116 -17 11 C-15.9171875 9.87658203 -15.9171875 9.87658203 -14.8125 8.73046875 C-10.258008 4.36880806 -6.26175378 2.71024522 0 2 C0 1.34 0 0.68 0 0 Z " fill="#CD9932" transform="translate(253,28)"/>
<path d="M0 0 C2.85392219 0.63420493 4.5568108 1.32501118 6.1875 3.80859375 C10.83715113 13.12499032 11.69344381 23.50026753 9.05859375 33.61328125 C6.87928765 39.09912075 4.56204871 43.13980494 0 47 C-0.598125 47.78375 -1.19625 48.5675 -1.8125 49.375 C-4.84550379 53.01460455 -8.40081425 55.93616225 -12 59 C-12.495 59.495 -12.495 59.495 -13 60 C-15.33297433 60.04092937 -17.66705225 60.04241723 -20 60 C-20 60.66 -20 61.32 -20 62 C-21.65 62 -23.3 62 -25 62 C-25.99 60.02 -26.98 58.04 -28 56 C-25.17487151 51.21901333 -22.73833039 49.03968364 -18 46 C-11.51659541 41.37705064 -7.68375999 37.05679142 -5.515625 29.30078125 C-4.32507599 21.67946374 -4.88251953 14.07618584 -8 7 C-8.35858516 5.67323492 -8.7018576 4.34164079 -9 3 C-8.4225 3.20625 -7.845 3.4125 -7.25 3.625 C-4.44563145 4.09239476 -3.34613181 3.53712084 -1 2 C-0.67 1.34 -0.34 0.68 0 0 Z " fill="#FAE2A7" transform="translate(292,46)"/>
<path d="M0 0 C-0.99 0 -1.98 0 -3 0 C-3.10441406 0.58007812 -3.20882812 1.16015625 -3.31640625 1.7578125 C-4.10376879 4.34036162 -5.22991656 5.79583972 -6.9375 7.875 C-8.94528363 10.43208293 -9.98950868 11.96502895 -10.9375 15.125 C-12.2873578 18.7775564 -14.26394533 20.05743382 -17.25390625 22.42578125 C-20.02315032 24.92243754 -21.33710986 27.67421972 -23 31 C-23.35191406 31.61101562 -23.70382813 32.22203125 -24.06640625 32.8515625 C-25.22622915 35.52061102 -25.41809997 37.85339954 -25.625 40.75 C-25.69976562 41.73484375 -25.77453125 42.7196875 -25.8515625 43.734375 C-25.90054688 44.48203125 -25.94953125 45.2296875 -26 46 C-26.99 46 -27.98 46 -29 46 C-29.06058594 46.62648437 -29.12117187 47.25296875 -29.18359375 47.8984375 C-29.26738281 48.71570313 -29.35117188 49.53296875 -29.4375 50.375 C-29.51871094 51.18710938 -29.59992188 51.99921875 -29.68359375 52.8359375 C-30 55 -30 55 -31 57 C-31.66 57 -32.32 57 -33 57 C-33 56.01 -33 55.02 -33 54 C-33.639375 53.7525 -34.27875 53.505 -34.9375 53.25 C-37 52 -37 52 -37.60961914 50.18188477 C-39.39678643 40.19319554 -39.5930969 28.94849104 -33.90234375 20.28515625 C-30.63489037 16.36018659 -26.95986874 13.20044186 -23 10 C-22.02546875 9.05640625 -22.02546875 9.05640625 -21.03125 8.09375 C-15.71459542 2.95141197 -7.65989478 -2.72033646 0 0 Z " fill="#FADE9D" transform="translate(173,114)"/>
<path d="M0 0 C0.5775 0.185625 1.155 0.37125 1.75 0.5625 C4.29039608 1.05646591 5.51383596 0.62154101 8 0 C15.51734617 -0.71204676 20.52843655 0.09264094 27 4 C27 4.66 27 5.32 27 6 C26.14019531 5.67644531 25.28039062 5.35289063 24.39453125 5.01953125 C16.09434688 2.52661051 6.79869029 3.1742274 -1 7 C-7.91345938 11.60897292 -10.8911331 17.57727904 -14 25 C-14.70494684 26.584844 -15.41319996 28.16822212 -16.125 29.75 C-16.75823544 31.16300471 -17.38317768 32.57975366 -18 34 C-18.34063477 34.75079834 -18.68126953 35.50159668 -19.03222656 36.27514648 C-20.08211923 39.23121411 -20.31367407 41.60950864 -20.4140625 44.73828125 C-20.47207031 46.33833008 -20.47207031 46.33833008 -20.53125 47.97070312 C-20.5621875 49.07349609 -20.593125 50.17628906 -20.625 51.3125 C-20.66367188 52.43462891 -20.70234375 53.55675781 -20.7421875 54.71289062 C-20.83622011 57.47509852 -20.92187341 60.237304 -21 63 C-12.46873098 62.74964493 -4.49453797 61.66508457 3.8125 59.75 C4.68285889 59.55768799 5.55321777 59.36537598 6.44995117 59.16723633 C12.40388395 57.72980705 18.06343944 55.72799572 23 52 C23.33 51.01 23.66 50.02 24 49 C24.99 49 25.98 49 27 49 C27 48.34 27 47.68 27 47 C27.99 46.67 28.98 46.34 30 46 C30.66 45.01 31.32 44.02 32 43 C32.66 43 33.32 43 34 43 C34 42.34 34 41.68 34 41 C34.99 40.67 35.98 40.34 37 40 C35.50592885 44.7312253 35.50592885 44.7312253 33 46.0625 C32.34 46.371875 31.68 46.68125 31 47 C30.56494141 47.928125 30.56494141 47.928125 30.12109375 48.875 C24.85569298 58.85541122 6.93670976 62.92161778 -3.05737305 66.10791016 C-8.88375033 67.85938705 -13.89319293 68.60066955 -20 68 C-20.33 69.98 -20.66 71.96 -21 74 C-21.33 74 -21.66 74 -22 74 C-22.1546875 72.576875 -22.1546875 72.576875 -22.3125 71.125 C-22.68539295 67.70892499 -22.68539295 67.70892499 -26 66 C-26 65.01 -26 64.02 -26 63 C-26.99 63 -27.98 63 -29 63 C-32.18504552 56.62990895 -29.92477798 47.5228587 -28 41 C-27.53676629 38.63023414 -27.08663003 36.2594722 -26.66015625 33.8828125 C-26 32 -26 32 -23 30 C-22.34 30 -21.68 30 -21 30 C-18.90043161 26.4007399 -16.92060117 22.85131424 -15.1875 19.0625 C-12.210518 13.01440219 -7.61735408 7.74106573 -2 4 C-1.34 4 -0.68 4 0 4 C0 2.68 0 1.36 0 0 Z " fill="#C2922F" transform="translate(248,40)"/>
<path d="M0 0 C0.66 0 1.32 0 2 0 C0.46433238 4.65783877 -1.10240803 9.29980576 -2.75390625 13.91796875 C-7.28454858 26.93971706 -9.4025383 39.23625271 -10 53 C-9.05125 52.95875 -8.1025 52.9175 -7.125 52.875 C-4 53 -4 53 -2 55 C-1.69921875 57.09375 -1.69921875 57.09375 -1.6875 59.5 C-1.66236328 60.69109375 -1.66236328 60.69109375 -1.63671875 61.90625 C-1.75660156 62.5971875 -1.87648437 63.288125 -2 64 C-5.22791555 66.1519437 -6.28400809 66.20086443 -10 66 C-9.94779297 67.74023438 -9.94779297 67.74023438 -9.89453125 69.515625 C-9.70335362 78.80566313 -10.05835382 87.07000268 -13 96 C-13.66 96 -14.32 96 -15 96 C-15.10957031 96.56847656 -15.21914062 97.13695312 -15.33203125 97.72265625 C-16.53980516 103.60441699 -18.31166969 108.62333938 -21 114 C-21.66 114 -22.32 114 -23 114 C-23.33 114.99 -23.66 115.98 -24 117 C-24.66 117 -25.32 117 -26 117 C-25.21302675 113.58978257 -24.12880057 110.31114834 -23 107 C-22.34 107 -21.68 107 -21 107 C-20.87496094 106.15308594 -20.74992188 105.30617188 -20.62109375 104.43359375 C-19.97989905 100.88887586 -19.04262857 97.52808668 -18.0625 94.0625 C-14.88064057 82.12189642 -13.89546887 69.33879921 -14 57 C-13.34 57 -12.68 57 -12 57 C-12 56.01 -12 55.02 -12 54 C-12.66 54 -13.32 54 -14 54 C-14.70782301 34.99364138 -13.16856597 16.94753145 -1.33203125 1.36328125 C-0.89246094 0.91339844 -0.45289063 0.46351562 0 0 Z " fill="#E1C89B" transform="translate(226,52)"/>
<path d="M0 0 C-6.23030861 2.61789963 -12.06120406 3.79713215 -18.75 4.625 C-20.59918897 4.86542014 -22.44815763 5.10754242 -24.296875 5.3515625 C-25.10479492 5.45291504 -25.91271484 5.55426758 -26.74511719 5.65869141 C-28.87859991 5.98162437 -30.91776437 6.43921473 -33 7 C-33.08040527 7.55872803 -33.16081055 8.11745605 -33.24365234 8.69311523 C-33.6172656 11.2750973 -33.99610645 13.85628772 -34.375 16.4375 C-34.56449219 17.75524414 -34.56449219 17.75524414 -34.7578125 19.09960938 C-36.49900195 30.89616793 -38.85273643 41.68846112 -45 52 C-45.33 52.86625 -45.66 53.7325 -46 54.625 C-47.23356362 57.5547136 -48.94487949 59.58221116 -51 62 C-51.9590625 63.2684375 -51.9590625 63.2684375 -52.9375 64.5625 C-55.09552094 67.11288838 -57.27903469 69.06668254 -60 71 C-60.66 71 -61.32 71 -62 71 C-62.495 72.485 -62.495 72.485 -63 74 C-64.7421875 75.5703125 -64.7421875 75.5703125 -66.875 77.125 C-67.57367188 77.64320313 -68.27234375 78.16140625 -68.9921875 78.6953125 C-73.99569914 81.94662162 -79.56827515 81.18395637 -85.3125 81.1875 C-86.34568359 81.19974609 -87.37886719 81.21199219 -88.44335938 81.22460938 C-98.30029622 81.24357718 -98.30029622 81.24357718 -103 79 C-103.495 78.01 -103.495 78.01 -104 77 C-105.55200653 76.12915189 -107.1424036 75.32587048 -108.75 74.5625 C-110.10931641 73.89734375 -110.10931641 73.89734375 -111.49609375 73.21875 C-112.73552734 72.61546875 -112.73552734 72.61546875 -114 72 C-121.04727679 68.39805853 -124.25878066 63.226851 -127 56 C-127.51175781 54.84371094 -128.02351562 53.68742187 -128.55078125 52.49609375 C-130.52246876 47.20738931 -130.55167109 42.02882785 -130.5625 36.4375 C-130.59923828 35.43525391 -130.63597656 34.43300781 -130.67382812 33.40039062 C-130.70487892 28.1597069 -130.44467572 24.8567337 -126.96484375 20.78515625 C-126.0014118 19.83100836 -125.02123227 18.89201119 -124 18 C-124 21 -124 21 -125.48046875 23.59765625 C-127.45653678 28.02221988 -127.40596213 31.65597747 -127.3125 36.4375 C-127.31572266 37.25798828 -127.31894531 38.07847656 -127.32226562 38.92382812 C-127.23227986 49.17402436 -123.9286035 57.77568029 -116.8515625 65.27734375 C-112.54030373 69.22810477 -108.24596467 72.42470826 -103 75 C-101.2365625 75.86625 -101.2365625 75.86625 -99.4375 76.75 C-91.39616833 79.63422032 -81.28588766 78.56337503 -73 77 C-72.01 76.34 -71.02 75.68 -70 75 C-69.01 75 -68.02 75 -67 75 C-66.93296875 74.43023437 -66.8659375 73.86046875 -66.796875 73.2734375 C-65.68574606 70.10345199 -63.80301203 68.77768766 -61.25 66.625 C-45.01892661 52.47483345 -38.90252883 30.49393447 -37.390625 9.47265625 C-37.25479621 7.31545071 -37.12267172 5.15799371 -37 3 C-36.18321777 2.91435791 -35.36643555 2.82871582 -34.52490234 2.74047852 C-30.80806864 2.34969116 -27.09153442 1.9561231 -23.375 1.5625 C-22.08980469 1.42779297 -20.80460937 1.29308594 -19.48046875 1.15429688 C-17.61455078 0.95610352 -17.61455078 0.95610352 -15.7109375 0.75390625 C-14.56931152 0.63345947 -13.42768555 0.5130127 -12.25146484 0.38891602 C-10.08032708 0.12922068 -7.91678991 -0.20431905 -5.76806641 -0.60961914 C-3 -1 -3 -1 0 0 Z " fill="#624A0E" transform="translate(263,116)"/>
<path d="M0 0 C0.495 0.99 0.495 0.99 1 2 C0.4740625 2.8971875 0.4740625 2.8971875 -0.0625 3.8125 C-1.30973248 6.06410301 -1.30973248 6.06410301 -0.125 8.75 C0.24625 9.4925 0.6175 10.235 1 11 C2.65 11 4.3 11 6 11 C6 10.34 6 9.68 6 9 C7.65 9 9.3 9 11 9 C1.0412977 17.17687567 -11.41429202 18.63816932 -23.8125 19.5625 C-25.68228516 19.70860718 -25.68228516 19.70860718 -27.58984375 19.85766602 C-36.52561879 20.38239731 -36.52561879 20.38239731 -38.8659668 18.49584961 C-39.24019775 18.00221924 -39.61442871 17.50858887 -40 17 C-39.34 14.69 -38.68 12.38 -38 10 C-37.41476563 10.06960937 -36.82953125 10.13921875 -36.2265625 10.2109375 C-23.67953749 11.00219133 -11.12340507 5.35571355 0 0 Z " fill="#E2AC3B" transform="translate(266,97)"/>
<path d="M0 0 C0.99 0.495 0.99 0.495 2 1 C-5.53553863 6.39293453 -12.25269011 8.26027828 -21.375 9.375 C-23.08816406 9.62056641 -23.08816406 9.62056641 -24.8359375 9.87109375 C-32.25908787 10.87490613 -39.51453071 11.19927188 -47 11 C-46.9225354 12.28825684 -46.9225354 12.28825684 -46.84350586 13.60253906 C-45.96652352 30.94455605 -51.23796088 53.79692086 -62.4765625 67.4140625 C-64.82520182 69.85905625 -67.30315452 71.94526059 -70 74 C-70 73.01 -70 72.02 -70 71 C-68.5390625 69.640625 -68.5390625 69.640625 -66.625 68.25 C-62.72829766 65.1216615 -62.03462605 62.79690261 -61 58 C-60.01 57.505 -60.01 57.505 -59 57 C-58.43053253 53.67810642 -58.1036898 50.35597238 -57.7578125 47.00390625 C-57 44 -57 44 -54.9296875 42.58984375 C-53.97449219 42.29787109 -53.97449219 42.29787109 -53 42 C-52.85024761 34.94348748 -52.85024761 34.94348748 -54 28 C-54.66 28 -55.32 28 -56 28 C-56 22.39 -56 16.78 -56 11 C-49.67129104 9.19179744 -44.45754922 7.92716307 -37.94921875 7.67578125 C-25.42121804 7.07109457 -14.1944517 6.44548575 -2.7109375 1.14453125 C-1.36902344 0.57798828 -1.36902344 0.57798828 0 0 Z " fill="#C6962D" transform="translate(273,108)"/>
<path d="M0 0 C0.33 0 0.66 0 1 0 C1 4.95 1 9.9 1 15 C1.66 15 2.32 15 3 15 C3 15.99 3 16.98 3 18 C2.34 18 1.68 18 1 18 C1.18433594 19.27746094 1.36867187 20.55492188 1.55859375 21.87109375 C2.13501872 27.05891849 1.7070565 31.90204457 1.0625 37.0625 C0.96259766 37.92810547 0.86269531 38.79371094 0.75976562 39.68554688 C0.51543786 41.79141955 0.25900134 43.89588164 0 46 C-0.33 46 -0.66 46 -1 46 C-1.02735618 44.29175867 -1.04655506 42.58338595 -1.0625 40.875 C-1.07410156 39.92367187 -1.08570313 38.97234375 -1.09765625 37.9921875 C-0.99720599 34.91439143 -0.56963767 32.02311643 0 29 C-16.48107449 29.43314256 -33.25668306 31.70478726 -46 43 C-47.64821244 44.03013277 -49.31503702 45.03114628 -51 46 C-53.00580329 47.32458708 -55.00715862 48.6559907 -57 50 C-54.48316211 42.44948634 -42.95632135 35.71244093 -36 32 C-33.42131489 31.08373557 -30.85151565 30.3388131 -28.203125 29.65234375 C-25.84457584 29.06760894 -25.84457584 29.06760894 -23.5 27.375 C-20.17291101 25.54510106 -17.17819882 25.58123216 -13.43359375 25.30859375 C-10.18158358 24.89622007 -7.79804496 23.66550295 -5 22 C-3.66666667 21.33333333 -2.33333333 20.66666667 -1 20 C-3.23609789 17.42848743 -4.65904997 16.57813445 -8 16 C-21.64810446 15.33778428 -33.22824985 19.35170674 -45.81787109 24.28149414 C-48 25 -48 25 -51 25 C-46.80473961 22.23887578 -42.52394479 20.571127 -37.8125 18.9375 C-36.68074341 18.54171753 -36.68074341 18.54171753 -35.52612305 18.13793945 C-30.07907115 16.27473571 -24.70048432 14.8494438 -19 14 C-17.59427734 13.73316406 -17.59427734 13.73316406 -16.16015625 13.4609375 C-10.78005835 12.67620134 -5.42996638 12.94459218 0 13 C0 8.71 0 4.42 0 0 Z " fill="#B18835" transform="translate(211,91)"/>
<path d="M0 0 C0.495 1.98 0.495 1.98 1 4 C-4.48000939 7.91429242 -9.25331574 9.69901024 -15.8125 10.875 C-20.32407906 11.71452228 -24.1024121 13.2285404 -28.1875 15.29296875 C-28.785625 15.52628906 -29.38375 15.75960937 -30 16 C-30.66 15.67 -31.32 15.34 -32 15 C-31.67 14.01 -31.34 13.02 -31 12 C-31.66 11.34 -32.32 10.68 -33 10 C-31.33333333 8.33333333 -29.66666667 6.66666667 -28 5 C-27.29101562 4.13503906 -26.58203125 3.27007812 -25.8515625 2.37890625 C-22.06124498 -0.78315316 -19.35743448 -0.80834583 -14.5625 -0.875 C-13.82451172 -0.90851563 -13.08652344 -0.94203125 -12.32617188 -0.9765625 C-8.0838151 -1.12740185 -4.17883426 -0.86093257 0 0 Z " fill="#E5A837" transform="translate(209,107)"/>
<path d="M0 0 C0.33 1.32 0.66 2.64 1 4 C0.45730469 4.42410156 -0.08539063 4.84820312 -0.64453125 5.28515625 C-5.40708273 9.18959035 -8.08230551 12.12706064 -10 18 C-8.35 16.68 -6.7 15.36 -5 14 C-3.65388715 18.03833855 -4.56461864 20.0356134 -6 24 C-7.28725907 25.70250393 -8.62131719 27.37064759 -10 29 C-11.04451438 30.97711651 -12.05698138 32.97250996 -13 35 C-13.66 34.34 -14.32 33.68 -15 33 C-18.89922792 43.79786192 -20.45890954 53.51026478 -20 65 C-19.01 65 -18.02 65 -17 65 C-17 65.66 -17 66.32 -17 67 C-18.98 67 -20.96 67 -23 67 C-23.71241294 48.16063551 -19.05226097 30.9992176 -11 14 C-13.475 15.485 -13.475 15.485 -16 17 C-14.38126609 13.16232748 -11.910136 10.44112895 -9.125 7.375 C-8.26132813 6.41335937 -7.39765625 5.45171875 -6.5078125 4.4609375 C-4.3364228 2.33013452 -2.78996467 1.10300929 0 0 Z " fill="#CF9B30" transform="translate(239,38)"/>
<path d="M0 0 C1.32 0 2.64 0 4 0 C3.04696059 2.48580785 2.06689226 4.87416307 0.81640625 7.2265625 C-3.21190671 14.9318091 -4.28797029 22.62638123 -5.421875 31.1328125 C-6 35 -6 35 -7 36 C-7.23481693 38.18292774 -7.41363323 40.37203174 -7.5625 42.5625 C-7.64628906 43.76003906 -7.73007813 44.95757812 -7.81640625 46.19140625 C-7.90728516 47.58166016 -7.90728516 47.58166016 -8 49 C-9.25554687 49.12117188 -10.51109375 49.24234375 -11.8046875 49.3671875 C-24.68634925 50.63964119 -36.14953237 52.45234721 -48.28955078 57.05566406 C-50.17394904 57.75733361 -52.08557829 58.38495004 -54 59 C-54.66 58.67 -55.32 58.34 -56 58 C-49.7361263 55.42383482 -43.45353615 53.05764921 -37 51 C-37 50.34 -37 49.68 -37 49 C-24.625 47.02 -24.625 47.02 -12 45 C-11.05329654 39.12192522 -11.05329654 39.12192522 -10.11547852 33.24243164 C-9.99615967 32.51403076 -9.87684082 31.78562988 -9.75390625 31.03515625 C-9.57323608 29.91185913 -9.57323608 29.91185913 -9.38891602 28.76586914 C-9 27 -9 27 -8 26 C-7.84196224 24.41962235 -7.72348896 22.83520326 -7.625 21.25 C-7.24352195 16.96896855 -6.32704674 14.63019292 -4 11 C-3.40417516 8.67383454 -2.9445877 6.35266362 -2.52734375 3.98828125 C-2 2 -2 2 0 0 Z " fill="#5C4E23" transform="translate(219,55)"/>
<path d="M0 0 C1.24039732 3.54637085 0.73996328 5.81358397 -0.3125 9.375 C-0.59351563 10.33792969 -0.87453125 11.30085937 -1.1640625 12.29296875 C-2.06532095 15.21153 -2.98739402 18.1179676 -4 21 C-4.66 21 -5.32 21 -6 21 C-6.309375 22.093125 -6.61875 23.18625 -6.9375 24.3125 C-7.58337897 26.55407994 -8.2623117 28.7869351 -9 31 C-8.01 30.67 -7.02 30.34 -6 30 C-6.33 31.32 -6.66 32.64 -7 34 C-7.66 34 -8.32 34 -9 34 C-9.26683594 34.57492188 -9.53367188 35.14984375 -9.80859375 35.7421875 C-12.22095351 40.31380699 -15.38583389 44.63282117 -20.0390625 47.06640625 C-26.51336496 48.93806823 -32.80534021 47.28071718 -39 45 C-39.66 44.34 -40.32 43.68 -41 43 C-40.18917969 43.08121094 -39.37835938 43.16242188 -38.54296875 43.24609375 C-30.82076758 43.68659184 -25.73585799 42.79526289 -19.3828125 38.28515625 C-15.99963832 35.04063675 -14.06443181 31.49048353 -12.12109375 27.2578125 C-11 25 -11 25 -9 24 C-8.855625 23.38125 -8.71125 22.7625 -8.5625 22.125 C-8 20 -8 20 -6.5625 18.625 C-3.56255411 15.50505627 -3.07519101 11.54513485 -2.5 7.375 C-2.05940269 4.40096816 -1.52461833 2.54103055 0 0 Z " fill="#C8A35F" transform="translate(209,138)"/>
<path d="M0 0 C2.49184289 2.68574457 4.70754019 5.44149982 6.859375 8.40625 C9.06121207 11.07416937 11.04781555 12.27870973 14 14 C17.21410035 19.8925173 17.21410035 19.8925173 16.5703125 23.22265625 C16.38210938 23.80917969 16.19390625 24.39570312 16 25 C15.72027344 24.43152344 15.44054687 23.86304687 15.15234375 23.27734375 C10.26628523 13.8665751 4.25367538 8.82887771 -4.83984375 3.48046875 C-5.55269531 2.99191406 -6.26554687 2.50335937 -7 2 C-7 1.34 -7 0.68 -7 0 C-14.59 -0.33 -22.18 -0.66 -30 -1 C-30 -0.34 -30 0.32 -30 1 C-30.58265625 1.16113281 -31.1653125 1.32226562 -31.765625 1.48828125 C-43.2376987 5.29426797 -51.53784739 14.82996035 -59 24 C-60 22 -60 22 -59.6875 19.9375 C-59 18 -59 18 -57 17 C-56.27840576 15.35636866 -55.60648579 13.68949614 -55 12 C-53.68 12 -52.36 12 -51 12 C-49.39416259 10.58526304 -49.39416259 10.58526304 -48.0625 8.6875 C-45.64599016 5.65309777 -43.46519169 3.82885117 -40 2 C-39.34 1.34 -38.68 0.68 -38 0 C-27.96069433 -3.84634207 -9.4069631 -6.57376359 0 0 Z " fill="#433202" transform="translate(283,29)"/>
<path d="M0 0 C-0.58547001 4.12805975 -2.82498218 6.74302086 -5.3125 10 C-6.09238281 11.03125 -6.87226563 12.0625 -7.67578125 13.125 C-9.67755355 15.60114187 -11.61905352 17.8881157 -14 20 C-14.66 20 -15.32 20 -16 20 C-16 20.66 -16 21.32 -16 22 C-16.99 22 -17.98 22 -19 22 C-19.13277344 23.05960938 -19.26554688 24.11921875 -19.40234375 25.2109375 C-19.58053875 26.59898279 -19.7589346 27.98700231 -19.9375 29.375 C-20.02451172 30.07367188 -20.11152344 30.77234375 -20.20117188 31.4921875 C-20.88671875 36.7734375 -20.88671875 36.7734375 -22 39 C-22.66 39 -23.32 39 -24 39 C-24.9504111 26.82945787 -20.74121777 17.59444026 -13 8.375 C-12.00528534 7.24532405 -11.00572328 6.11988646 -10 5 C-9.29875 4.21625 -8.5975 3.4325 -7.875 2.625 C-5.31854323 0.40940413 -3.31833432 0 0 0 Z " fill="#F9E8B3" transform="translate(160,119)"/>
<path d="M0 0 C0.66 0.33 1.32 0.66 2 1 C2 5.76704861 0.60408373 9.02793941 -1.5625 13.25 C-2.01753906 14.14203125 -2.47257812 15.0340625 -2.94140625 15.953125 C-3.29074219 16.62859375 -3.64007813 17.3040625 -4 18 C-3.21625 17.484375 -2.4325 16.96875 -1.625 16.4375 C-0.75875 15.963125 0.1075 15.48875 1 15 C1.66 15.33 2.32 15.66 3 16 C1.9375 17.5 1.9375 17.5 0 19 C-3.6875 19.1875 -3.6875 19.1875 -7 19 C-7 19.66 -7 20.32 -7 21 C-8.65 21 -10.3 21 -12 21 C-12.99 19.02 -13.98 17.04 -15 15 C-12.19418261 10.25169365 -9.73208661 7.99376908 -5 5 C-3.29671681 3.3707726 -1.61838719 1.71358643 0 0 Z " fill="#F3CF77" transform="translate(279,87)"/>
<path d="M0 0 C2.85392219 0.63420493 4.5568108 1.32501118 6.1875 3.80859375 C8.35885134 8.15927933 10.13470108 12.08475633 10.09765625 17.01171875 C10.09443359 17.76904297 10.09121094 18.52636719 10.08789062 19.30664062 C10.07951172 20.09232422 10.07113281 20.87800781 10.0625 21.6875 C10.05798828 22.48478516 10.05347656 23.28207031 10.04882812 24.10351562 C10.0370585 26.06904257 10.01912348 28.03453085 10 30 C9.67 30 9.34 30 9 30 C8.95101563 28.90300781 8.90203125 27.80601563 8.8515625 26.67578125 C8.77649409 25.22133075 8.70094803 23.76690484 8.625 22.3125 C8.5940625 21.59126953 8.563125 20.87003906 8.53125 20.12695312 C8.30664413 16.02789606 7.82259091 12.75631541 6 9 C4.88625 9.495 3.7725 9.99 2.625 10.5 C-1 12 -1 12 -3 12 C-2.97679687 13.04800781 -2.95359375 14.09601562 -2.9296875 15.17578125 C-2.91092697 16.55468037 -2.89272707 17.9335872 -2.875 19.3125 C-2.84986328 20.34793945 -2.84986328 20.34793945 -2.82421875 21.40429688 C-2.78782206 25.17135396 -2.85621136 26.78431704 -5 30 C-4.97679687 29.41734375 -4.95359375 28.8346875 -4.9296875 28.234375 C-4.77889938 21.38428611 -5.29348312 14.65752264 -7 8 C-7.66 7.34 -8.32 6.68 -9 6 C-8.67 5.01 -8.34 4.02 -8 3 C-7.01 3.33 -6.02 3.66 -5 4 C-2.37156116 2.99500868 -1.27596315 2.55192629 0 0 Z " fill="#DCBE78" transform="translate(292,46)"/>
<path d="M0 0 C0 3 0 3 -1.48046875 5.59765625 C-3.45653678 10.02221988 -3.40596213 13.65597747 -3.3125 18.4375 C-3.31572266 19.25798828 -3.31894531 20.07847656 -3.32226562 20.92382812 C-3.23227986 31.17402436 0.0713965 39.77568029 7.1484375 47.27734375 C11.47223296 51.23959317 15.83154125 54.26375713 21 57 C22.35387289 57.97201131 23.69855198 58.95884159 25 60 C19.40476846 59.10076636 14.95878943 56.63102712 10 54 C9.071875 53.525625 8.14375 53.05125 7.1875 52.5625 C1.80602741 48.71859101 -0.69452064 44.07808196 -3 38 C-3.51175781 36.84371094 -4.02351562 35.68742187 -4.55078125 34.49609375 C-6.52246876 29.20738931 -6.55167109 24.02882785 -6.5625 18.4375 C-6.59923828 17.43525391 -6.63597656 16.43300781 -6.67382812 15.40039062 C-6.70487892 10.1597069 -6.44467572 6.8567337 -2.96484375 2.78515625 C-2.0014118 1.83100836 -1.02123227 0.89201119 0 0 Z " fill="#5B470C" transform="translate(139,134)"/>
<path d="M0 0 C-2.29492188 1.85546875 -2.29492188 1.85546875 -4.58984375 3.7109375 C-6.13266437 4.9666391 -6.13266437 4.9666391 -7 7 C-6.34 7.66 -5.68 8.32 -5 9 C-7.35017423 14.66452251 -12.46124271 16.89619248 -17.875 19.25 C-18.57625 19.4975 -19.2775 19.745 -20 20 C-20.66 20.33 -21.32 20.66 -22 21 C-22.1875 18.6875 -22.1875 18.6875 -22 16 C-20.6875 14.5 -20.6875 14.5 -19 13 C-17.50630426 10.66983465 -16.17935608 8.43557904 -15.125 5.875 C-12.24372849 1.07288082 -5.2014824 -1.73382747 0 0 Z " fill="#FAD477" transform="translate(184,110)"/>
<path d="M0 0 C0.495 0.99 0.495 0.99 1 2 C-0.28062485 3.7074998 -1.61767557 5.37373596 -3 7 C-3.66 7 -4.32 7 -5 7 C-5.24363281 7.59683594 -5.48726563 8.19367188 -5.73828125 8.80859375 C-9.47369545 15.29641841 -18.99924956 18.9163494 -25.85546875 20.7734375 C-27.87926672 21.28127252 -29.90646029 21.77585568 -31.9375 22.25390625 C-35.07000111 22.97801752 -35.07000111 22.97801752 -38.3515625 24.078125 C-42.48696363 25.12304434 -46.13856313 25.26161814 -50.375 25.1875 C-51.09816406 25.18685547 -51.82132813 25.18621094 -52.56640625 25.18554688 C-57.85913848 25.14086152 -57.85913848 25.14086152 -59 24 C-59.37394574 18.25883309 -58.98357297 12.65554456 -58 7 C-57.67 7 -57.34 7 -57 7 C-57 12.28 -57 17.56 -57 23 C-48.43282598 22.71756569 -40.52326133 21.67170638 -32.1875 19.75 C-31.31714111 19.55768799 -30.44678223 19.36537598 -29.55004883 19.16723633 C-23.59611605 17.72980705 -17.93656056 15.72799572 -13 12 C-12.67 11.01 -12.34 10.02 -12 9 C-11.01 9 -10.02 9 -9 9 C-9 8.34 -9 7.68 -9 7 C-8.01 6.67 -7.02 6.34 -6 6 C-5.34 5.01 -4.68 4.02 -4 3 C-3.34 3 -2.68 3 -2 3 C-2 2.34 -2 1.68 -2 1 C-1.34 0.67 -0.68 0.34 0 0 Z " fill="#6C4F0C" transform="translate(284,80)"/>
<path d="M0 0 C0.33 0 0.66 0 1 0 C1.05449228 2.83359844 1.09390733 5.66612485 1.125 8.5 C1.14175781 9.29148438 1.15851563 10.08296875 1.17578125 10.8984375 C1.21989226 16.27998079 0.50594058 20.82999927 -1 26 C-1.66 26 -2.32 26 -3 26 C-3.10957031 26.56847656 -3.21914062 27.13695312 -3.33203125 27.72265625 C-4.53980516 33.60441699 -6.31166969 38.62333938 -9 44 C-9.66 44 -10.32 44 -11 44 C-11.33 44.99 -11.66 45.98 -12 47 C-12.66 47 -13.32 47 -14 47 C-13.21302675 43.58978257 -12.12880057 40.31114834 -11 37 C-10.34 37 -9.68 37 -9 37 C-8.87753906 36.18273437 -8.75507813 35.36546875 -8.62890625 34.5234375 C-7.91104013 30.50160372 -6.94971592 26.58086856 -5.9375 22.625 C-5.75123047 21.88894531 -5.56496094 21.15289062 -5.37304688 20.39453125 C-4.91752543 18.59580556 -4.4590645 16.79782471 -4 15 C-3.34 15 -2.68 15 -2 15 C-1.93941406 14.08476562 -1.87882813 13.16953125 -1.81640625 12.2265625 C-1.73261719 11.03804687 -1.64882812 9.84953125 -1.5625 8.625 C-1.48128906 7.44164062 -1.40007812 6.25828125 -1.31640625 5.0390625 C-1 2 -1 2 0 0 Z " fill="#EEDCC0" transform="translate(214,122)"/>
<path d="M0 0 C0.5775 0.185625 1.155 0.37125 1.75 0.5625 C4.29039608 1.05646591 5.51383596 0.62154101 8 0 C15.51734617 -0.71204676 20.52843655 0.09264094 27 4 C27 4.66 27 5.32 27 6 C26.14019531 5.67644531 25.28039062 5.35289063 24.39453125 5.01953125 C16.09434688 2.52661051 6.79869029 3.1742274 -1 7 C-7.91269361 11.60846241 -10.8924385 17.57770888 -14 25 C-14.74620438 26.68918184 -15.49606103 28.37675617 -16.25 30.0625 C-16.58515625 30.81660156 -16.9203125 31.57070312 -17.265625 32.34765625 C-17.50796875 32.89292969 -17.7503125 33.43820313 -18 34 C-19.77842668 30.44314664 -18.0840889 26.67058361 -17 23 C-14.12861415 15.31904284 -8.84213648 8.55675073 -2 4 C-1.34 4 -0.68 4 0 4 C0 2.68 0 1.36 0 0 Z " fill="#956F20" transform="translate(248,40)"/>
<path d="M0 0 C-6.23030861 2.61789963 -12.06120406 3.79713215 -18.75 4.625 C-20.59918897 4.86542014 -22.44815763 5.10754242 -24.296875 5.3515625 C-25.10479492 5.45291504 -25.91271484 5.55426758 -26.74511719 5.65869141 C-28.87859991 5.98162437 -30.91776437 6.43921473 -33 7 C-33.08040527 7.55872803 -33.16081055 8.11745605 -33.24365234 8.69311523 C-33.6172656 11.2750973 -33.99610645 13.85628772 -34.375 16.4375 C-34.50132812 17.31599609 -34.62765625 18.19449219 -34.7578125 19.09960938 C-36.67762532 32.10634121 -36.67762532 32.10634121 -38 36 C-38.99 36.495 -38.99 36.495 -40 37 C-39.85769192 35.58297487 -39.71099254 34.1663904 -39.5625 32.75 C-39.48128906 31.96109375 -39.40007812 31.1721875 -39.31640625 30.359375 C-39 28 -39 28 -38.5 26.1640625 C-37.94211851 23.74948166 -37.78925648 21.49115178 -37.68359375 19.015625 C-37.64169922 18.08105469 -37.59980469 17.14648438 -37.55664062 16.18359375 C-37.49766602 14.73146484 -37.49766602 14.73146484 -37.4375 13.25 C-37.39431641 12.26644531 -37.35113281 11.28289062 -37.30664062 10.26953125 C-37.20077948 7.84648725 -37.09869829 5.4233446 -37 3 C-36.18321777 2.91435791 -35.36643555 2.82871582 -34.52490234 2.74047852 C-30.80806864 2.34969116 -27.09153442 1.9561231 -23.375 1.5625 C-22.08980469 1.42779297 -20.80460937 1.29308594 -19.48046875 1.15429688 C-17.61455078 0.95610352 -17.61455078 0.95610352 -15.7109375 0.75390625 C-14.56931152 0.63345947 -13.42768555 0.5130127 -12.25146484 0.38891602 C-10.08032708 0.12922068 -7.91678991 -0.20431905 -5.76806641 -0.60961914 C-3 -1 -3 -1 0 0 Z " fill="#4F3B07" transform="translate(263,116)"/>
<path d="M0 0 C0.66 0.33 1.32 0.66 2 1 C-5.53553863 6.39293453 -12.25269011 8.26027828 -21.375 9.375 C-23.08816406 9.62056641 -23.08816406 9.62056641 -24.8359375 9.87109375 C-32.25908787 10.87490613 -39.51453071 11.19927188 -47 11 C-46.97679687 11.92941406 -46.95359375 12.85882813 -46.9296875 13.81640625 C-46.75043937 26.09490334 -46.75043937 26.09490334 -49 32 C-49.33 32 -49.66 32 -50 32 C-49.67 24.41 -49.34 16.82 -49 9 C-45.12671838 8.22534368 -41.84947134 7.82642704 -37.94921875 7.67578125 C-25.42121804 7.07109457 -14.1944517 6.44548575 -2.7109375 1.14453125 C-1.36902344 0.57798828 -1.36902344 0.57798828 0 0 Z " fill="#A88126" transform="translate(273,108)"/>
<path d="M0 0 C0.10655578 6.44070471 -0.03794912 12.62641289 -1 19 C-1.33 19 -1.66 19 -2 19 C-2.02735618 17.29175867 -2.04655506 15.58338595 -2.0625 13.875 C-2.07410156 12.92367187 -2.08570313 11.97234375 -2.09765625 10.9921875 C-1.99720599 7.91439143 -1.56963767 5.02311643 -1 2 C-17.48107449 2.43314256 -34.25668306 4.70478726 -47 16 C-48.64821244 17.03013277 -50.31503702 18.03114628 -52 19 C-54.00580329 20.32458708 -56.00715862 21.6559907 -58 23 C-56.16127493 17.48382478 -50.48497286 14.46458221 -46 11 C-45.27296875 10.4121875 -44.5459375 9.824375 -43.796875 9.21875 C-31.51759968 0.03272724 -14.74051132 -0.29481023 0 0 Z " fill="#72571A" transform="translate(212,118)"/>
<path d="M0 0 C1.98046875 1.4921875 1.98046875 1.4921875 4 4 C4.323629 6.85624862 4.42690888 9.28710163 4.3125 12.125 C4.28820923 13.25917358 4.28820923 13.25917358 4.26342773 14.41625977 C3.87141571 29.25716859 3.87141571 29.25716859 2 33 C1.34 33 0.68 33 0 33 C-0.020625 33.5775 -0.04125 34.155 -0.0625 34.75 C-1.32705592 37.7849342 -3.34964343 38.46623394 -6.16796875 39.94140625 C-8.91774535 41.53029636 -10.84847692 43.68297514 -13 46 C-14.10023028 47.10808907 -15.20445683 48.21222349 -16.3125 49.3125 C-17.199375 50.199375 -18.08625 51.08625 -19 52 C-19.66 51.67 -20.32 51.34 -21 51 C-9 39 -9 39 -6.5 36.9375 C1.58305026 27.43991594 1.85434944 16.82663723 1 5 C0.70822467 3.32555799 0.39469968 1.65320932 0 0 Z " fill="#716544" transform="translate(300,54)"/>
<path d="M0 0 C0.66 0.33 1.32 0.66 2 1 C2.59355614 3.64860427 2.74209269 6.29197322 3 9 C-0.58340788 11.45719398 -2.69125204 12.17379824 -7 12 C-6.97643433 13.24088379 -6.97643433 13.24088379 -6.95239258 14.50683594 C-6.89003696 18.25448777 -6.85100654 22.00203045 -6.8125 25.75 C-6.78736328 27.05195313 -6.76222656 28.35390625 -6.73632812 29.6953125 C-6.72182617 31.57089844 -6.72182617 31.57089844 -6.70703125 33.484375 C-6.68346558 35.21252441 -6.68346558 35.21252441 -6.65942383 36.97558594 C-7.0358414 40.31828189 -7.80043016 41.53405706 -10 44 C-11.0998484 46.32886049 -12.06335248 48.68959182 -13.03515625 51.07421875 C-14 53 -14 53 -16 54 C-15.45144652 49.428721 -14.58255197 45.32564205 -13 41 C-12.34 41 -11.68 41 -11 41 C-10.855625 39.7625 -10.71125 38.525 -10.5625 37.25 C-10.31825277 35.15645228 -10.04658912 33.17361726 -9.5 31.13671875 C-8.98700321 28.94445904 -8.79593411 26.91868222 -8.68359375 24.671875 C-8.64169922 23.87265625 -8.59980469 23.0734375 -8.55664062 22.25 C-8.51732422 21.425 -8.47800781 20.6 -8.4375 19.75 C-8.37272461 18.48929688 -8.37272461 18.48929688 -8.30664062 17.203125 C-8.20091457 15.13559329 -8.09998705 13.06781719 -8 11 C-5.69 10.34 -3.38 9.68 -1 9 C-0.67 6.03 -0.34 3.06 0 0 Z " fill="#CAA354" transform="translate(224,107)"/>
<path d="M0 0 C0.5625 1.9375 0.5625 1.9375 1 4 C0.67 4.33 0.34 4.66 0 5 C-1.46679842 13.29758232 -2.35708 21.56894444 -2 30 C7.83299958 30.45972466 15.89815158 29.9592813 25.3046875 26.77734375 C28 26 28 26 30 27 C20.08419898 31.23733796 10.88673974 34.53541343 0 34 C-0.33 35.98 -0.66 37.96 -1 40 C-1.33 40 -1.66 40 -2 40 C-4.89348099 30.93375955 -5.24098398 23.07166796 -3.6875 13.6875 C-3.55666016 12.80771484 -3.42582031 11.92792969 -3.29101562 11.02148438 C-2.65092189 6.94900393 -1.9996083 3.64518928 0 0 Z " fill="#B08529" transform="translate(228,74)"/>
<path d="M0 0 C0.33 0 0.66 0 1 0 C1 4.95 1 9.9 1 15 C-0.670625 15.12375 -2.34125 15.2475 -4.0625 15.375 C-8.60733249 15.7865856 -12.63124511 16.64965758 -17 18 C-18.45692446 18.25808376 -19.91545866 18.50715194 -21.375 18.75 C-27.23943463 19.84844673 -32.72439427 21.943847 -38.28662109 24.05566406 C-40.17219826 24.75681625 -42.08469812 25.38466727 -44 26 C-44.66 25.67 -45.32 25.34 -46 25 C-39.7361263 22.42383482 -33.45353615 20.05764921 -27 18 C-27 17.34 -27 16.68 -27 16 C-14.625 14.02 -14.625 14.02 -2 12 C-1.34 8.04 -0.68 4.08 0 0 Z " fill="#412F03" transform="translate(209,88)"/>
<path d="M0 0 C0.66 0.33 1.32 0.66 2 1 C-1.45396734 6.33794952 -6.27199295 9.46173986 -12 12 C-18.29323967 13.32489256 -25.2614191 11.72932506 -31 9 C-33.12885519 7.12412536 -34.40894727 5.3865791 -36 3 C-31.25 3.75 -31.25 3.75 -29 6 C-22.83365977 8.70717376 -17.20601534 9.02529396 -10.82421875 6.984375 C-4.50638673 4.68468858 -4.50638673 4.68468858 0 0 Z " fill="#523C0A" transform="translate(193,170)"/>
<path d="M0 0 C-0.99 0 -1.98 0 -3 0 C-3.10441406 0.58007812 -3.20882812 1.16015625 -3.31640625 1.7578125 C-4.10376879 4.34036162 -5.22991656 5.79583972 -6.9375 7.875 C-8.95452287 10.44515444 -10.00672877 12.02144796 -11 15.1875 C-12.41116538 19.15640262 -14.64475904 20.52003929 -18 23 C-17.41734728 18.57676318 -15.73233789 15.4844136 -13.4375 11.6875 C-12.79683594 10.61886719 -12.15617188 9.55023438 -11.49609375 8.44921875 C-11.00238281 7.64097656 -10.50867188 6.83273438 -10 6 C-12.6666419 4.66667905 -14.16680303 5.32897967 -17 6 C-14.67566233 2.5134935 -13.47749494 2.13400623 -9.625 0.75 C-8.66851562 0.39421875 -7.71203125 0.0384375 -6.7265625 -0.328125 C-3.95935166 -1.0100165 -2.63263806 -0.9732027 0 0 Z " fill="#F9D688" transform="translate(173,114)"/>
<path d="M0 0 C0.83144531 0.00902344 1.66289062 0.01804687 2.51953125 0.02734375 C4.55481337 0.0507378 6.58994564 0.08660275 8.625 0.125 C8.625 0.455 8.625 0.785 8.625 1.125 C3.345 1.125 -1.935 1.125 -7.375 1.125 C-7.375 1.785 -7.375 2.445 -7.375 3.125 C-7.95765625 3.28613281 -8.5403125 3.44726562 -9.140625 3.61328125 C-20.6126987 7.41926797 -28.91284739 16.95496035 -36.375 26.125 C-37.375 24.125 -37.375 24.125 -37.0625 22.0625 C-36.375 20.125 -36.375 20.125 -34.375 19.125 C-33.65340576 17.48136866 -32.98148579 15.81449614 -32.375 14.125 C-31.055 14.125 -29.735 14.125 -28.375 14.125 C-26.76916259 12.71026304 -26.76916259 12.71026304 -25.4375 10.8125 C-23.02099016 7.77809777 -20.84019169 5.95385117 -17.375 4.125 C-16.715 3.465 -16.055 2.805 -15.375 2.125 C-10.21665747 -0.14467071 -5.51730936 -0.11439397 0 0 Z " fill="#73571A" transform="translate(260.375,26.875)"/>
<path d="M0 0 C0.66 0 1.32 0 2 0 C-0.66666667 8 -3.33333333 16 -6 24 C-6.82638376 21.10765685 -7 19.11257569 -7 16 C-7.99 18.31 -8.98 20.62 -10 23 C-10.98038151 20.3937684 -11.05677693 19.18191216 -10.21484375 16.484375 C-7.45699033 10.58071324 -4.60410725 4.7121215 0 0 Z " fill="#D6C296" transform="translate(226,52)"/>
<path d="M0 0 C0.33 0 0.66 0 1 0 C1.05459773 1.56210161 1.09306101 3.12477089 1.125 4.6875 C1.14820313 5.55761719 1.17140625 6.42773438 1.1953125 7.32421875 C1 10 1 10 0.0625 12.28125 C-1.4137807 16.05879179 -1.71440576 19.79742684 -2.125 23.8125 C-2.21136719 24.60076172 -2.29773438 25.38902344 -2.38671875 26.20117188 C-2.59751064 28.13343084 -2.79962896 30.06663263 -3 32 C2.28 31.67 7.56 31.34 13 31 C9.2632157 33.49118953 7.25548181 33.2065226 2.8125 33.125 C1.54019531 33.10695312 0.26789063 33.08890625 -1.04296875 33.0703125 C-2.01878906 33.04710937 -2.99460938 33.02390625 -4 33 C-4.11745244 29.18776488 -4.18766603 25.37600318 -4.25 21.5625 C-4.28351563 20.49322266 -4.31703125 19.42394531 -4.3515625 18.32226562 C-4.4376544 11.28425312 -3.48728748 6.14796595 0 0 Z " fill="#3A2B02" transform="translate(231,70)"/>
<path d="M0 0 C0 3 0 3 -1.75 5.5 C-6.82352341 12.79431836 -8.6207056 21.25726412 -9 30 C-8.34 30 -7.68 30 -7 30 C-6.95101562 29.27554688 -6.90203125 28.55109375 -6.8515625 27.8046875 C-6.44793848 22.58541133 -5.98724193 17.90186342 -4 13 C-3.67 13 -3.34 13 -3 13 C-2.90234375 19.15234375 -2.90234375 19.15234375 -3 21 C-3.33 21.33 -3.66 21.66 -4 22 C-4.39454223 23.84599688 -4.74176866 25.70225822 -5.0625 27.5625 C-5.23910156 28.57441406 -5.41570312 29.58632812 -5.59765625 30.62890625 C-5.73042969 31.41136719 -5.86320313 32.19382813 -6 33 C-7.98 33.495 -7.98 33.495 -10 34 C-11.17675545 12.97094431 -11.17675545 12.97094431 -4 4 C-2.69125425 2.64252436 -1.36410693 1.30183249 0 0 Z " fill="#D2C9A7" transform="translate(145,128)"/>
<path d="M0 0 C0.33 1.32 0.66 2.64 1 4 C0.45730469 4.43570313 -0.08539063 4.87140625 -0.64453125 5.3203125 C-6.0064451 9.78374349 -8.84839552 13.401236 -11 20.125 C-11.97664656 22.93285886 -13.09367708 24.74707291 -15 27 C-14.27991594 22.39146203 -12.68704061 18.32762591 -11 14 C-13.475 15.485 -13.475 15.485 -16 17 C-14.38126609 13.16232748 -11.910136 10.44112895 -9.125 7.375 C-8.26132813 6.41335937 -7.39765625 5.45171875 -6.5078125 4.4609375 C-4.3364228 2.33013452 -2.78996467 1.10300929 0 0 Z " fill="#D8B36C" transform="translate(239,38)"/>
<path d="M0 0 C0.99 0.33 1.98 0.66 3 1 C1.47005208 2.20442708 -0.05989583 3.40885417 -1.58984375 4.61328125 C-3.27155077 6.05683091 -3.27155077 6.05683091 -4 9 C-12.12455915 14.15215946 -22.70171955 13.626365 -32 13 C-35.03877017 12.30875834 -37.19704437 11.42895777 -40 10 C-40.33 9.34 -40.66 8.68 -41 8 C-40.27296875 8.22816406 -39.5459375 8.45632812 -38.796875 8.69140625 C-28.33148618 11.68343408 -18.20940168 11.95354286 -8.45703125 6.60546875 C-3.46973893 4.07381881 -3.46973893 4.07381881 0 0 Z " fill="#AB822A" transform="translate(200,182)"/>
<path d="M0 0 C0.33 0 0.66 0 1 0 C1.19694509 4.72668206 0.7001344 8.49677974 -0.5703125 13.0390625 C-1.13286615 15.21549221 -1.13286615 15.21549221 -0.875 18.375 C-1.1418316 26.11311653 -5.4921619 33.23488367 -9 40 C-10.30877062 37.38245876 -9.82531567 36.15856918 -9.25 33.3125 C-9.09015625 32.48363281 -8.9303125 31.65476563 -8.765625 30.80078125 C-8 28 -8 28 -6.58984375 24.8515625 C-4.48138466 20.10526725 -3.45465457 15.1107542 -2.3125 10.0625 C-1.97508789 8.6074707 -1.97508789 8.6074707 -1.63085938 7.12304688 C-1.08142797 4.74997081 -0.53797158 2.37569528 0 0 Z " fill="#5C450C" transform="translate(225,133)"/>
<path d="M0 0 C1.28929966 3.63426749 0.69067096 6.07963042 -0.3125 9.75 C-0.59351563 10.81992188 -0.87453125 11.88984375 -1.1640625 12.9921875 C-1.63629131 14.69132853 -2.12133233 16.38738635 -2.6484375 18.0703125 C-4.59755063 24.59560427 -4.17067572 31.24882694 -4 38 C-3.01 38 -2.02 38 -1 38 C-1 38.66 -1 39.32 -1 40 C-2.98 40 -4.96 40 -7 40 C-7.53915284 25.74240256 -5.35291921 13.31436757 0 0 Z " fill="#CCA14F" transform="translate(223,65)"/>
<path d="M0 0 C0.66 0 1.32 0 2 0 C3.4606285 2.64738916 4 3.89448334 4 7 C3.03960815 7.08302368 3.03960815 7.08302368 2.05981445 7.16772461 C-0.8562154 7.42144165 -3.77185234 7.67942949 -6.6875 7.9375 C-8.19860352 8.06801758 -8.19860352 8.06801758 -9.74023438 8.20117188 C-10.71669922 8.28818359 -11.69316406 8.37519531 -12.69921875 8.46484375 C-13.59471436 8.543396 -14.49020996 8.62194824 -15.4128418 8.70288086 C-17.98298823 8.9980463 -20.47186549 9.45612236 -23 10 C-20.62547006 7.1706088 -18.86207034 6.5152069 -15.25 5.9375 C-6.76597549 4.74908841 -6.76597549 4.74908841 0 0 Z " fill="#B78726" transform="translate(208,111)"/>
<path d="M0 0 C0.33 0 0.66 0 1 0 C0.59997498 4.88030523 -0.01605161 9.31209193 -1.4375 14 C-3.62251611 21.50831515 -4.22724642 29.24519051 -5 37 C-5.33 37 -5.66 37 -6 37 C-6.08825361 33.52099751 -6.14080635 30.04228883 -6.1875 26.5625 C-6.21263672 25.58861328 -6.23777344 24.61472656 -6.26367188 23.61132812 C-6.35344822 14.66361861 -4.23111816 7.85779086 0 0 Z " fill="#F2E3C7" transform="translate(219,67)"/>
<path d="M0 0 C2.5 0.25 2.5 0.25 4.5 2.25 C4.6875 5.8125 4.6875 5.8125 4.5 9.25 C3.5 10.25 3.5 10.25 0.5625 10.4375 C-2.5 10.25 -2.5 10.25 -4.5 8.25 C-4.75 5.25 -4.75 5.25 -4.5 2.25 C-2.5 0.25 -2.5 0.25 0 0 Z " fill="#F8EEDA" transform="translate(218.5,105.75)"/>
<path d="M0 0 C0.66 0 1.32 0 2 0 C2.66 2.64 3.32 5.28 4 8 C5.65 8 7.3 8 9 8 C9 8.33 9 8.66 9 9 C7.35 9 5.7 9 4 9 C4 14.94 4 20.88 4 27 C3.67 27 3.34 27 3 27 C2.67 23.04 2.34 19.08 2 15 C1.34 19.29 0.68 23.58 0 28 C-0.33 28 -0.66 28 -1 28 C-0.67 18.76 -0.34 9.52 0 0 Z " fill="#C9B180" transform="translate(212,109)"/>
<path d="M0 0 C-1.52994792 1.23697917 -3.05989583 2.47395833 -4.58984375 3.7109375 C-6.13266437 4.9666391 -6.13266437 4.9666391 -7 7 C-6.34 7.66 -5.68 8.32 -5 9 C-6.39935885 12.40364888 -7.87004732 13.90806188 -11 15.8125 C-11.70125 16.25207031 -12.4025 16.69164063 -13.125 17.14453125 C-13.74375 17.42683594 -14.3625 17.70914063 -15 18 C-15.66 17.67 -16.32 17.34 -17 17 C-16.67 15.35 -16.34 13.7 -16 12 C-15.40316406 11.9484375 -14.80632812 11.896875 -14.19140625 11.84375 C-10.95469956 10.59753138 -10.41842697 8.56453155 -8.9375 5.5 C-7.46484375 2.46875 -7.46484375 2.46875 -6 0 C-3 -1 -3 -1 0 0 Z " fill="#F5C04F" transform="translate(184,110)"/>
<path d="M0 0 C0.33 0.99 0.66 1.98 1 3 C-0.30208796 5.02048131 -1.63988391 7.01811655 -3 9 C-4.82099254 13.31287706 -5.36876056 17.42512672 -5.75390625 22.046875 C-6 24 -6 24 -7 26 C-7.66 26 -8.32 26 -9 26 C-9.63121657 17.91692111 -8.69458827 9.83541014 -3.62109375 3.1953125 C-2.25 1.8125 -2.25 1.8125 0 0 Z " fill="#FAF4E0" transform="translate(145,132)"/>
<path d="M0 0 C0.33 0.66 0.66 1.32 1 2 C-0.28062485 3.7074998 -1.61767557 5.37373596 -3 7 C-3.66 7 -4.32 7 -5 7 C-5.24621094 7.59683594 -5.49242187 8.19367188 -5.74609375 8.80859375 C-9.21943163 14.87881976 -16.95047983 17.65193759 -23.34765625 19.5546875 C-23.89292969 19.70164062 -24.43820312 19.84859375 -25 20 C-22.10864613 16.7915299 -18.77323404 15.20590456 -14.9609375 13.28125 C-12.68224117 12.08208366 -12.68224117 12.08208366 -12 9 C-11.01 9 -10.02 9 -9 9 C-9 8.34 -9 7.68 -9 7 C-8.01 6.67 -7.02 6.34 -6 6 C-5.34 5.01 -4.68 4.02 -4 3 C-3.34 3 -2.68 3 -2 3 C-2 2.34 -2 1.68 -2 1 C-1.34 0.67 -0.68 0.34 0 0 Z " fill="#A6883F" transform="translate(284,80)"/>
<path d="M0 0 C0.66 0.33 1.32 0.66 2 1 C1.360625 1.268125 0.72125 1.53625 0.0625 1.8125 C-2.33131686 2.88667752 -2.33131686 2.88667752 -3 6 C-1.35 6 0.3 6 2 6 C2 6.66 2 7.32 2 8 C-5.67657022 10.4309139 -11.43661772 9.78464621 -19 7 C-19.66 6.34 -20.32 5.68 -21 5 C-20.154375 5.05800781 -19.30875 5.11601562 -18.4375 5.17578125 C-11.53820253 5.45018513 -7.00518224 5.35527248 -1.48828125 0.99609375 C-0.99714844 0.66738281 -0.50601563 0.33867187 0 0 Z " fill="#A88236" transform="translate(189,176)"/>
<path d="M0 0 C-5.75 5 -5.75 5 -8 5 C-8.23460937 5.59296875 -8.46921875 6.1859375 -8.7109375 6.796875 C-10.29895425 9.51094 -11.97602884 10.58493241 -14.625 12.25 C-15.44226563 12.77078125 -16.25953125 13.2915625 -17.1015625 13.828125 C-18.04128906 14.40820312 -18.04128906 14.40820312 -19 15 C-17.57862665 8.45892263 -13.12743064 5.12000603 -8 1.234375 C-5.12119216 -0.54238921 -3.12666828 -1.56333414 0 0 Z " fill="#544C2E" transform="translate(162,115)"/>
<path d="M0 0 C0.68835938 0.00451172 1.37671875 0.00902344 2.0859375 0.01367188 C3.76566335 0.02533664 5.44534375 0.04326729 7.125 0.0625 C7.125 0.3925 7.125 0.7225 7.125 1.0625 C5.90683594 1.17207031 4.68867188 1.28164063 3.43359375 1.39453125 C1.80983712 1.55409115 0.1861423 1.71428093 -1.4375 1.875 C-2.23736328 1.94525391 -3.03722656 2.01550781 -3.86132812 2.08789062 C-10.55218073 2.77063069 -16.08932493 4.03754118 -20.875 9.0625 C-21.865 9.0625 -22.855 9.0625 -23.875 9.0625 C-24.08125 9.619375 -24.2875 10.17625 -24.5 10.75 C-26.42500774 13.98751302 -28.91350902 15.74481141 -31.875 18.0625 C-31.5625 16.125 -31.5625 16.125 -30.875 14.0625 C-29.885 13.7325 -28.895 13.4025 -27.875 13.0625 C-27.875 12.4025 -27.875 11.7425 -27.875 11.0625 C-27.215 11.0625 -26.555 11.0625 -25.875 11.0625 C-25.813125 10.44375 -25.75125 9.825 -25.6875 9.1875 C-24.875 7.0625 -24.875 7.0625 -22.6875 6.0625 C-21.759375 5.7325 -20.83125 5.4025 -19.875 5.0625 C-18.905625 4.381875 -17.93625 3.70125 -16.9375 3 C-11.65022663 -0.34500968 -6.10386354 -0.07688975 0 0 Z " fill="#312301" transform="translate(261.875,24.9375)"/>
<path d="M0 0 C0.33 0.66 0.66 1.32 1 2 C-0.64198879 3.69672175 -2.30786142 5.3535949 -4 7 C-4.71671875 7.70125 -5.4334375 8.4025 -6.171875 9.125 C-11.97218527 14.59280841 -17.8320326 18.52503481 -25 22 C-25.66 21.34 -26.32 20.68 -27 20 C-26.071875 19.566875 -25.14375 19.13375 -24.1875 18.6875 C-21.09956031 17.25273003 -21.09956031 17.25273003 -19.4375 15.4375 C-18 14 -18 14 -15.8125 13.25 C-9.58211156 10.48093847 -4.70277634 4.8497381 0 0 Z " fill="#4E4221" transform="translate(295,92)"/>
<path d="M0 0 C0.58984375 1.87109375 0.58984375 1.87109375 1 4 C0.525625 4.680625 0.05125 5.36125 -0.4375 6.0625 C-2.86170553 10.6200064 -2.76809237 14.9485817 -2 20 C-0.92523248 22.50393866 0.29785831 24.66573638 1.80859375 26.9296875 C3.15935899 29.2769189 3.59642609 31.33733992 4 34 C3.34 34 2.68 34 2 34 C-3.04163637 28.32815909 -4.38807403 24.30597093 -4.375 16.75 C-4.37628906 15.99017822 -4.37757813 15.23035645 -4.37890625 14.44750977 C-4.27010676 8.69535493 -3.2847566 4.82448626 0 0 Z " fill="#8E7231" transform="translate(153,141)"/>
<path d="M0 0 C0 3 0 3 -1.48828125 5.4453125 C-3.67578544 10.5890562 -3.32014636 15.35146945 -3.1875 20.875 C-3.17396484 21.94492188 -3.16042969 23.01484375 -3.14648438 24.1171875 C-3.11128624 26.74531511 -3.06204693 29.37239194 -3 32 C-3.33 31.34 -3.66 30.68 -4 30 C-4.66 30 -5.32 30 -6 30 C-6.17550193 26.31310953 -6.2812482 22.62730299 -6.375 18.9375 C-6.42527344 17.89916016 -6.47554687 16.86082031 -6.52734375 15.79101562 C-6.62956468 10.42441678 -6.56296922 6.93804742 -2.9765625 2.75390625 C-2.01076496 1.80821192 -1.02712045 0.87870714 0 0 Z " fill="#7E7453" transform="translate(139,134)"/>
<path d="M0 0 C0 1.98 0 3.96 0 6 C-2 3 -2 3 -2 1 C-10.35448145 1.99209467 -18.36924307 3.4366473 -26.4921875 5.59082031 C-30.3114945 6.60215722 -34.09217756 7.41503275 -38 8 C-37 6 -37 6 -35.21264648 5.22216797 C-32.62684231 4.41604197 -30.03945172 3.62769216 -27.4375 2.875 C-26.49688721 2.60220215 -25.55627441 2.3294043 -24.5871582 2.04833984 C-16.21401007 -0.22409839 -8.63593523 -0.65960467 0 0 Z " fill="#3E2D02" transform="translate(211,120)"/>
<path d="M0 0 C-6.23030861 2.61789963 -12.06120406 3.79713215 -18.75 4.625 C-20.59918897 4.86542014 -22.44815763 5.10754242 -24.296875 5.3515625 C-25.10479492 5.45291504 -25.91271484 5.55426758 -26.74511719 5.65869141 C-28.87859991 5.98162437 -30.91776437 6.43921473 -33 7 C-33.33 9.31 -33.66 11.62 -34 14 C-34.33 14 -34.66 14 -35 14 C-35.02689216 12.52093108 -35.04634621 11.04172517 -35.0625 9.5625 C-35.07410156 8.73878906 -35.08570313 7.91507813 -35.09765625 7.06640625 C-35 5 -35 5 -34 4 C-31.06225293 3.67058901 -28.13147118 3.38530374 -25.1875 3.125 C-18.32726394 2.4784755 -11.87406767 1.47361971 -5.25 -0.51171875 C-3 -1 -3 -1 0 0 Z " fill="#362B01" transform="translate(263,116)"/>
<path d="M0 0 C0.66 0.33 1.32 0.66 2 1 C0.96875 1.721875 -0.0625 2.44375 -1.125 3.1875 C-6.3788635 7.63143728 -8.40939615 13.79217529 -11 20 C-11.98046875 22.3359375 -11.98046875 22.3359375 -13 24 C-13.99 24.33 -14.98 24.66 -16 25 C-14.29663719 14.61318979 -8.34009142 6.19549648 0 0 Z " fill="#58440C" transform="translate(248,45)"/>
<path d="M0 0 C1.24039732 3.54637085 0.73996328 5.81358397 -0.3125 9.375 C-0.59351563 10.33792969 -0.87453125 11.30085937 -1.1640625 12.29296875 C-2.06532095 15.21153 -2.98739402 18.1179676 -4 21 C-4.66 21 -5.32 21 -6 21 C-6.226875 21.70125 -6.45375 22.4025 -6.6875 23.125 C-8.31656867 26.69343613 -10.40640731 29.06514511 -13 32 C-13 28.87099787 -12.57548683 27.62581138 -11 25 C-10.34 24.67 -9.68 24.34 -9 24 C-8.7834375 23.071875 -8.7834375 23.071875 -8.5625 22.125 C-8 20 -8 20 -6.5625 18.625 C-3.56255411 15.50505627 -3.07519101 11.54513485 -2.5 7.375 C-2.05940269 4.40096816 -1.52461833 2.54103055 0 0 Z " fill="#786941" transform="translate(209,138)"/>
<path d="M0 0 C0.33 0 0.66 0 1 0 C1 3.3 1 6.6 1 10 C0.01 10 -0.98 10 -2 10 C-2.06058594 10.62648437 -2.12117187 11.25296875 -2.18359375 11.8984375 C-2.26738281 12.71570313 -2.35117188 13.53296875 -2.4375 14.375 C-2.51871094 15.18710938 -2.59992188 15.99921875 -2.68359375 16.8359375 C-3 19 -3 19 -4 21 C-4.66 21 -5.32 21 -6 21 C-5.77002126 18.62153567 -5.51678509 16.24938734 -5.25 13.875 C-5.188125 13.20984375 -5.12625 12.5446875 -5.0625 11.859375 C-4.4661434 6.79034391 -3.0926654 3.90844721 0 0 Z " fill="#FAD987" transform="translate(146,150)"/>
<path d="M0 0 C-3.44615385 4.8 -3.44615385 4.8 -6.25 5.8125 C-7.11625 5.9053125 -7.11625 5.9053125 -8 6 C-8.103125 6.721875 -8.20625 7.44375 -8.3125 8.1875 C-9.06793947 11.27793421 -10.15531315 13.41743841 -12 16 C-12.66 16 -13.32 16 -14 16 C-13.67 15.21625 -13.34 14.4325 -13 13.625 C-11.88133489 11.15667503 -11.88133489 11.15667503 -12 9 C-12.66 8.67 -13.32 8.34 -14 8 C-10.98545834 3.88926137 -5.77470214 -2.88735107 0 0 Z " fill="#F5EAC7" transform="translate(156,125)"/>
<path d="M0 0 C5.28 0 10.56 0 16 0 C16 0.33 16 0.66 16 1 C15.175 1.07476562 14.35 1.14953125 13.5 1.2265625 C4.83088325 2.21344856 -2.46087575 4.39599235 -10.50390625 7.66015625 C-13.3858691 8.76464034 -15.96452671 9.52807421 -19 10 C-17.31230998 6.62461996 -13.44906374 6.09849494 -10.0625 4.875 C-9.32064453 4.59785156 -8.57878906 4.32070312 -7.81445312 4.03515625 C-2.28544489 2 -2.28544489 2 0 2 C0 1.34 0 0.68 0 0 Z " fill="#684E16" transform="translate(182,104)"/>
<path d="M0 0 C1.15242188 0.01804688 2.30484375 0.03609375 3.4921875 0.0546875 C4.36101562 0.07789063 5.22984375 0.10109375 6.125 0.125 C6.125 0.455 6.125 0.785 6.125 1.125 C4.82175781 1.30675781 4.82175781 1.30675781 3.4921875 1.4921875 C2.33976562 1.65976562 1.18734375 1.82734375 0 2 C-1.13695312 2.16242187 -2.27390625 2.32484375 -3.4453125 2.4921875 C-9.21691422 3.55710718 -12.91084206 4.49369031 -16.625 9.1875 C-19.72696375 13.05098187 -19.72696375 13.05098187 -21.875 14.125 C-21.37913604 9.94968172 -20.38425368 8.14712931 -17.1875 5.4375 C-16.52363281 4.85613281 -15.85976562 4.27476563 -15.17578125 3.67578125 C-10.29890902 0.38865345 -5.78326091 -0.11802573 0 0 Z " fill="#362802" transform="translate(262.875,42.875)"/>
<path d="M0 0 C0.825 0.144375 1.65 0.28875 2.5 0.4375 C-0.70760251 4.24385497 -3.90746109 7.98313567 -7.5 11.4375 C-7.83 10.1175 -8.16 8.7975 -8.5 7.4375 C-9.49 7.4375 -10.48 7.4375 -11.5 7.4375 C-4.60284464 0.57535558 -4.60284464 0.57535558 0 0 Z " fill="#C59940" transform="translate(247.5,31.5625)"/>
<path d="M0 0 C8.58 0 17.16 0 26 0 C25.01 0.495 25.01 0.495 24 1 C24 1.66 24 2.32 24 3 C21.12474331 3.05425013 18.25052354 3.09379277 15.375 3.125 C14.56675781 3.14175781 13.75851563 3.15851563 12.92578125 3.17578125 C8.19906185 3.21420986 4.44612298 2.82737094 0 1 C0 0.67 0 0.34 0 0 Z " fill="#5D450A" transform="translate(160,194)"/>
<path d="M0 0 C0.33 0 0.66 0 1 0 C1 4.95 1 9.9 1 15 C1.66 15 2.32 15 3 15 C3 15.99 3 16.98 3 18 C2.34 18 1.68 18 1 18 C1.33 20.97 1.66 23.94 2 27 C-0.00275715 24.63310519 -1.04408868 22.86222286 -2 19.875 C-2.77529656 16.71384124 -2.77529656 16.71384124 -6 15 C-4.02 15 -2.04 15 0 15 C0 10.05 0 5.1 0 0 Z " fill="#C4983D" transform="translate(211,91)"/>
<path d="M0 0 C2.475 0.99 2.475 0.99 5 2 C5 2.66 5 3.32 5 4 C-3.13496933 7.66871166 -3.13496933 7.66871166 -7 8 C-7.66 7.34 -8.32 6.68 -9 6 C-8.67 5.01 -8.34 4.02 -8 3 C-7.01 3.33 -6.02 3.66 -5 4 C-2.37156116 2.99500868 -1.27596315 2.55192629 0 0 Z " fill="#F2C35C" transform="translate(292,46)"/>
<path d="M0 0 C0.66 0.33 1.32 0.66 2 1 C-4.67540081 5.60472333 -10.79549217 8.567494 -19 9 C-21.3203125 8.53515625 -21.3203125 8.53515625 -23 8 C-22.34515625 7.84144531 -21.6903125 7.68289062 -21.015625 7.51953125 C-14.51910435 5.85869758 -8.54291973 3.65531348 -2.43359375 0.890625 C-1.22896484 0.44976562 -1.22896484 0.44976562 0 0 Z " fill="#786025" transform="translate(273,108)"/>
<path d="M0 0 C-3.37684711 2.89564639 -6.8089628 4.14624908 -11 5.5625 C-15.73695971 7.1299797 -15.73695971 7.1299797 -20.25 9.21484375 C-22 10 -22 10 -25 9 C-7.01793424 -0.33537031 -7.01793424 -0.33537031 0 0 Z " fill="#372B07" transform="translate(182,105)"/>
<path d="M0 0 C0.99 0.33 1.98 0.66 3 1 C1.47005208 2.20442708 -0.05989583 3.40885417 -1.58984375 4.61328125 C-3.27155077 6.05683091 -3.27155077 6.05683091 -4 9 C-9.02715283 12.12800621 -9.02715283 12.12800621 -12.375 11.6875 C-12.91125 11.460625 -13.4475 11.23375 -14 11 C-10.41758766 7.97733959 -6.69601875 5.52359002 -2.671875 3.1484375 C-0.84399588 2.09135286 -0.84399588 2.09135286 0 0 Z " fill="#9D7523" transform="translate(200,182)"/>
<path d="M0 0 C0.99 0.33 1.98 0.66 3 1 C2.44271087 4.34373475 1.64826111 7.03312999 0 10 C-0.66 10 -1.32 10 -2 10 C-2.33 10.99 -2.66 11.98 -3 13 C-3.66 13 -4.32 13 -5 13 C-4.21302675 9.58978257 -3.12880057 6.31114834 -2 3 C-1.34 3 -0.68 3 0 3 C0 2.01 0 1.02 0 0 Z " fill="#E1CEA6" transform="translate(205,156)"/>
<path d="M0 0 C0.66 0.66 1.32 1.32 2 2 C1.34 2.66 0.68 3.32 0 4 C0.020625 5.03125 0.04125 6.0625 0.0625 7.125 C-0.00172775 11.10712029 -0.77599248 13.41423665 -2.2734375 17.00390625 C-3.17667334 19.27245233 -3.17667334 19.27245233 -3.5625 22.9375 C-3.7790625 24.4534375 -3.7790625 24.4534375 -4 26 C-4.66 26.33 -5.32 26.66 -6 27 C-7.3721192 23.29527816 -6.4863484 21.55072117 -5 18 C-4.6503582 15.66905466 -4.31445513 13.33595238 -4 11 C-3.67 10.67 -3.34 10.34 -3 10 C-2.76924918 8.65252916 -2.58846937 7.29622435 -2.4375 5.9375 C-2.293125 4.638125 -2.14875 3.33875 -2 2 C-1.34 2 -0.68 2 0 2 C0 1.34 0 0.68 0 0 Z " fill="#FAE5AC" transform="translate(144,139)"/>
<path d="M0 0 C-7.32365625 4.93921003 -16.1496316 7.32900998 -25 7 C-21.44221079 3.44221079 -16.35290505 3.04831804 -11.5 2.875 C-10.675 2.91625 -9.85 2.9575 -9 3 C-9 2.34 -9 1.68 -9 1 C-2.25 -1.125 -2.25 -1.125 0 0 Z " fill="#3B2B01" transform="translate(269,94)"/>
<path d="M0 0 C0.33 0 0.66 0 1 0 C1.38393977 10.98494354 1.38393977 10.98494354 -1 15 C-1.99 15.66 -2.98 16.32 -4 17 C-4.48736475 10.29873464 -3.07708804 5.93438408 0 0 Z " fill="#4E3D0B" transform="translate(231,70)"/>
<path d="M0 0 C-1.52446267 4.57338802 -4.88919517 6.6590271 -9 9 C-11.77473497 9.73241735 -14.10709894 9.89668211 -17 10 C-17 9.34 -17 8.68 -17 8 C-15.56570999 7.32645501 -14.12742943 6.66140299 -12.6875 6 C-11.48673828 5.443125 -11.48673828 5.443125 -10.26171875 4.875 C-8 4 -8 4 -5 4 C-5 3.34 -5 2.68 -5 2 C-2 0 -2 0 0 0 Z " fill="#3A2B02" transform="translate(201,187)"/>
<path d="M0 0 C1.01419373 2.62603734 1.12957341 3.68808336 0.03125 6.33203125 C-3.42960502 11.93826323 -7.08100782 16.60492414 -12 21 C-12.33 20.01 -12.66 19.02 -13 18 C-12.51789063 17.64808594 -12.03578125 17.29617187 -11.5390625 16.93359375 C-6.799962 13.22935805 -5.25942779 10.83916519 -4 5 C-3.34 4.67 -2.68 4.34 -2 4 C-0.86649466 1.98330173 -0.86649466 1.98330173 0 0 Z " fill="#AC8222" transform="translate(216,161)"/>
<path d="M0 0 C2 2 2 2 2.375 5.625 C2.27197904 10.32103887 0.6354025 14.14307882 -2 18 C-2.66 18.33 -3.32 18.66 -4 19 C-3.69217504 17.35328588 -3.37860766 15.70764424 -3.0625 14.0625 C-2.88847656 13.14597656 -2.71445312 12.22945312 -2.53515625 11.28515625 C-2 9 -2 9 -1 8 C-0.76924918 6.65252916 -0.58846937 5.29622435 -0.4375 3.9375 C-0.2209375 1.9884375 -0.2209375 1.9884375 0 0 Z " fill="#FDF3D8" transform="translate(290,64)"/>
<path d="M0 0 C2.0625 0.4375 2.0625 0.4375 4 1 C0.45228843 4.05268205 -2.93336675 6.66168588 -7 9 C-9.00580329 10.32458708 -11.00715862 11.6559907 -13 13 C-11.69435407 9.0830622 -9.71750027 7.92080562 -6.5 5.375 C-5.4996875 4.57835937 -4.499375 3.78171875 -3.46875 2.9609375 C-2.6540625 2.31382812 -1.839375 1.66671875 -1 1 C-0.67 0.67 -0.34 0.34 0 0 Z " fill="#645121" transform="translate(167,128)"/>
<path d="M0 0 C-1.11375 0.6496875 -1.11375 0.6496875 -2.25 1.3125 C-4.9759487 2.8981141 -4.9759487 2.8981141 -7.125 4.75 C-7.74375 5.1625 -8.3625 5.575 -9 6 C-9.99 5.67 -10.98 5.34 -12 5 C-14.63804589 5.39397335 -14.63804589 5.39397335 -17 6 C-14.67566233 2.5134935 -13.47749494 2.13400623 -9.625 0.75 C-8.66851562 0.39421875 -7.71203125 0.0384375 -6.7265625 -0.328125 C-3.95935166 -1.0100165 -2.63263806 -0.9732027 0 0 Z " fill="#ECCD87" transform="translate(173,114)"/>
<path d="M0 0 C0.33 0 0.66 0 1 0 C0.38400666 10.939192 0.38400666 10.939192 -3 15 C-3.66 15 -4.32 15 -5 15 C-5.33 15.66 -5.66 16.32 -6 17 C-5.45660208 12.43545749 -4.20536179 9.0271824 -2 5 C-1.34 5 -0.68 5 0 5 C0 3.35 0 1.7 0 0 Z " fill="#473E1E" transform="translate(287,66)"/>
<path d="M0 0 C0.66 0.66 1.32 1.32 2 2 C0.25 7.75 0.25 7.75 -2 10 C-2.99 10 -3.98 10 -5 10 C-4.4454626 6.67277559 -3.75986957 3.8986087 -2 1 C-1.34 0.67 -0.68 0.34 0 0 Z " fill="#F8DD96" transform="translate(280,95)"/>
<path d="M0 0 C3.15864033 3.15864033 3.20199564 6.15109399 3.3125 10.4375 C3.29198354 15.60764711 3.29198354 15.60764711 1 18.6875 C0.34 19.120625 -0.32 19.55375 -1 20 C-0.67 19.175 -0.34 18.35 0 17.5 C1.16782809 13.4126017 1.1458885 10.23076656 1 6 C0.67 7.98 0.34 9.96 0 12 C-0.33 12 -0.66 12 -1 12 C-1.02687279 10.18757948 -1.04633715 8.37504767 -1.0625 6.5625 C-1.07410156 5.55316406 -1.08570313 4.54382813 -1.09765625 3.50390625 C-1 1 -1 1 0 0 Z " fill="#F5E6B9" transform="translate(290,60)"/>
<path d="M0 0 C0.33 0 0.66 0 1 0 C1.02699725 2.27076842 1.04639453 4.54162821 1.0625 6.8125 C1.07410156 8.07707031 1.08570313 9.34164062 1.09765625 10.64453125 C1 14 1 14 0 17 C-0.66 17 -1.32 17 -2 17 C-1.85941524 14.54126232 -1.71277001 12.08314825 -1.5625 9.625 C-1.52318359 8.92632812 -1.48386719 8.22765625 -1.44335938 7.5078125 C-1.11328125 2.2265625 -1.11328125 2.2265625 0 0 Z " fill="#F5E4C5" transform="translate(214,122)"/>
<path d="M0 0 C9 10.66666667 9 10.66666667 9 15 C7.68 15 6.36 15 5 15 C4.54625 13.9275 4.0925 12.855 3.625 11.75 C2.75710463 9.70571563 1.87324429 7.76650265 0.8125 5.8125 C0 4 0 4 0 0 Z " fill="#635520" transform="translate(134,164)"/>
<path d="M0 0 C-0.45445964 1.41791408 -0.91374944 2.83428046 -1.375 4.25 C-1.63023437 5.03890625 -1.88546875 5.8278125 -2.1484375 6.640625 C-2.95173667 8.86627958 -3.89711662 10.90931672 -5 13 C-5 11.35 -5 9.7 -5 8 C-5.66 8 -6.32 8 -7 8 C-4.18918919 0 -4.18918919 0 0 0 Z " fill="#E8CD9F" transform="translate(228,52)"/>
<path d="M0 0 C-0.47241991 4.25177923 -2.84964071 6.29969203 -6 9 C-6.99 9 -7.98 9 -9 9 C-7.67183131 4.6532661 -5.0855272 0 0 0 Z " fill="#D9C096" transform="translate(199,170)"/>
<path d="M0 0 C0.66 0 1.32 0 2 0 C2.33 1.32 2.66 2.64 3 4 C4.65 4 6.3 4 8 4 C8 3.34 8 2.68 8 2 C9.65 2 11.3 2 13 2 C8.28840397 5.73678306 4.98096662 6.11284843 -1 6 C-0.67 4.02 -0.34 2.04 0 0 Z " fill="#DEBA62" transform="translate(264,104)"/>
<path d="M0 0 C2.92090003 1.30936898 4.75619462 2.75619462 7 5 C7.99 5.33 8.98 5.66 10 6 C13.18404569 12.02694363 13.18404569 12.02694363 12.578125 15.23046875 C12.38734375 15.81441406 12.1965625 16.39835937 12 17 C11.72027344 16.43152344 11.44054687 15.86304688 11.15234375 15.27734375 C8.4799937 10.13027725 5.62379906 6.24409636 1.35546875 2.3125 C0.90816406 1.879375 0.46085937 1.44625 0 1 C0 0.67 0 0.34 0 0 Z " fill="#7B611F" transform="translate(287,37)"/>
<path d="M0 0 C0.99 0.33 1.98 0.66 3 1 C-0.3 4.3 -3.6 7.6 -7 11 C-7.33 9.68 -7.66 8.36 -8 7 C-6.74057614 5.80040625 -5.46704714 4.61560557 -4.1875 3.4375 C-3.12595703 2.44556641 -3.12595703 2.44556641 -2.04296875 1.43359375 C-1.36878906 0.96050781 -0.69460937 0.48742187 0 0 Z " fill="#362906" transform="translate(162,134)"/>
<path d="M0 0 C1.32 0.33 2.64 0.66 4 1 C3.67 1.61875 3.34 2.2375 3 2.875 C1.59612316 7.26211512 1.84032477 11.43151427 2 16 C1.34 16.33 0.68 16.66 0 17 C0 11.39 0 5.78 0 0 Z " fill="#C39742" transform="translate(217,119)"/>
<path d="M0 0 C0.33 0.66 0.66 1.32 1 2 C-2.36156441 7.1154241 -6.67594378 9.3265957 -12 12 C-12 11.01 -12 10.02 -12 9 C-11.01 9 -10.02 9 -9 9 C-9 8.34 -9 7.68 -9 7 C-8.01 6.67 -7.02 6.34 -6 6 C-5.34 5.01 -4.68 4.02 -4 3 C-3.34 3 -2.68 3 -2 3 C-2 2.34 -2 1.68 -2 1 C-1.34 0.67 -0.68 0.34 0 0 Z " fill="#74653A" transform="translate(284,80)"/>
<path d="M0 0 C0 3 0 3 -1 6 C-0.01 5.67 0.98 5.34 2 5 C1.67 6.32 1.34 7.64 1 9 C0.01 9 -0.98 9 -2 9 C-2 8.34 -2 7.68 -2 7 C-3.98 8.32 -5.96 9.64 -8 11 C-6.63629701 8.00779732 -5.05091917 5.70973471 -2.875 3.25 C-2.33617187 2.63640625 -1.79734375 2.0228125 -1.2421875 1.390625 C-0.62730469 0.70226562 -0.62730469 0.70226562 0 0 Z " fill="#BCA778" transform="translate(201,163)"/>
<path d="M0 0 C0.66 0 1.32 0 2 0 C2.34731345 4.86238823 1.52309739 7.82718509 -1 12 C-1.99 12.495 -1.99 12.495 -3 13 C-2.45144652 8.428721 -1.58255197 4.32564205 0 0 Z " fill="#D4AB62" transform="translate(211,148)"/>
<path d="M0 0 C0.33 0 0.66 0 1 0 C0.88541307 1.43836751 0.75790884 2.87570966 0.625 4.3125 C0.55539063 5.11300781 0.48578125 5.91351563 0.4140625 6.73828125 C0 9 0 9 -2 12 C-2.99 12.66 -3.98 13.32 -5 14 C-4.46515599 8.65155992 -2.53309233 4.64203897 0 0 Z " fill="#EADDBE" transform="translate(219,67)"/>
<path d="M0 0 C0.66 0.33 1.32 0.66 2 1 C1.401875 1.99 0.80375 2.98 0.1875 4 C-2.03309624 7.8643116 -3.52597123 11.79901802 -5 16 C-6.28934684 13.42130631 -5.82144674 12.34000765 -5.1875 9.5625 C-5.01605469 8.78003906 -4.84460938 7.99757813 -4.66796875 7.19140625 C-4 5 -4 5 -2 2 C-1.34 2 -0.68 2 0 2 C0 1.34 0 0.68 0 0 Z " fill="#977322" transform="translate(235,58)"/>
<path d="M0 0 C1.32 0 2.64 0 4 0 C2.6062718 4.43458973 0.39417765 6.87378374 -3 10 C-2.25 2.25 -2.25 2.25 0 0 Z " fill="#4B3E14" transform="translate(219,55)"/>
<path d="M0 0 C0.33 1.32 0.66 2.64 1 4 C-4.41538462 8.06153846 -4.41538462 8.06153846 -7.375 7.75 C-7.91125 7.5025 -8.4475 7.255 -9 7 C-6.19195732 4.03595495 -3.81684226 1.55500981 0 0 Z " fill="#D5AD60" transform="translate(239,38)"/>
<path d="M0 0 C0.33 0 0.66 0 1 0 C1.3125 2.8125 1.3125 2.8125 1 6 C-1.375 7.9375 -1.375 7.9375 -4 9 C-4.66 8.67 -5.32 8.34 -6 8 C-5.67 6.35 -5.34 4.7 -5 3 C-4.360625 2.87625 -3.72125 2.7525 -3.0625 2.625 C-2.0415625 2.315625 -2.0415625 2.315625 -1 2 C-0.67 1.34 -0.34 0.68 0 0 Z " fill="#EEBD57" transform="translate(173,119)"/>
<path d="M0 0 C1.14926266 0.95421808 2.29430541 1.91352045 3.4375 2.875 C4.07558594 3.40867188 4.71367187 3.94234375 5.37109375 4.4921875 C7.30420939 6.2815943 7.96504236 7.30364379 8.09765625 9.9453125 C8.04882812 12.97265625 8.04882812 12.97265625 8 16 C5.33333333 10.66666667 2.66666667 5.33333333 0 0 Z " fill="#534315" transform="translate(279,50)"/>
<path d="M0 0 C1.03253906 0.00676758 1.03253906 0.00676758 2.0859375 0.01367188 C3.76566335 0.02533664 5.44534375 0.04326729 7.125 0.0625 C7.125 0.3925 7.125 0.7225 7.125 1.0625 C5.87203125 1.19527344 4.6190625 1.32804687 3.328125 1.46484375 C1.67706754 1.64308291 0.02602673 1.8214764 -1.625 2 C-2.8625 2.13051758 -2.8625 2.13051758 -4.125 2.26367188 C-4.92421875 2.35068359 -5.7234375 2.43769531 -6.546875 2.52734375 C-7.2800293 2.605896 -8.01318359 2.68444824 -8.76855469 2.76538086 C-10.85647994 3.0598877 -12.84052768 3.51367496 -14.875 4.0625 C-14.545 3.0725 -14.215 2.0825 -13.875 1.0625 C-9.21962644 0.14157719 -4.72814567 -0.05955997 0 0 Z " fill="#2D2301" transform="translate(261.875,24.9375)"/>
<path d="M0 0 C0.33 0 0.66 0 1 0 C1 4.62 1 9.24 1 14 C-2.3 14 -5.6 14 -9 14 C-9 13.67 -9 13.34 -9 13 C-5.535 12.505 -5.535 12.505 -2 12 C-1.34 8.04 -0.68 4.08 0 0 Z " fill="#322502" transform="translate(209,88)"/>
<path d="M0 0 C0.66 0 1.32 0 2 0 C0.23387097 7.94758065 0.23387097 7.94758065 -3.125 10.8125 C-3.74375 11.204375 -4.3625 11.59625 -5 12 C-4.625 9.0625 -4.625 9.0625 -4 6 C-3.34 5.67 -2.68 5.34 -2 5 C-1.27840576 3.35636866 -0.60648579 1.68949614 0 0 Z " fill="#554418" transform="translate(228,41)"/>
<path d="M0 0 C0.66 0.33 1.32 0.66 2 1 C1.360625 1.268125 0.72125 1.53625 0.0625 1.8125 C-2.33131686 2.88667752 -2.33131686 2.88667752 -3 6 C-3.33 5.01 -3.66 4.02 -4 3 C-2.68 2.01 -1.36 1.02 0 0 Z M-5 6 C-2.69 6 -0.38 6 2 6 C2 6.66 2 7.32 2 8 C-0.31 8.33 -2.62 8.66 -5 9 C-5 8.01 -5 7.02 -5 6 Z " fill="#AE8B44" transform="translate(189,176)"/>
<path d="M0 0 C-5.36000789 2.25684543 -9.1977825 3.36263859 -15 3 C-12.623045 0.623045 -11.31588099 0.44788865 -8.0625 -0.1875 C-7.18722656 -0.36667969 -6.31195313 -0.54585938 -5.41015625 -0.73046875 C-3 -1 -3 -1 0 0 Z " fill="#413204" transform="translate(263,116)"/>
<path d="M0 0 C-0.66 0 -1.32 0 -2 0 C-2.268125 0.721875 -2.53625 1.44375 -2.8125 2.1875 C-3.98982498 4.97590126 -5.39145884 7.44095724 -7 10 C-7.66 9.67 -8.32 9.34 -9 9 C-7.38731308 6.28775382 -5.75098126 3.62647188 -4 1 C-4.99 0.67 -5.98 0.34 -7 0 C-3.86650268 -1.04449911 -3.01031744 -0.93423645 0 0 Z " fill="#F6CA65" transform="translate(179,112)"/>
<path d="M0 0 C0.99 0 1.98 0 3 0 C1.50958227 3.79379058 -0.69062512 5.68343758 -4 8 C-4.66 8 -5.32 8 -6 8 C-5.67 6.68 -5.34 5.36 -5 4 C-4.01 4 -3.02 4 -2 4 C-1.34 2.68 -0.68 1.36 0 0 Z " fill="#E3D3A4" transform="translate(287,94)"/>
<path d="M0 0 C4.53457586 1.26546303 7.45020257 2.92990492 11 6 C11.99 6.66 12.98 7.32 14 8 C9.21643523 7.42017397 6.00320934 5.56809656 2 3 C1.34 2.01 0.68 1.02 0 0 Z " fill="#856417" transform="translate(150,186)"/>
<path d="M0 0 C0.33 0 0.66 0 1 0 C0.67 2.97 0.34 5.94 0 9 C-0.99 9.33 -1.98 9.66 -3 10 C-2.25 3.375 -2.25 3.375 0 0 Z " fill="#F0E1C3" transform="translate(209,148)"/>
<path d="M0 0 C1.45606519 4.52092968 0.27032841 7.51648796 -1 12 C-1.33 12 -1.66 12 -2 12 C-2 9.69 -2 7.38 -2 5 C-2.66 5 -3.32 5 -4 5 C-4 3.68 -4 2.36 -4 1 C-3.34 1 -2.68 1 -2 1 C-2 1.66 -2 2.32 -2 3 C-1.34 3 -0.68 3 0 3 C0 2.01 0 1.02 0 0 Z " fill="#E1CBA4" transform="translate(214,136)"/>
<path d="M0 0 C0.93423645 3.01031744 1.04449911 3.86650268 0 7 C0.66 7.33 1.32 7.66 2 8 C0.1875 9.5625 0.1875 9.5625 -2 11 C-2.99 10.67 -3.98 10.34 -5 10 C-4.54625 9.46375 -4.0925 8.9275 -3.625 8.375 C-1.78311688 5.68301698 -0.92028067 3.11479612 0 0 Z " fill="#E1D2A4" transform="translate(286,76)"/>
<path d="M0 0 C0.66 0 1.32 0 2 0 C1.54917531 1.46067199 1.08906463 2.91848032 0.625 4.375 C0.36976563 5.18710938 0.11453125 5.99921875 -0.1484375 6.8359375 C-1 9 -1 9 -3 11 C-3.80967438 8.08517222 -4.21845993 6.53886783 -3.0625 3.6875 C-2.711875 3.130625 -2.36125 2.57375 -2 2 C-1.34 2 -0.68 2 0 2 C0 1.34 0 0.68 0 0 Z " fill="#E2D5B1" transform="translate(299,77)"/>
<path d="M0 0 C3.67420866 0.30618405 4.78135513 0.75771784 7.3125 3.5625 C8.1478125 4.7690625 8.1478125 4.7690625 9 6 C5.32579134 5.69381595 4.21864487 5.24228216 1.6875 2.4375 C1.130625 1.633125 0.57375 0.82875 0 0 Z " fill="#7C5C12" transform="translate(157,173)"/>
<path d="M0 0 C0 3.75366417 -1.11420063 5.78715662 -3 9 C-3.99 9.33 -4.98 9.66 -6 10 C-5.58578031 5.16743695 -3.53586014 3.17320782 0 0 Z " fill="#51482E" transform="translate(139,134)"/>
<path d="M0 0 C0.66 0 1.32 0 2 0 C2 5.61 2 11.22 2 17 C1.67 17 1.34 17 1 17 C0.93941406 16.18015625 0.87882813 15.3603125 0.81640625 14.515625 C0.73261719 13.43796875 0.64882812 12.3603125 0.5625 11.25 C0.48128906 10.18265625 0.40007812 9.1153125 0.31640625 8.015625 C0.08385541 5.09107621 0.08385541 5.09107621 -0.59765625 2.671875 C-0.73042969 2.12015625 -0.86320313 1.5684375 -1 1 C-0.67 0.67 -0.34 0.34 0 0 Z " fill="#DCC495" transform="translate(214,119)"/>
<path d="M0 0 C0.33 1.32 0.66 2.64 1 4 C-0.98 5.32 -2.96 6.64 -5 8 C-4.64950425 4.75791433 -4.43778819 3.38472296 -1.9375 1.1875 C-1.298125 0.795625 -0.65875 0.40375 0 0 Z " fill="#F6C971" transform="translate(167,123)"/>
<path d="M0 0 C-2.97 1.65 -5.94 3.3 -9 5 C-9.66 4.34 -10.32 3.68 -11 3 C-4.5 -1.125 -4.5 -1.125 0 0 Z " fill="#3C2F0C" transform="translate(279,109)"/>
<path d="M0 0 C0.99 0.33 1.98 0.66 3 1 C0.03 3.64 -2.94 6.28 -6 9 C-6.66 8.67 -7.32 8.34 -8 8 C-5.36 5.36 -2.72 2.72 0 0 Z " fill="#3B2D07" transform="translate(209,178)"/>
<path d="M0 0 C0.66 0 1.32 0 2 0 C1.40716379 3.39192363 0.23256811 5.2107757 -2.0625 7.75 C-2.61035156 8.36359375 -3.15820312 8.9771875 -3.72265625 9.609375 C-4.14417969 10.06828125 -4.56570312 10.5271875 -5 11 C-5.33 10.34 -5.66 9.68 -6 9 C-4.6875 6.375 -4.6875 6.375 -3 4 C-2.34 4 -1.68 4 -1 4 C-0.67 2.68 -0.34 1.36 0 0 Z " fill="#383114" transform="translate(141,128)"/>
<path d="M0 0 C0.33 0 0.66 0 1 0 C1 4.95 1 9.9 1 15 C1.66 15 2.32 15 3 15 C3 15.99 3 16.98 3 18 C2.01 17.67 1.02 17.34 0 17 C0 11.39 0 5.78 0 0 Z " fill="#B59B65" transform="translate(211,91)"/>
<path d="M0 0 C4.3590077 3.48720616 4.94552183 6.72760915 6 12 C2.92307943 9.23077149 1.22199993 6.97149976 0 3 C0 2.01 0 1.02 0 0 Z " fill="#3A2E0C" transform="translate(298,46)"/>
<path d="M0 0 C0.66 0 1.32 0 2 0 C2.33 0.99 2.66 1.98 3 3 C-2.2734375 6.22265625 -2.2734375 6.22265625 -4 7 C-4.66 6.67 -5.32 6.34 -6 6 C-5.195625 5.38125 -4.39125 4.7625 -3.5625 4.125 C-0.96125481 2.25835959 -0.96125481 2.25835959 0 0 Z " fill="#DFD5B2" transform="translate(154,120)"/>
<path d="M0 0 C0.8125 1.625 0.8125 1.625 1 4 C-0.46818136 6.24609835 -2.15852858 8.02378677 -4 10 C-4 5.80285329 -2.97903734 2.97903734 0 0 Z " fill="#D4A545" transform="translate(233,47)"/>
<path d="M0 0 C3.01657791 0.14030595 5.23841273 0.29351465 7.51171875 2.40234375 C8.73256066 3.88904235 9.87246522 5.44134898 11 7 C7.22272911 5.18690997 3.62730178 3.0926741 0 1 C0 0.67 0 0.34 0 0 Z " fill="#846312" transform="translate(276,30)"/>
<path d="M0 0 C-1 3 -1 3 -2.77734375 4.203125 C-3.49019531 4.54859375 -4.20304688 4.8940625 -4.9375 5.25 C-6.00291016 5.78367188 -6.00291016 5.78367188 -7.08984375 6.328125 C-8.03537109 6.66070312 -8.03537109 6.66070312 -9 7 C-9.66 6.67 -10.32 6.34 -11 6 C-8 4 -8 4 -5 4 C-5 3.34 -5 2.68 -5 2 C-2 0 -2 0 0 0 Z " fill="#403207" transform="translate(201,187)"/>
<path d="M0 0 C0.33 0.66 0.66 1.32 1 2 C1.66 2.33 2.32 2.66 3 3 C0.25 8.875 0.25 8.875 -2 10 C-1.34 6.7 -0.68 3.4 0 0 Z " fill="#F7ECCC" transform="translate(288,73)"/>
<path d="M0 0 C1.485 0.99 1.485 0.99 3 2 C3.66 1.67 4.32 1.34 5 1 C5 2.98 5 4.96 5 7 C2.5 5.75 2.5 5.75 0 4 C0 2.68 0 1.36 0 0 Z " fill="#EDD697" transform="translate(136,162)"/>
<path d="M0 0 C0.99 0.99 1.98 1.98 3 3 C2.6875 6.6875 2.6875 6.6875 2 10 C1.34 10 0.68 10 0 10 C0 6.7 0 3.4 0 0 Z " fill="#F7EFD4" transform="translate(136,148)"/>
<path d="M0 0 C0.33 0.66 0.66 1.32 1 2 C-3.75 6.875 -3.75 6.875 -6 8 C-4.73058503 4.08597051 -3.48832306 2.20927127 0 0 Z " fill="#41391E" transform="translate(295,92)"/>
<path d="M0 0 C0.33 0 0.66 0 1 0 C1.41879658 1.4100489 1.80921039 2.82854812 2.1875 4.25 C2.51814453 5.43335938 2.51814453 5.43335938 2.85546875 6.640625 C3 9 3 9 0 13 C0 8.71 0 4.42 0 0 Z " fill="#EABD55" transform="translate(148,160)"/>
<path d="M0 0 C-0.66 1.32 -1.32 2.64 -2 4 C-2.99 3.67 -3.98 3.34 -5 3 C-7.63804589 3.39397335 -7.63804589 3.39397335 -10 4 C-8 1 -8 1 -5 0.3125 C-2 0 -2 0 0 0 Z " fill="#DCC690" transform="translate(166,116)"/>
<path d="M0 0 C0.33 0 0.66 0 1 0 C1 3.3 1 6.6 1 10 C1.66 10.33 2.32 10.66 3 11 C1.02 11.99 1.02 11.99 -1 13 C-1 12.34 -1 11.68 -1 11 C-1.66 10.67 -2.32 10.34 -3 10 C-2.01 10 -1.02 10 0 10 C0 6.7 0 3.4 0 0 Z " fill="#DABD81" transform="translate(215,95)"/>
<path d="M0 0 C0.99 0.33 1.98 0.66 3 1 C2.67 2.65 2.34 4.3 2 6 C1.01 6.33 0.02 6.66 -1 7 C-0.67 4.69 -0.34 2.38 0 0 Z " fill="#E9D7B2" transform="translate(205,156)"/>
<path d="M0 0 C0.53625 0.2475 1.0725 0.495 1.625 0.75 C0.635 0.75 -0.355 0.75 -1.375 0.75 C-1.375 1.41 -1.375 2.07 -1.375 2.75 C-4.375 4.75 -4.375 4.75 -6.5625 4.375 C-7.160625 4.16875 -7.75875 3.9625 -8.375 3.75 C-2.95961538 -0.31153846 -2.95961538 -0.31153846 0 0 Z " fill="#947027" transform="translate(177.375,123.25)"/>
<path d="M0 0 C2.1875 0.3125 2.1875 0.3125 4 1 C3.34 2.65 2.68 4.3 2 6 C1.34 5.01 0.68 4.02 0 3 C-0.99 3 -1.98 3 -3 3 C-1.75 1.4375 -1.75 1.4375 0 0 Z " fill="#C79E4B" transform="translate(239,36)"/>
<path d="M0 0 C-6.75 4 -6.75 4 -9 4 C-9 3.01 -9 2.02 -9 1 C-2.25 -1.125 -2.25 -1.125 0 0 Z " fill="#523D08" transform="translate(269,94)"/>
<path d="M0 0 C0.99 0.33 1.98 0.66 3 1 C-0.465 3.97 -0.465 3.97 -4 7 C-3.67 5.68 -3.34 4.36 -3 3 C-2.01 2.67 -1.02 2.34 0 2 C0 1.34 0 0.68 0 0 Z " fill="#453209" transform="translate(234,36)"/>
</svg>
