<?xml version="1.0" encoding="UTF-8"?>
<svg version="1.1" xmlns="http://www.w3.org/2000/svg" width="1536" height="1024">
<path d="M0 0 C506.88 0 1013.76 0 1536 0 C1536 337.92 1536 675.84 1536 1024 C1029.12 1024 522.24 1024 0 1024 C0 686.08 0 348.16 0 0 Z " fill="#FDFDFD" transform="translate(0,0)"/>
<path d="M0 0 C25.12088956 19.14317572 43.95666362 41.99530975 57.36328125 70.5859375 C57.90984375 71.72675781 58.45640625 72.86757812 59.01953125 74.04296875 C63.37273139 83.5822517 65.9572492 93.40877444 68.36328125 103.5859375 C68.54439453 104.3082959 68.72550781 105.0306543 68.91210938 105.77490234 C71.23691172 115.42797925 71.52851614 125.13236067 71.48828125 135.0234375 C71.49214844 135.97025391 71.49601562 136.91707031 71.5 137.89257812 C71.46684681 162.30990491 65.22946044 185.76546243 54.36328125 207.5859375 C54.00508301 208.30668457 53.64688477 209.02743164 53.27783203 209.77001953 C47.79571609 220.56614992 40.89454312 230.13621736 33.36328125 239.5859375 C32.93354004 240.13282227 32.50379883 240.67970703 32.06103516 241.24316406 C19.77725039 256.7803873 5.39491593 270.95947634 -10.63671875 282.5859375 C-11.7855662 283.44085564 -12.93399859 284.29633179 -14.08203125 285.15234375 C-21.61357647 290.70634419 -29.41622035 295.65918602 -37.51293945 300.34936523 C-39.12883241 301.29022026 -40.7381978 302.24229626 -42.34448242 303.19946289 C-61.22055395 314.38374654 -80.82589869 322.34297768 -101.63671875 329.0859375 C-102.53125763 329.377034 -103.42579651 329.66813049 -104.34744263 329.9680481 C-121.5964607 335.54559267 -138.98300602 340.26342209 -156.88671875 343.2109375 C-158.10762207 343.4162207 -159.32852539 343.62150391 -160.58642578 343.83300781 C-168.54306647 345.14482576 -176.51219035 346.31826128 -184.51171875 347.3359375 C-185.87151855 347.50923584 -185.87151855 347.50923584 -187.25878906 347.68603516 C-201.32154243 349.37284886 -215.42979316 349.7995616 -229.57421875 350.1484375 C-231.2402416 350.19178039 -232.90625731 350.23539872 -234.57226562 350.27929688 C-238.59367509 350.38467258 -242.61516153 350.48636706 -246.63671875 350.5859375 C-246.70403198 352.03323242 -246.70403198 352.03323242 -246.77270508 353.50976562 C-247.67807993 372.6315873 -248.616705 391.65963106 -251.63671875 410.5859375 C-251.79753937 411.60243378 -251.79753937 411.60243378 -251.96160889 412.63946533 C-258.50472404 453.80946164 -268.78910829 493.34260512 -285.63671875 531.5859375 C-285.99846191 532.41399902 -286.36020508 533.24206055 -286.73291016 534.09521484 C-295.22663757 553.35742201 -305.83735502 571.85897118 -318.63671875 588.5859375 C-319.24773437 589.39546875 -319.85875 590.205 -320.48828125 591.0390625 C-322.17724596 593.24474245 -323.89662412 595.42040123 -325.63671875 597.5859375 C-326.34570312 598.46894531 -327.0546875 599.35195313 -327.78515625 600.26171875 C-340.6392841 616.12099253 -340.6392841 616.12099253 -348.390625 622.6484375 C-350.59389891 624.54900073 -352.70233378 626.53167022 -354.81152344 628.53540039 C-374.41022365 647.00486626 -399.78350728 661.13194476 -425.74609375 668.07470703 C-427.40353103 668.52288287 -429.05225859 669.0030162 -430.69921875 669.48828125 C-442.94613318 673.06623154 -454.97982299 673.91350046 -467.65649414 673.84667969 C-470.06747669 673.83596746 -472.47771189 673.84663286 -474.88867188 673.859375 C-484.33004311 673.86819707 -493.32420111 673.26671466 -502.63671875 671.5859375 C-503.40830322 671.45058594 -504.1798877 671.31523438 -504.97485352 671.17578125 C-548.70619097 662.92999875 -588.96602326 634.11854871 -613.94873047 597.671875 C-623.14177814 583.90116279 -630.6737259 569.41386064 -635.63671875 553.5859375 C-635.85457031 552.89242187 -636.07242187 552.19890625 -636.296875 551.484375 C-641.10431455 535.93574193 -642.79120131 521.15591665 -642.88671875 504.8984375 C-642.89614502 503.68696045 -642.90557129 502.4754834 -642.9152832 501.22729492 C-642.88624108 493.16838077 -642.06059345 485.5116262 -640.63671875 477.5859375 C-640.43691406 476.31621094 -640.23710938 475.04648437 -640.03125 473.73828125 C-631.62646164 427.31451736 -599.19970891 385.77669554 -561.63671875 358.5859375 C-560.79238281 357.93496094 -559.94804688 357.28398438 -559.078125 356.61328125 C-550.56066562 350.14213816 -541.33442449 344.68112843 -532.19506836 339.14379883 C-530.54943499 338.14171976 -528.91146425 337.12688804 -527.28344727 336.09643555 C-520.06581829 331.59482218 -512.45099953 328.1048491 -504.69921875 324.6484375 C-504.01485748 324.34157013 -503.33049622 324.03470276 -502.62539673 323.71853638 C-487.34946013 316.87921305 -472.08705527 310.9890204 -455.8828125 306.7265625 C-452.82725437 305.9219967 -449.80367179 305.04231745 -446.78125 304.12109375 C-401.65043343 290.49263019 -355.46433897 288.10466699 -308.63671875 288.5859375 C-307.82152861 284.83371293 -307.52836481 281.29997239 -307.44775391 277.45751953 C-307.14962968 264.95776706 -305.7385757 252.61564035 -304.26171875 240.2109375 C-304.15661987 239.31323639 -304.051521 238.41553528 -303.9432373 237.4906311 C-302.73334212 227.21881776 -301.29805146 217.05722422 -299.28613281 206.91015625 C-298.70454771 203.93314019 -298.20893473 200.96055688 -297.76171875 197.9609375 C-295.16683004 182.26398776 -291.08008851 166.92868195 -286.31689453 151.76611328 C-285.69805331 149.78253392 -285.10167893 147.79198044 -284.5078125 145.80078125 C-282.54701646 139.22634746 -280.30085319 132.90493137 -277.63671875 126.5859375 C-277.05289169 125.1707765 -276.46960922 123.75539078 -275.88671875 122.33984375 C-264.04617352 93.72667211 -249.91838086 66.95768874 -230.63671875 42.5859375 C-229.87875 41.62300781 -229.12078125 40.66007812 -228.33984375 39.66796875 C-171.26044703 -30.26315549 -76.38509032 -56.91075452 0 0 Z " fill="#E4B756" transform="translate(1077.63671875,175.4140625)"/>
<path d="M0 0 C3.00540404 0.01093236 6.01023655 -0.00007579 9.015625 -0.01269531 C10.93229298 -0.01137705 12.84896061 -0.00882162 14.765625 -0.00488281 C15.66128174 -0.00893127 16.55693848 -0.01297974 17.47973633 -0.01715088 C23.72307655 0.03069374 23.72307655 0.03069374 25.953125 2.26074219 C26.19274815 4.76900532 26.28463444 7.12456718 26.265625 9.63574219 C26.26071045 10.42102295 26.2557959 11.20630371 26.25073242 12.01538086 C25.68141949 42.65025544 21.60575162 78.72513178 9.953125 107.26074219 C9.48530823 108.8646854 9.01986884 110.46938834 8.57055664 112.07861328 C-1.55610993 147.8683111 -17.23395495 183.42861712 -41.046875 212.26074219 C-41.49272949 212.80666016 -41.93858398 213.35257813 -42.39794922 213.91503906 C-58.66366363 233.79598926 -77.37457061 249.13094603 -101.046875 259.26074219 C-101.90539062 259.66035156 -102.76390625 260.05996094 -103.6484375 260.47167969 C-123.12100014 269.13338815 -148.09625507 269.03050311 -168.046875 262.26074219 C-169.11164063 261.93332031 -170.17640625 261.60589844 -171.2734375 261.26855469 C-186.6527237 256.04036062 -200.25060749 246.24198054 -212.046875 235.26074219 C-213.00078125 234.38804687 -213.9546875 233.51535156 -214.9375 232.61621094 C-229.3824417 218.83702772 -240.92354066 200.64143622 -246.046875 181.26074219 C-246.49160156 179.70419922 -246.49160156 179.70419922 -246.9453125 178.11621094 C-253.3592377 152.84299193 -247.016231 127.31251974 -234.1472168 105.18652344 C-230.89792131 99.8096491 -227.17061607 94.9870033 -223.046875 90.26074219 C-222.33660156 89.44089844 -221.62632812 88.62105469 -220.89453125 87.77636719 C-204.29411594 68.98784793 -184.92538139 53.46659477 -163.046875 41.26074219 C-162.22751465 40.80054688 -161.4081543 40.34035156 -160.56396484 39.86621094 C-139.85063239 28.344871 -117.87044312 19.64294234 -95.046875 13.26074219 C-93.92490723 12.9467749 -93.92490723 12.9467749 -92.78027344 12.62646484 C-80.62747323 9.31651396 -68.26841023 7.15767936 -55.859375 5.07324219 C-55.11068146 4.9465918 -54.36198792 4.81994141 -53.59060669 4.68945312 C-35.66459705 1.67889947 -18.1993128 -0.07907455 0 0 Z " fill="#FDFDFD" transform="translate(744.046875,523.7392578125)"/>
<path d="M0 0 C21.3352275 18.08320668 38.68783068 42.63820093 41.65039062 71.08862305 C43.19123505 100.72042089 34.24145781 127.65160883 14.59375 149.98046875 C12.92646945 151.81692924 11.24371561 153.63958236 9.5390625 155.44140625 C7.27443634 157.82325768 7.27443634 157.82325768 5.2421875 160.453125 C2.3248832 164.06727526 -1.15095024 166.85263826 -4.6875 169.84375 C-5.49574219 170.56304687 -6.30398438 171.28234375 -7.13671875 172.0234375 C-30.04874724 191.96115131 -57.51568944 206.05890231 -86.08496094 215.93261719 C-88.39915458 216.74280205 -90.68907458 217.59441666 -92.9765625 218.4765625 C-127.88747262 231.77148412 -166.33873383 236.95746268 -203.5625 237.21875 C-204.75697754 237.23260742 -205.95145508 237.24646484 -207.18212891 237.26074219 C-208.27444824 237.25461914 -209.36676758 237.24849609 -210.4921875 237.2421875 C-211.93053955 237.23711182 -211.93053955 237.23711182 -213.39794922 237.23193359 C-214.15350098 237.10383301 -214.90905273 236.97573242 -215.6875 236.84375 C-218.17491141 233.11263288 -217.99125881 230.22487456 -217.9375 225.90625 C-217.93000732 225.10195557 -217.92251465 224.29766113 -217.91479492 223.46899414 C-217.38635069 192.95207771 -211.16733711 162.32662146 -203.6875 132.84375 C-203.29663858 131.23833879 -202.90598194 129.6328777 -202.515625 128.02734375 C-197.5405006 108.29824663 -190.14317658 87.83927627 -180.6875 69.84375 C-180.30158691 69.09544922 -179.91567383 68.34714844 -179.51806641 67.57617188 C-173.14944333 55.30059623 -166.00666331 43.88815646 -157.6875 32.84375 C-156.62402344 31.43029297 -156.62402344 31.43029297 -155.5390625 29.98828125 C-135.52373347 4.29513439 -108.73822648 -19.40922656 -75.2890625 -23.83984375 C-46.50249135 -26.36881584 -22.29101323 -18.36709173 0 0 Z " fill="#FDFDFD" transform="translate(1047.6875,228.15625)"/>
<path d="M0 0 C10.05583505 -0.26119052 19.99888714 0.63085444 28.046875 7.15625 C31.17453715 10.28391215 29.359375 20.74550055 29.359375 24.94970703 C29.20492616 45.4423862 25.14489443 65.33064413 21.109375 85.34375 C20.86501709 86.56357574 20.86501709 86.56357574 20.61572266 87.80804443 C18.33037298 99.12276024 15.45084536 110.12870513 12.046875 121.15625 C11.42109816 123.26018577 10.79594381 125.36430697 10.171875 127.46875 C0.10229994 159.70731045 -12.81397566 190.83945108 -32.953125 218.15625 C-33.58863281 219.02378906 -34.22414063 219.89132812 -34.87890625 220.78515625 C-46.12014666 235.64426714 -59.57306982 249.59351095 -74.953125 260.15625 C-76.54640625 261.26613281 -76.54640625 261.26613281 -78.171875 262.3984375 C-80.953125 264.15625 -80.953125 264.15625 -82.953125 264.15625 C-83.283125 265.14625 -83.613125 266.13625 -83.953125 267.15625 C-106.5323483 281.73271061 -135.90140303 286.2813874 -161.953125 281.15625 C-178.72022949 277.50047812 -196.14162024 271.00012278 -207.953125 258.15625 C-209.273125 259.14625 -210.593125 260.13625 -211.953125 261.15625 C-213.953125 259.78125 -213.953125 259.78125 -215.953125 258.15625 C-215.953125 257.49625 -215.953125 256.83625 -215.953125 256.15625 C-216.49453125 255.95773437 -217.0359375 255.75921875 -217.59375 255.5546875 C-220.95508524 253.5623729 -223.22014793 250.73946439 -225.703125 247.78125 C-226.23462158 247.15130127 -226.76611816 246.52135254 -227.3137207 245.87231445 C-248.59282423 220.28131625 -260.40510029 189.56219766 -257.953125 156.15625 C-254.07657493 119.57857299 -231.43843276 88.83505712 -203.6328125 66.0546875 C-164.88791821 35.17168217 -112.36376884 10.90301783 -62.72949219 6.41992188 C-60.93161768 6.33328364 -60.93161768 6.33328364 -59.953125 5.15625 C-57.61275196 4.79278587 -55.28933295 4.48714076 -52.9375 4.21875 C-52.21852036 4.13393372 -51.49954071 4.04911743 -50.7587738 3.96173096 C-48.40753845 3.68723318 -46.05549651 3.42082528 -43.703125 3.15625 C-42.9061319 3.06565308 -42.10913879 2.97505615 -41.28799438 2.88171387 C-29.55837814 1.55674139 -17.86996645 0.45240035 -6.06054688 0.203125 C-4.03973008 0.15817634 -2.01973954 0.0798316 0 0 Z M-42.00878906 13.65576172 C-45.35641545 14.22480269 -48.71149081 14.72404634 -52.0703125 15.22265625 C-104.33800532 23.18728919 -152.92028815 40.76335932 -194.953125 73.15625 C-195.9121875 73.88585937 -196.87125 74.61546875 -197.859375 75.3671875 C-223.24020473 95.32018919 -245.39900725 123.15000354 -249.73779297 156.07373047 C-252.73529483 185.06317591 -242.86233614 211.35762361 -224.73828125 233.86328125 C-209.06633851 252.70432709 -189.23822439 266.51129776 -165.953125 274.15625 C-164.9528125 274.49914062 -163.9525 274.84203125 -162.921875 275.1953125 C-136.95788623 282.66344906 -109.56949926 275.40106069 -86.6328125 262.84765625 C-79.22179206 258.61644448 -72.37563288 253.78232606 -65.953125 248.15625 C-64.98761719 247.31191406 -64.02210938 246.46757813 -63.02734375 245.59765625 C-27.37456144 213.90819234 -0.2630937 164.13910811 9.56396484 117.33154297 C10.16839271 114.60886739 10.94967443 111.95948476 11.74658203 109.28808594 C17.30403956 90.52114966 20.37349962 71.06988972 22.73828125 51.66992188 C23.03514293 49.25181438 23.35201363 46.83703078 23.671875 44.421875 C24.66183115 36.6615482 25.23820106 28.98257177 25.296875 21.15625 C25.30614014 20.3837793 25.31540527 19.61130859 25.32495117 18.81542969 C25.44732587 14.52192904 25.44732587 14.52192904 23.046875 11.15625 C20.02388473 10.94254734 17.0951355 10.85282571 14.0703125 10.85546875 C13.1615033 10.84986938 12.25269409 10.84427002 11.31634521 10.83850098 C8.35135633 10.82652275 5.38686401 10.83289501 2.421875 10.84375 C0.90977448 10.84648422 0.90977448 10.84648422 -0.63287354 10.84927368 C-14.58089978 10.89199245 -28.23475167 11.27812977 -42.00878906 13.65576172 Z " fill="#CD952E" transform="translate(744.953125,512.84375)"/>
<path d="M0 0 C5.7109375 0.6953125 5.7109375 0.6953125 8.3125 3.4375 C17.11843179 16.80947049 10.04337885 44.00463824 8 59 C7.8151001 60.43569336 7.8151001 60.43569336 7.62646484 61.90039062 C1.08473894 111.60699872 -16.13363909 167.28422635 -46 208 C-46.69351563 208.96421875 -47.38703125 209.9284375 -48.1015625 210.921875 C-52.93725099 217.51754905 -58.0970245 223.79155873 -63.421875 229.9921875 C-65.17231055 232.0343623 -66.889596 234.08572275 -68.58984375 236.16796875 C-70.57339578 238.49872276 -72.48409677 240.47183748 -74.8125 242.4375 C-75.84117187 243.31341797 -75.84117187 243.31341797 -76.890625 244.20703125 C-77.58671875 244.79871094 -78.2828125 245.39039063 -79 246 C-80.35489759 247.20751369 -81.70907529 248.41583568 -83.0625 249.625 C-88.06316233 253.99812824 -93.31099359 257.58659615 -99 261 C-99.66 261.66 -100.32 262.32 -101 263 C-102.56173669 263.69410519 -104.12821247 264.3786236 -105.7109375 265.0234375 C-107.42370574 265.75414067 -109.11333045 266.53951308 -110.7890625 267.3515625 C-140.78508437 281.86576663 -172.96082197 284.17558533 -204.58032227 273.39282227 C-218.85481927 268.29533846 -229.4846005 259.72881167 -240 249 C-239.505 248.01 -239.505 248.01 -239 247 C-238.154375 247.99 -237.30875 248.98 -236.4375 250 C-220.85104896 265.49255676 -193.4182654 271.73724367 -172.3125 272.1875 C-154.01681821 271.95413671 -137.24364363 267.20023941 -121 259 C-119.45892578 258.29230469 -119.45892578 258.29230469 -117.88671875 257.5703125 C-114.98496256 255.99181996 -113.27788035 254.35486636 -111 252 C-109.21071253 250.7980359 -107.39552868 249.63413986 -105.5625 248.5 C-98.30355524 243.73714439 -92.20487752 238.04262194 -86 232 C-85.45746582 231.47792969 -84.91493164 230.95585938 -84.35595703 230.41796875 C-78.36072215 224.63960186 -72.75306558 218.86419877 -68 212 C-67.26523437 211.00871094 -66.53046875 210.01742187 -65.7734375 208.99609375 C-41.91726321 176.71123958 -25.25086177 137.13943381 -16.49267578 98.13330078 C-15.76076598 94.96410957 -14.89988625 91.83024112 -14.0625 88.6875 C-6.79492049 59.52855294 -3.19079349 29.8286182 0 0 Z " fill="#F5E9D0" transform="translate(776,523)"/>
<path d="M0 0 C13.1760279 6.62128675 23.35555861 15.93455657 33.48535156 26.43969727 C34.85081191 27.84631511 36.24228823 29.22756481 37.63671875 30.60546875 C58.07872468 51.31778219 69.20230154 80.15633994 69.3215332 109.06518555 C68.91598975 131.72892014 58.74207405 157.3264599 43.5 174.15625 C41.92123514 175.99168411 41.92123514 175.99168411 40.71875 178.265625 C38.37793376 181.98965084 35.50564251 185.05176056 32.5 188.25 C31.87706055 188.91459229 31.25412109 189.57918457 30.61230469 190.26391602 C25.42688139 195.71126287 19.96943015 200.41859844 14 205 C12.37418391 206.3323381 10.74917888 207.66566655 9.125 209 C-2.21942503 217.99730261 -14.2272027 225.25328213 -27 232 C-27.99265869 232.53246338 -27.99265869 232.53246338 -29.00537109 233.07568359 C-33.10707339 235.21424729 -37.17882538 236.7889858 -41.58398438 238.18652344 C-45.1978999 239.40333493 -48.6862555 240.89672581 -52.20507812 242.36230469 C-90.0226759 258.04484283 -130.2734777 267.67125132 -171.125 270.4375 C-173.07031616 270.57720215 -173.07031616 270.57720215 -175.05493164 270.71972656 C-194.40898357 271.81900358 -194.40898357 271.81900358 -201.36376953 267.54858398 C-201.90372559 267.03755127 -202.44368164 266.52651855 -203 266 C-203 265.34 -203 264.68 -203 264 C-201.44780762 263.89510254 -201.44780762 263.89510254 -199.86425781 263.78808594 C-160.35368741 261.08411328 -123.00905041 255.4755857 -85 244 C-84.17902832 243.75217773 -83.35805664 243.50435547 -82.51220703 243.24902344 C-74.52886874 240.80341698 -67.08780818 237.82942767 -59.609375 234.13671875 C-57 233 -57 233 -54 233 C-54 232.34 -54 231.68 -54 231 C-52.3767313 230.3291288 -50.75132422 229.66342971 -49.125 229 C-48.22007812 228.62875 -47.31515625 228.2575 -46.3828125 227.875 C-44 227 -44 227 -42 227 C-42 226.34 -42 225.68 -42 225 C-41.50709473 224.73372803 -41.01418945 224.46745605 -40.50634766 224.19311523 C-31.33664502 219.22093225 -22.35110621 214.28202616 -14 208 C-12.73237 207.07209758 -11.46408179 206.145094 -10.1953125 205.21875 C-2.42933824 199.51419919 5.03361391 193.67660298 12 187 C12.86753906 186.195625 13.73507812 185.39125 14.62890625 184.5625 C34.94278842 165.14439357 51.49466639 138.17752129 52.203125 109.5 C52.58692493 73.49716825 41.68892837 44.18722108 16.33203125 18.2734375 C10.62288375 12.99088766 4.37241639 8.44615364 -2 4 C-1.34 2.68 -0.68 1.36 0 0 Z " fill="#F8E7BD" transform="translate(1039,207)"/>
<path d="M0 0 C6.04478848 3.35928532 9.5272173 8.5816519 11.6875 15.0625 C12.70240635 22.06406909 11.47354997 27.00692174 7.50390625 32.85546875 C3.76691429 37.3961149 0.48878565 39.59980365 -5.36328125 40.56640625 C-12.24907892 40.94670295 -17.43848148 39.97801199 -23.14453125 36.03125 C-27.83245914 31.77410467 -31.55581285 26.42338292 -31.875 19.9375 C-30.74113353 12.12641987 -28.14497781 6.49273796 -22.3125 1.0625 C-15.6550628 -3.73704775 -7.28144181 -3.17396181 0 0 Z " fill="#FDFCFB" transform="translate(811.3125,473.9375)"/>
<path d="M0 0 C1.9375 0.5625 1.9375 0.5625 4 2 C5.37123535 9.03969382 5.18388893 16.10731071 5.1875 23.25 C5.19974609 24.50941406 5.21199219 25.76882813 5.22460938 27.06640625 C5.24263641 38.63976135 3.58314683 48.54492334 -0.625 59.3125 C-0.97763916 60.22112793 -1.33027832 61.12975586 -1.69360352 62.06591797 C-6.64592404 74.49126047 -13.11242629 84.93657891 -22 95 C-23.06347656 96.22783203 -23.06347656 96.22783203 -24.1484375 97.48046875 C-26.39172364 100.02744887 -28.68408061 102.5189259 -31 105 C-31.84691406 105.92425781 -32.69382812 106.84851563 -33.56640625 107.80078125 C-42.06001768 116.83052925 -51.86075184 123.92650066 -62 131 C-62.70688965 131.49338867 -63.4137793 131.98677734 -64.14208984 132.49511719 C-85.08181106 147 -85.08181106 147 -90 147 C-90 147.66 -90 148.32 -90 149 C-91.6232687 149.6708712 -93.24867578 150.33657029 -94.875 151 C-95.77992188 151.37125 -96.68484375 151.7425 -97.6171875 152.125 C-100 153 -100 153 -102 153 C-102 153.66 -102 154.32 -102 155 C-104.16566315 155.93987347 -106.33247931 156.8769273 -108.5 157.8125 C-110.30984375 158.59560547 -110.30984375 158.59560547 -112.15625 159.39453125 C-136.34626101 169.61034321 -169.22354542 181.89207115 -195.6875 181.125 C-196.51636719 181.10695313 -197.34523438 181.08890625 -198.19921875 181.0703125 C-198.79347656 181.04710937 -199.38773438 181.02390625 -200 181 C-199.505 180.01 -199.505 180.01 -199 179 C-199.66 178.34 -200.32 177.68 -201 177 C-200.31413818 176.89042969 -199.62827637 176.78085937 -198.92163086 176.66796875 C-163.38452633 170.8932993 -128.47673875 161.90206131 -96 146 C-95.1642041 145.59168945 -94.3284082 145.18337891 -93.46728516 144.76269531 C-74.16282982 135.22535407 -57.18999551 123.65890497 -41.32421875 109.078125 C-39.73192441 107.65442653 -38.09131745 106.28348596 -36.4140625 104.9609375 C-32.79980905 102.02508761 -29.97715498 98.56393864 -27 95 C-26.35804688 94.24589844 -25.71609375 93.49179687 -25.0546875 92.71484375 C-15.82060331 81.57962457 -9.11037169 69.46652 -4 56 C-3.74025391 55.32936523 -3.48050781 54.65873047 -3.21289062 53.96777344 C2.08906089 39.74518628 3.82607293 21.7785425 0 7 C-0.03888349 4.66699067 -0.0448635 2.33290199 0 0 Z " fill="#E3AE47" transform="translate(1087,285)"/>
<path d="M0 0 C-0.46484375 1.8515625 -0.46484375 1.8515625 -2 4 C-4.89085304 4.98066399 -7.59729772 5.72119744 -10.5625 6.375 C-18.10013823 8.17633479 -25.3212728 10.37066856 -32.56665039 13.12060547 C-35.97710904 14.39216022 -38.30032093 15 -42 15 C-42 15.66 -42 16.32 -42 17 C-42.76570312 17.29390625 -42.76570312 17.29390625 -43.546875 17.59375 C-61.24448067 24.87361616 -76.34092082 38.880095 -90 52 C-90.8971875 52.8559375 -91.794375 53.711875 -92.71875 54.59375 C-98.13018289 59.87156727 -103.05215827 65.4033149 -107.71044922 71.35546875 C-108.62859458 72.52635613 -109.55275454 73.69253784 -110.48095703 74.85546875 C-118.89961917 85.41315037 -126.25903789 96.30392768 -133 108 C-133.43441406 108.74926758 -133.86882813 109.49853516 -134.31640625 110.27050781 C-144.0192574 127.09119678 -151.7002408 144.38095446 -158.80078125 162.4453125 C-160.46009558 166.66554211 -162.18184363 170.84589515 -164 175 C-164.66 175 -165.32 175 -166 175 C-166.35390289 169.23213585 -165.26915897 165.17347493 -163.0625 159.875 C-162.74821045 159.09858154 -162.4339209 158.32216309 -162.11010742 157.5222168 C-161.43329858 155.86131898 -160.74992258 154.20308455 -160.06054688 152.54736328 C-159.01058677 150.02542872 -157.98167681 147.495571 -156.953125 144.96484375 C-145.98267034 118.3390066 -131.86782792 93.5886767 -114 71 C-113.57992676 70.4627832 -113.15985352 69.92556641 -112.72705078 69.37207031 C-91.41563193 42.33506868 -64.7635647 20.44471318 -33 7 C-32.05253906 6.59265625 -31.10507812 6.1853125 -30.12890625 5.765625 C-24.41857512 3.50582881 -18.53377462 2.07018418 -12.5625 0.6875 C-11.78011963 0.50348633 -10.99773926 0.31947266 -10.19165039 0.12988281 C-6.42634267 -0.69532296 -3.68437697 -1.13408847 0 0 Z " fill="#CB9636" transform="translate(961,147)"/>
<path d="M0 0 C0.33 0 0.66 0 1 0 C1.06058594 0.62648438 1.12117187 1.25296875 1.18359375 1.8984375 C1.26738281 2.71570313 1.35117187 3.53296875 1.4375 4.375 C1.51871094 5.18710937 1.59992188 5.99921875 1.68359375 6.8359375 C1.89090114 9.04272805 1.89090114 9.04272805 3 11 C3.31189964 17.25064331 2.45181227 22.91469782 1.20703125 29.02734375 C1.01912521 29.97452774 0.83121918 30.92171173 0.63761902 31.89759827 C0.2386751 33.89774076 -0.16412312 35.89711791 -0.57055664 37.89575195 C-1.17890885 40.89514263 -1.77100221 43.8974069 -2.36132812 46.90039062 C-4.67016065 58.47621144 -7.46160199 69.74138998 -11 81 C-11.62691011 83.10359836 -12.25226668 85.20766139 -12.875 87.3125 C-23.95894423 122.79864556 -38.60023207 163.49724828 -66 190 C-66.33 189.34 -66.66 188.68 -67 188 C-67.99 188.99 -68.98 189.98 -70 191 C-70.66 190.67 -71.32 190.34 -72 190 C-71.56171875 189.54753906 -71.1234375 189.09507812 -70.671875 188.62890625 C-43.73702413 159.668467 -22.61320091 115.90093122 -14.48291016 77.17529297 C-13.87848229 74.45261739 -13.09720057 71.80323476 -12.30029297 69.13183594 C-5.64321569 46.65160205 -2.52917122 23.25432427 0 0 Z " fill="#DCA748" transform="translate(768,553)"/>
<path d="M0 0 C0.99 0 1.98 0 3 0 C2.3851743 6.19115185 1.04332245 11.89147674 -0.625 17.875 C-6.13184182 38.35548247 -11.08994199 59.51963091 -12.76342773 80.69262695 C-13.07848054 83.7654485 -13.54774313 86.81044074 -13.9921875 89.8671875 C-14.76456737 95.53493274 -15.23199757 101.12575489 -15.45703125 106.83984375 C-15.48801407 107.58535995 -15.51899689 108.33087616 -15.55091858 109.09898376 C-15.67429334 112.15464002 -15.79198568 115.20988983 -15.87817383 118.2668457 C-16.36248623 134.53666209 -16.36248623 134.53666209 -22 141 C-22.99 141.33 -23.98 141.66 -25 142 C-25 141.34 -25 140.68 -25 140 C-27.64 140.33 -30.28 140.66 -33 141 C-33.33 140.34 -33.66 139.68 -34 139 C-30.37 139 -26.74 139 -23 139 C-22.22530487 135.12652437 -21.89304114 131.78053369 -21.81103516 127.87158203 C-21.51291093 115.37182956 -20.10185695 103.02970285 -18.625 90.625 C-18.51990112 89.72729889 -18.41480225 88.82959778 -18.30651855 87.9046936 C-17.09662337 77.63288026 -15.66133271 67.47128672 -13.64941406 57.32421875 C-13.06782896 54.34720269 -12.57221598 51.37461938 -12.125 48.375 C-9.40443379 31.91780443 -5.01440445 15.88756324 0 0 Z " fill="#CA9439" transform="translate(792,325)"/>
<path d="M0 0 C5.13128961 1.45585426 9.22805662 3.73096264 13.6875 6.5625 C14.39084473 7.00650146 15.09418945 7.45050293 15.81884766 7.90795898 C21.93655089 11.83717578 27.52996831 16.20952746 33 21 C33.94359375 21.78761719 34.8871875 22.57523438 35.859375 23.38671875 C37.22835938 24.55654297 37.22835938 24.55654297 38.625 25.75 C39.44226562 26.44609375 40.25953125 27.1421875 41.1015625 27.859375 C43.31095008 30.35061861 43.37883223 31.79225083 44 35 C45.95168641 37.82941048 45.95168641 37.82941048 48.375 40.5625 C56 49.51628664 56 49.51628664 56 52 C56.8971875 52.2784375 56.8971875 52.2784375 57.8125 52.5625 C61.10610133 54.72686659 61.75851019 57.33760506 63 61 C63.1875 63.9375 63.1875 63.9375 63 66 C59.32041642 61.41787705 55.69270063 56.7961414 52.06640625 52.171875 C51.60105469 51.57890625 51.13570312 50.9859375 50.65625 50.375 C49.98335937 49.51455078 49.98335937 49.51455078 49.296875 48.63671875 C48.10678211 47.13476417 46.88303252 45.65963902 45.65625 44.1875 C44 42 44 42 44 40 C43.12601563 39.61908203 43.12601563 39.61908203 42.234375 39.23046875 C39.75811967 37.86679667 38.19479374 36.35774797 36.25 34.3125 C32.9413094 30.90504252 29.50813963 27.77640552 25.859375 24.73828125 C24 23 24 23 22.0859375 20.5078125 C19.86904499 17.8425597 17.82660691 16.35669837 14.875 14.5625 C13.91722656 13.9746875 12.95945312 13.386875 11.97265625 12.78125 C10.99167969 12.1934375 10.01070312 11.605625 9 11 C8.02933594 10.4121875 7.05867188 9.824375 6.05859375 9.21875 C3.71121943 7.80297943 1.35869683 6.39679878 -1 5 C-0.34 4.67 0.32 4.34 1 4 C0.67 2.68 0.34 1.36 0 0 Z " fill="#C8912E" transform="translate(1054,162)"/>
<path d="M0 0 C1.60872253 0.00503589 3.21744663 0.00959502 4.82617188 0.01367188 C8.69665461 0.02448719 12.56705896 0.04163076 16.4375 0.0625 C16.4375 0.7225 16.4375 1.3825 16.4375 2.0625 C15.8290625 2.03929687 15.220625 2.01609375 14.59375 1.9921875 C9.00844465 1.87719592 3.66795081 2.22833491 -1.8671875 2.99609375 C-7.60652023 3.75656558 -13.32326162 4.31225978 -19.1015625 4.66796875 C-52.12590659 6.74339906 -86.29838972 11.27222278 -117.60400391 22.48461914 C-120.29161914 23.2776365 -122.78520311 23.27613822 -125.5625 23.0625 C-108.9367288 8.7153878 -74.96261876 7.07875063 -53.75 3.6875 C-52.96524292 3.56012451 -52.18048584 3.43274902 -51.37194824 3.30151367 C-34.227342 0.54650006 -17.34165503 -0.09645374 0 0 Z " fill="#E0AC43" transform="translate(734.5625,464.9375)"/>
<path d="M0 0 C2.49118953 3.7367843 2.2065226 5.74451819 2.125 10.1875 C2.10695313 11.45980469 2.08890625 12.73210937 2.0703125 14.04296875 C2.04710937 15.01878906 2.02390625 15.99460937 2 17 C3.32 17.66 4.64 18.32 6 19 C3.03 19.495 3.03 19.495 0 20 C0 20.99 0 21.98 0 23 C-6.27681633 25.37688265 -12.45044429 27.51708173 -19 29 C-19.13664063 29.5878125 -19.27328125 30.175625 -19.4140625 30.78125 C-20.72988911 35.76384675 -22.83328871 39.96964018 -26 44 C-26.33 44.99 -26.66 45.98 -27 47 C-27 46.34 -27 45.68 -27 45 C-27.74765625 45.01160156 -28.4953125 45.02320313 -29.265625 45.03515625 C-30.74289062 45.04869141 -30.74289062 45.04869141 -32.25 45.0625 C-33.22453125 45.07410156 -34.1990625 45.08570313 -35.203125 45.09765625 C-37.65758678 45.01195577 -39.66168914 44.70706066 -42 44 C-42 43.34 -42 42.68 -42 42 C-41.11957031 42.00902344 -40.23914063 42.01804687 -39.33203125 42.02734375 C-32.80422203 42.0893188 -32.80422203 42.0893188 -27.05859375 39.515625 C-24.88600934 36.48049215 -23.8025182 33.63540745 -23 30 C-30.33763707 28.82597807 -37.58165418 28.90622877 -45 29 C-42.80577223 23.22123635 -42.80577223 23.22123635 -40 21 C-39.34 21 -38.68 21 -38 21 C-38 22.98 -38 24.96 -38 27 C-28.45752197 26.50759455 -22.68566932 25.27558132 -16 18 C-15.34 18.33 -14.68 18.66 -14 19 C-13.67 18.01 -13.34 17.02 -13 16 C-11.700625 16.5259375 -11.700625 16.5259375 -10.375 17.0625 C-6.71995194 18.07779113 -4.66033377 17.73309206 -1 17 C-1.01160156 15.94039063 -1.02320313 14.88078125 -1.03515625 13.7890625 C-1.04453476 12.40104342 -1.05363489 11.01302245 -1.0625 9.625 C-1.07087891 8.92632812 -1.07925781 8.22765625 -1.08789062 7.5078125 C-1.11328125 2.2265625 -1.11328125 2.2265625 0 0 Z " fill="#D0A556" transform="translate(802,448)"/>
<path d="M0 0 C1.9375 0.5625 1.9375 0.5625 4 2 C5.37123535 9.03969382 5.18388893 16.10731071 5.1875 23.25 C5.19974609 24.50941406 5.21199219 25.76882813 5.22460938 27.06640625 C5.24283511 38.76732785 3.52034191 48.68603191 -0.75 59.5625 C-1.10416992 60.47491455 -1.45833984 61.3873291 -1.82324219 62.32739258 C-8.20917418 78.40882773 -8.20917418 78.40882773 -13.171875 81.23828125 C-13.77515625 81.48964844 -14.3784375 81.74101562 -15 82 C-14.39677924 77.36939356 -12.415396 73.68524093 -10.25 69.625 C-6.28852677 61.96106611 -3.38795165 54.29304139 -1 46 C-0.63003906 44.81921875 -0.26007813 43.6384375 0.12109375 42.421875 C1.57755612 36.46388102 1.24953623 30.342611 1.1875 24.25 C1.18685547 23.03183594 1.18621094 21.81367188 1.18554688 20.55859375 C1.18539145 13.7053044 1.18539145 13.7053044 0 7 C-0.03888349 4.66699067 -0.0448635 2.33290199 0 0 Z " fill="#DEA94D" transform="translate(1087,285)"/>
<path d="M0 0 C0.7409668 1.72192383 0.7409668 1.72192383 1 4 C-0.53198242 6.1472168 -0.53198242 6.1472168 -2.85546875 8.44921875 C-4.12269775 9.71572266 -4.12269775 9.71572266 -5.41552734 11.0078125 C-6.78765381 12.33425781 -6.78765381 12.33425781 -8.1875 13.6875 C-9.56349365 15.03908203 -9.56349365 15.03908203 -10.96728516 16.41796875 C-17.2821031 22.54250759 -23.64712576 28.14389614 -31 33 C-32.05445313 33.7321875 -33.10890625 34.464375 -34.1953125 35.21875 C-37 37 -37 37 -39 37 C-39.33 37.99 -39.66 38.98 -40 40 C-42.6171875 41.640625 -42.6171875 41.640625 -45.875 43.25 C-46.94492187 43.79140625 -48.01484375 44.3328125 -49.1171875 44.890625 C-52 46 -52 46 -55 45 C-54.34 45 -53.68 45 -53 45 C-53 44.01 -53 43.02 -53 42 C-53.99 41.67 -54.98 41.34 -56 41 C-55.030625 40.55011719 -54.06125 40.10023438 -53.0625 39.63671875 C-36.77600968 31.90078974 -23.54234861 22.11781525 -10.640625 9.57568359 C-7.19802271 6.26935098 -3.59573526 3.13774188 0 0 Z " fill="#CA983C" transform="translate(701,740)"/>
<path d="M0 0 C1.32 0.66 2.64 1.32 4 2 C-1.7487174 10.00562127 -7.81862598 17.4347751 -14.62792969 24.55615234 C-15.92770212 25.92391999 -17.20293773 27.31488304 -18.4765625 28.70703125 C-28.75179774 39.57078616 -41.24075034 48.27919782 -54 56 C-54.33 54.68 -54.66 53.36 -55 52 C-53.87464844 51.27296875 -53.87464844 51.27296875 -52.7265625 50.53125 C-42.91200048 44.10357714 -33.97206475 37.02556694 -25.32421875 29.078125 C-23.73192441 27.65442653 -22.09131745 26.28348596 -20.4140625 24.9609375 C-12.36962761 18.42646127 -5.14346035 8.93755611 0 0 Z " fill="#E3B14D" transform="translate(1071,365)"/>
<path d="M0 0 C-0.46484375 1.8515625 -0.46484375 1.8515625 -2 4 C-4.89085304 4.98066399 -7.59729772 5.72119744 -10.5625 6.375 C-18.10013823 8.17633479 -25.3212728 10.37066856 -32.56665039 13.12060547 C-35.97710904 14.39216022 -38.30032093 15 -42 15 C-42 15.66 -42 16.32 -42 17 C-44.64 17.66 -47.28 18.32 -50 19 C-50 17.68 -50 16.36 -50 15 C-37.70958171 9.06371356 -25.90791853 3.7777111 -12.5625 0.6875 C-11.78011963 0.50348633 -10.99773926 0.31947266 -10.19165039 0.12988281 C-6.42634267 -0.69532296 -3.68437697 -1.13408847 0 0 Z " fill="#BF8E36" transform="translate(961,147)"/>
<path d="M0 0 C0.33 0 0.66 0 1 0 C1.07564499 9.65734388 0.56005274 19.25456102 -0.00708008 28.89282227 C-0.12743379 31.0072367 -0.23875272 33.12218462 -0.34106445 35.23754883 C-0.49087092 38.31754116 -0.67012587 41.39462206 -0.85546875 44.47265625 C-0.91519112 45.87766136 -0.91519112 45.87766136 -0.97612 47.31105042 C-1.3884672 53.46884519 -2.75666949 58.34360319 -7 63 C-8.485 63.495 -8.485 63.495 -10 64 C-10 63.34 -10 62.68 -10 62 C-12.64 62.33 -15.28 62.66 -18 63 C-18.33 62.34 -18.66 61.68 -19 61 C-15.37 61 -11.74 61 -8 61 C-7.32240991 57.61204956 -6.87031312 54.99611213 -6.7890625 51.6484375 C-6.74966553 50.39075562 -6.74966553 50.39075562 -6.70947266 49.10766602 C-6.68159668 48.20588623 -6.6537207 47.30410645 -6.625 46.375 C-6.27504904 37.40082085 -5.5721728 28.49316014 -4.625 19.5625 C-4.45411865 17.84909424 -4.45411865 17.84909424 -4.27978516 16.10107422 C-3.6211097 10.1853068 -2.73373471 5.30711069 0 0 Z " fill="#BF8F3B" transform="translate(777,403)"/>
<path d="M0 0 C0.66 0 1.32 0 2 0 C3.18238016 4.12704567 2.85174276 6.17254182 0.97265625 10 C0.51358887 10.96019043 0.05452148 11.92038086 -0.41845703 12.90966797 C-0.91974121 13.92947754 -1.42102539 14.94928711 -1.9375 16 C-6.96956269 26.56069988 -11.33912069 37.23252926 -15.32666016 48.22607422 C-16 50 -16 50 -17 52 C-17.66 52 -18.32 52 -19 52 C-19.35393797 46.23156411 -18.26835496 42.17428693 -16.0625 36.875 C-15.75473633 36.1109082 -15.44697266 35.34681641 -15.12988281 34.55957031 C-14.10370788 32.0322713 -13.05529132 29.51527492 -12 27 C-11.61505371 26.08057617 -11.23010742 25.16115234 -10.83349609 24.21386719 C-3.51860421 6.81451195 -3.51860421 6.81451195 0 0 Z " fill="#D59F41" transform="translate(814,270)"/>
<path d="M0 0 C1.63234937 0.90351441 3.25566824 1.8233569 4.875 2.75 C6.23238281 3.51570312 6.23238281 3.51570312 7.6171875 4.296875 C10.15940597 6.11393607 10.68040149 7.27209048 12 10 C13.87374219 11.12450781 13.87374219 11.12450781 16 12 C24.06955945 17.1023479 29.74336726 24.15346052 35 32 C35 32.66 35 33.32 35 34 C35.8971875 34.2784375 35.8971875 34.2784375 36.8125 34.5625 C40.10610133 36.72686659 40.75851019 39.33760506 42 43 C42.1875 45.9375 42.1875 45.9375 42 48 C38.32041642 43.41787705 34.69270063 38.7961414 31.06640625 34.171875 C30.60105469 33.57890625 30.13570312 32.9859375 29.65625 32.375 C29.20765625 31.80136719 28.7590625 31.22773438 28.296875 30.63671875 C27.10678211 29.13476417 25.88303252 27.65963902 24.65625 26.1875 C23 24 23 24 23 22 C22.12601563 21.61908203 22.12601563 21.61908203 21.234375 21.23046875 C18.75811967 19.86679667 17.19479374 18.35774797 15.25 16.3125 C11.89641662 12.86489092 8.41813999 9.66538932 4.76171875 6.54296875 C3.09127006 5.07993719 1.47726701 3.65908448 0 2 C0 1.34 0 0.68 0 0 Z " fill="#DAA32D" transform="translate(1075,180)"/>
<path d="M0 0 C-0.68652344 2.40332031 -0.68652344 2.40332031 -2 5 C-4.24316406 6.01074219 -4.24316406 6.01074219 -7.015625 6.546875 C-8.01980469 6.75183594 -9.02398438 6.95679688 -10.05859375 7.16796875 C-11.11175781 7.36003906 -12.16492188 7.55210937 -13.25 7.75 C-14.28769531 7.95753906 -15.32539062 8.16507812 -16.39453125 8.37890625 C-19.25879079 8.94590527 -22.12693438 9.47975968 -25 10 C-26.68222656 10.31517578 -26.68222656 10.31517578 -28.3984375 10.63671875 C-31.09361719 11.01307267 -33.65551913 11.09924974 -36.375 11.0625 C-37.68597656 11.04896484 -37.68597656 11.04896484 -39.0234375 11.03515625 C-40.00183594 11.01775391 -40.00183594 11.01775391 -41 11 C-40.67 10.34 -40.34 9.68 -40 9 C-40.66 8.34 -41.32 7.68 -42 7 C-41.18845459 6.85900879 -40.37690918 6.71801758 -39.54077148 6.57275391 C-36.50052383 6.04271287 -33.46089442 5.50928557 -30.42163086 4.97363281 C-28.47099171 4.63088485 -26.51968008 4.2919712 -24.56835938 3.953125 C-23.32763672 3.73398437 -22.08691406 3.51484375 -20.80859375 3.2890625 C-19.67220459 3.09006348 -18.53581543 2.89106445 -17.36499023 2.68603516 C-13.92359288 2.03260131 -13.92359288 2.03260131 -10.32055664 0.92724609 C-6.74282871 -0.07181358 -3.69612667 -0.15086231 0 0 Z " fill="#D9A642" transform="translate(928,455)"/>
<path d="M0 0 C1.60872253 0.00503589 3.21744663 0.00959502 4.82617188 0.01367188 C8.69665461 0.02448719 12.56705896 0.04163076 16.4375 0.0625 C16.4375 0.7225 16.4375 1.3825 16.4375 2.0625 C15.8290625 2.03929687 15.220625 2.01609375 14.59375 1.9921875 C8.32821461 1.86319118 2.32289415 2.37662504 -3.88500977 3.20605469 C-19.10051249 5.21574917 -34.21230118 6.42895037 -49.5625 6.0625 C-47.5625 4.0625 -47.5625 4.0625 -43.9375 3.9375 C-42.266875 3.999375 -42.266875 3.999375 -40.5625 4.0625 C-40.5625 3.4025 -40.5625 2.7425 -40.5625 2.0625 C-36.36535716 1.09696962 -32.19855103 0.74375948 -27.91015625 0.50390625 C-27.17015884 0.46165421 -26.43016144 0.41940216 -25.66773987 0.37586975 C-17.11242266 -0.07066094 -8.56420449 -0.04763384 0 0 Z " fill="#D8A339" transform="translate(734.5625,464.9375)"/>
<path d="M0 0 C0.99 0.33 1.98 0.66 3 1 C2.4782779 6.06956377 0.00987453 9.63264374 -2.6875 13.8125 C-3.14157227 14.52664063 -3.59564453 15.24078125 -4.06347656 15.9765625 C-7.17055912 20.82210537 -10.43077034 25.48300879 -14 30 C-15.12832501 31.49750047 -16.25334168 32.99749955 -17.375 34.5 C-18.25 35.66666667 -19.125 36.83333333 -20 38 C-20.66 37.34 -21.32 36.68 -22 36 C-22.99 36.99 -23.98 37.98 -25 39 C-25.66 38.67 -26.32 38.34 -27 38 C-26.56171875 37.54753906 -26.1234375 37.09507812 -25.671875 36.62890625 C-15.51069377 25.70357115 -7.14857689 13.06377256 0 0 Z " fill="#D5A040" transform="translate(723,705)"/>
<path d="M0 0 C-1.6211752 3.2423504 -5.11799346 3.97275918 -8.3125 5.375 C-16.44318991 9.04539051 -24.00179331 13.43261166 -31.57348633 18.13818359 C-32.38325928 18.63914551 -33.19303223 19.14010742 -34.02734375 19.65625 C-34.74656006 20.10806641 -35.46577637 20.55988281 -36.20678711 21.02539062 C-38 22 -38 22 -40 22 C-38.70948995 17.97240423 -37.52579576 16.23984147 -33.88671875 14.09765625 C-33.05664307 13.60225342 -32.22656738 13.10685059 -31.37133789 12.59643555 C-30.04283813 11.83713745 -30.04283813 11.83713745 -28.6875 11.0625 C-27.78700928 10.53760986 -26.88651855 10.01271973 -25.95874023 9.47192383 C-6.28396694 -1.85895937 -6.28396694 -1.85895937 0 0 Z " fill="#E0AD49" transform="translate(576,502)"/>
<path d="M0 0 C0.99 0 1.98 0 3 0 C2.99476318 0.61818604 2.98952637 1.23637207 2.98413086 1.87329102 C2.89549007 13.96322124 2.93400843 25.9504882 4 38 C3.34 38 2.68 38 2 38 C1.67 39.32 1.34 40.64 1 42 C-1.00431214 33.270738 -1.27281445 24.86857552 -1.1875 15.9375 C-1.18685547 14.62072266 -1.18621094 13.30394531 -1.18554688 11.94726562 C-1.14077516 2.28155032 -1.14077516 2.28155032 0 0 Z " fill="#DEA339" transform="translate(436,664)"/>
<path d="M0 0 C5.00600922 0.54681024 8.97181067 2.24140333 13.375 4.5625 C14.01566406 4.89185547 14.65632813 5.22121094 15.31640625 5.56054688 C16.88138632 6.36639482 18.44124021 7.18218493 20 8 C19.34 9.65 18.68 11.3 18 13 C19.32 14.32 20.64 15.64 22 17 C18.51408734 15.69818129 15.46317906 14.16123118 12.3125 12.1875 C7.34785919 9.14899051 2.24313398 6.52116655 -3 4 C-2.01 3.34 -1.02 2.68 0 2 C0 1.34 0 0.68 0 0 Z " fill="#EAB541" transform="translate(1020,198)"/>
<path d="M0 0 C0.66 0.33 1.32 0.66 2 1 C0.02 3.97 0.02 3.97 -2 7 C-2.99 6.67 -3.98 6.34 -5 6 C-5.09152344 6.58136719 -5.18304688 7.16273438 -5.27734375 7.76171875 C-6.17872698 10.55357059 -7.45340627 11.78595397 -9.5625 13.8125 C-10.28179687 14.50601563 -11.00109375 15.19953125 -11.7421875 15.9140625 C-14.5051349 18.46668173 -17.31937302 20.9484878 -20.18359375 23.38671875 C-21.82857921 24.84774885 -23.27953968 26.36765415 -24.75 28 C-25.4925 28.66 -26.235 29.32 -27 30 C-29.140625 29.625 -29.140625 29.625 -31 29 C-28.03839454 25.98830885 -25.06978089 22.98374278 -22.0949707 19.98510742 C-21.0875653 18.96775154 -20.08197423 17.94859526 -19.07836914 16.92749023 C-13.05955651 10.80651104 -6.97864847 5.04395205 0 0 Z " fill="#E1AF4C" transform="translate(511,538)"/>
<path d="M0 0 C0 0.99 0 1.98 0 3 C-0.66 3 -1.32 3 -2 3 C-2 3.66 -2 4.32 -2 5 C-9.73720293 8.78263254 -18.36896169 10.71925319 -27 10 C-27.99 9.34 -28.98 8.68 -30 8 C-25.68167267 6.50058079 -21.39103858 5.04476651 -16.9375 4 C-14.11305971 3.33608774 -11.50549039 2.45421338 -8.8125 1.375 C-5.75609011 0.17534405 -3.3226067 -0.31149438 0 0 Z " fill="#BD8930" transform="translate(648,782)"/>
<path d="M0 0 C1.9375 0.5625 1.9375 0.5625 4 2 C4.92828382 6.69600261 5.11888386 11.25113185 5.09765625 16.02734375 C5.09443359 17.31318359 5.09121094 18.59902344 5.08789062 19.92382812 C5.07953802 21.26171945 5.07107311 22.59961007 5.0625 23.9375 C5.05747659 25.30273274 5.05291517 26.66796726 5.04882812 28.03320312 C5.03708851 31.35551457 5.02066679 34.67773408 5 38 C3.515 38.495 3.515 38.495 2 39 C1.97494385 38.17274414 1.9498877 37.34548828 1.92407227 36.49316406 C1.80803651 32.74528808 1.685344 28.99765875 1.5625 25.25 C1.52318359 23.94804687 1.48386719 22.64609375 1.44335938 21.3046875 C1.40146484 20.05429687 1.35957031 18.80390625 1.31640625 17.515625 C1.27974854 16.36352539 1.24309082 15.21142578 1.20532227 14.02441406 C1.03413236 11.5027725 0.64152271 9.4211578 0 7 C-0.03888349 4.66699067 -0.0448635 2.33290199 0 0 Z " fill="#D29428" transform="translate(1087,285)"/>
<path d="M0 0 C0.33 0.66 0.66 1.32 1 2 C0.06553465 4.03144641 -0.93224776 6.03533587 -2 8 C0.31 8 2.62 8 5 8 C4.67 9.65 4.34 11.3 4 13 C4.66 13.33 5.32 13.66 6 14 C2.22777911 15.75163456 -0.666639 16.22490027 -4.8125 16.125 C-6.27623047 16.09792969 -6.27623047 16.09792969 -7.76953125 16.0703125 C-8.50558594 16.04710937 -9.24164062 16.02390625 -10 16 C-10.4375 13.3125 -10.4375 13.3125 -10 10 C-8.36592968 8.49770954 -6.6397093 7.40770337 -4.7578125 6.234375 C-2.38589826 4.56876411 -1.25188045 2.57740093 0 0 Z " fill="#E1C58C" transform="translate(774,459)"/>
<path d="M0 0 C0.33 1.32 0.66 2.64 1 4 C1.66 4 2.32 4 3 4 C0.68860831 12.61703042 -2.60795466 20.76688023 -6 29 C-6.66 28.34 -7.32 27.68 -8 27 C-8.66 27.33 -9.32 27.66 -10 28 C-7.91037654 21.59162763 -5.6602938 15.25546703 -3.3125 8.9375 C-2.99216797 8.07189453 -2.67183594 7.20628906 -2.34179688 6.31445312 C-1.56248716 4.20915373 -0.78187196 2.10434886 0 0 Z " fill="#E0AD4E" transform="translate(746,653)"/>
<path d="M0 0 C1 3 1 3 0.24316406 4.98950195 C-0.16192383 5.73159912 -0.56701172 6.47369629 -0.984375 7.23828125 C-1.42523438 8.05876953 -1.86609375 8.87925781 -2.3203125 9.72460938 C-2.79210937 10.57861328 -3.26390625 11.43261719 -3.75 12.3125 C-4.66187736 13.99586683 -5.57334505 15.67945566 -6.484375 17.36328125 C-6.91814453 18.15814941 -7.35191406 18.95301758 -7.79882812 19.77197266 C-9.2621645 22.48628317 -10.64460383 25.23047383 -12 28 C-12.66 28 -13.32 28 -14 28 C-13.56346632 21.54803215 -11.18265739 16.82207829 -8.125 11.1875 C-7.45404297 9.90069336 -7.45404297 9.90069336 -6.76953125 8.58789062 C-3.39619582 2.26413055 -3.39619582 2.26413055 0 0 Z " fill="#E3B04E" transform="translate(461,595)"/>
<path d="M0 0 C0.33 0 0.66 0 1 0 C1.11689626 3.37470504 1.18747934 6.7488843 1.25 10.125 C1.30027344 11.55199219 1.30027344 11.55199219 1.3515625 13.0078125 C1.43462502 18.98831411 1.09630315 22.50585446 -3 27 C-3.99 27.33 -4.98 27.66 -6 28 C-6 27.34 -6 26.68 -6 26 C-9.96 26.495 -9.96 26.495 -14 27 C-14.33 26.34 -14.66 25.68 -15 25 C-11.37 25 -7.74 25 -4 25 C-2.97871004 19.89355021 -2.67593543 14.97258934 -2.48242188 9.79492188 C-2.29756397 6.08032436 -2.03350897 3.16963948 0 0 Z " fill="#BD8122" transform="translate(773,439)"/>
<path d="M0 0 C3.71424647 1.32792529 6.57638521 2.95583095 9.6875 5.375 C10.45449219 5.96023438 11.22148437 6.54546875 12.01171875 7.1484375 C14.02426858 9.02259981 14.82631387 10.55956012 16 13 C18.47130918 14.15521502 18.47130918 14.15521502 21 15 C23 17 23 17 23 20 C19.08171498 18.29055213 15.85081127 15.73118655 12.5 13.125 C11.93152344 12.69058594 11.36304688 12.25617187 10.77734375 11.80859375 C7.64492249 9.38841677 4.62468521 6.97207002 2 4 C2 3.34 2 2.68 2 2 C1.34 2 0.68 2 0 2 C0 1.34 0 0.68 0 0 Z " fill="#EAB236" transform="translate(482,787)"/>
<path d="M0 0 C0.33 0 0.66 0 1 0 C1.2756877 5.42185809 1.34110491 8.50235878 -2 13 C-4.10232344 15.8684413 -4.10232344 15.8684413 -5 19 C-5 18.34 -5 17.68 -5 17 C-6.12148438 17.01740234 -6.12148438 17.01740234 -7.265625 17.03515625 C-8.25046875 17.04417969 -9.2353125 17.05320312 -10.25 17.0625 C-11.71179688 17.07990234 -11.71179688 17.07990234 -13.203125 17.09765625 C-15.65758678 17.01195577 -17.66168914 16.70706066 -20 16 C-20 15.34 -20 14.68 -20 14 C-19.11957031 14.00902344 -18.23914063 14.01804687 -17.33203125 14.02734375 C-10.84402991 14.08234889 -10.84402991 14.08234889 -5.09375 11.5859375 C-2.55844802 8.07670854 -1.11986633 4.17404724 0 0 Z " fill="#D6AA55" transform="translate(780,476)"/>
<path d="M0 0 C0.2475 0.515625 0.495 1.03125 0.75 1.5625 C1.91409288 3.91062614 1.91409288 3.91062614 3.05859375 5.71875 C4.11080866 7.43724632 5.06016693 9.21755797 6 11 C4.7820245 14.65392651 3.85603494 14.95831699 0.5625 16.75 C-0.24058594 17.19859375 -1.04367187 17.6471875 -1.87109375 18.109375 C-2.92490234 18.55023437 -2.92490234 18.55023437 -4 19 C-4.66 18.67 -5.32 18.34 -6 18 C-5.34515625 17.47921875 -4.6903125 16.9584375 -4.015625 16.421875 C-1.3482902 13.21693783 -1.58566289 11.35842763 -1.75 7.25 C-1.78609375 6.07953125 -1.8221875 4.9090625 -1.859375 3.703125 C-1.90578125 2.81109375 -1.9521875 1.9190625 -2 1 C-1.34 0.67 -0.68 0.34 0 0 Z " fill="#DCB15B" transform="translate(779,494)"/>
<path d="M0 0 C1.32 0.33 2.64 0.66 4 1 C2.62211705 3.9469554 1.02522155 6.47050895 -0.9375 9.0625 C-1.44152344 9.73410156 -1.94554687 10.40570312 -2.46484375 11.09765625 C-3.88503966 12.85754279 -5.36860486 14.43678256 -7 16 C-7.33 15.34 -7.66 14.68 -8 14 C-8.99 14.99 -9.98 15.98 -11 17 C-11.66 16.67 -12.32 16.34 -13 16 C-12.48050781 15.43152344 -11.96101562 14.86304688 -11.42578125 14.27734375 C-7.28691701 9.69475654 -3.47530782 5.10435836 0 0 Z " fill="#D7A648" transform="translate(709,727)"/>
<path d="M0 0 C0.26077333 6.78010656 -0.35516769 13.40036418 -2 20 C-2.66 20.66 -3.32 21.32 -4 22 C-5.1482685 19.703463 -5.11561175 18.41686833 -5.09765625 15.8671875 C-5.09443359 15.06152344 -5.09121094 14.25585938 -5.08789062 13.42578125 C-5.07951172 12.58402344 -5.07113281 11.74226562 -5.0625 10.875 C-5.05798828 10.02550781 -5.05347656 9.17601562 -5.04882812 8.30078125 C-5.03702874 6.20049091 -5.01909306 4.1002367 -5 2 C-1.125 0 -1.125 0 0 0 Z " fill="#D19A38" transform="translate(774,542)"/>
<path d="M0 0 C1.9375 0.5 1.9375 0.5 4 2 C4.64408886 4.67074779 4.78153131 7.2472945 5 10 C5.33 10.33 5.66 10.66 6 11 C6.07258946 13.18639453 6.08373783 15.37500389 6.0625 17.5625 C6.05347656 18.76003906 6.04445313 19.95757813 6.03515625 21.19140625 C6.02355469 22.11824219 6.01195312 23.04507813 6 24 C1.63943196 19.63943196 0.31584924 11.31163139 -0.2578125 5.296875 C-0.25145385 3.52917127 -0.14096684 1.76208548 0 0 Z " fill="#DDA43C" transform="translate(438,707)"/>
<path d="M0 0 C-0.6015625 1.91796875 -0.6015625 1.91796875 -2 4 C-4.8984375 4.86328125 -4.8984375 4.86328125 -8.375 5.3125 C-9.51710938 5.47363281 -10.65921875 5.63476562 -11.8359375 5.80078125 C-14.59567833 5.97454271 -16.4172976 5.8842257 -19 5 C-16.45400643 1.18100965 -15.01829697 1.21751259 -10.625 0.25 C-9.48289062 -0.01296875 -8.34078125 -0.2759375 -7.1640625 -0.546875 C-4.28566948 -0.95908931 -2.68669332 -0.97938574 0 0 Z " fill="#B78226" transform="translate(961,147)"/>
<path d="M0 0 C0.66 0 1.32 0 2 0 C2.10787818 2.77186988 2.18723327 5.53955537 2.25 8.3125 C2.28351562 9.09818359 2.31703125 9.88386719 2.3515625 10.69335938 C2.38855392 12.86660547 2.38367634 14.85969901 2 17 C-0.015625 19.04296875 -0.015625 19.04296875 -2 20 C-2.12074853 13.57349465 -1.90984106 7.36888739 -1 1 C-0.67 0.67 -0.34 0.34 0 0 Z " fill="#C8881E" transform="translate(772,525)"/>
<path d="M0 0 C1.98 0.66 3.96 1.32 6 2 C-0.525 8.8875 -0.525 8.8875 -5.75 9.125 C-6.4925 9.08375 -7.235 9.0425 -8 9 C-6.70700306 6.11562221 -5.34058637 4.12780579 -3 2 C-2.34 2.33 -1.68 2.66 -1 3 C-0.67 2.01 -0.34 1.02 0 0 Z " fill="#CA9C4B" transform="translate(789,464)"/>
<path d="M0 0 C0.33 0 0.66 0 1 0 C1.20272358 10.02355489 0.58039956 19.99847189 0 30 C-0.33 30 -0.66 30 -1 30 C-1.33 24.06 -1.66 18.12 -2 12 C-2.66 12.99 -3.32 13.98 -4 15 C-3.67 10.38 -3.34 5.76 -3 1 C-2.34 2.32 -1.68 3.64 -1 5 C-0.67 3.35 -0.34 1.7 0 0 Z " fill="#C69542" transform="translate(775,428)"/>
<path d="M0 0 C6.27 0 12.54 0 19 0 C19 0.66 19 1.32 19 2 C13.72 2 8.44 2 3 2 C6.69928131 5.74568157 6.69928131 5.74568157 11 8 C10.01 8.495 10.01 8.495 9 9 C5.54912004 7.21293716 2.74146784 5.74146784 0 3 C0 2.01 0 1.02 0 0 Z " fill="#C8963C" transform="translate(833,469)"/>
<path d="M0 0 C0.66 0 1.32 0 2 0 C0.23570801 4.97209562 -2.3939166 9.43438061 -5 14 C-5.66 14 -6.32 14 -7 14 C-7.061875 14.7425 -7.12375 15.485 -7.1875 16.25 C-8.24185138 19.8185739 -9.99909773 20.92245228 -13 23 C-11.48512707 17.3552949 -8.66876226 12.95592954 -5.5 8.125 C-5.00113281 7.34125 -4.50226562 6.5575 -3.98828125 5.75 C-3.50746094 5.01007813 -3.02664063 4.27015625 -2.53125 3.5078125 C-2.09361328 2.83379395 -1.65597656 2.15977539 -1.20507812 1.46533203 C-0.80740234 0.98177246 -0.40972656 0.49821289 0 0 Z " fill="#F6E9CF" transform="translate(840,234)"/>
<path d="M0 0 C0.66 0.33 1.32 0.66 2 1 C0.50589642 4.80700968 -1.6186877 6.49761624 -4.9375 8.8125 C-5.81277344 9.43769531 -6.68804688 10.06289063 -7.58984375 10.70703125 C-8.78287109 11.34705078 -8.78287109 11.34705078 -10 12 C-10.99 11.67 -11.98 11.34 -13 11 C-9.41458342 6.18209648 -5.56765319 2.47041566 0 0 Z " fill="#DFAD4F" transform="translate(529,525)"/>
<path d="M0 0 C1.515625 1.1953125 1.515625 1.1953125 3 3 C3.109375 5.3046875 3.109375 5.3046875 2.75 7.875 C2.57404297 9.19757812 2.57404297 9.19757812 2.39453125 10.546875 C1.9923204 13.0477504 1.57573491 15.53256466 1 18 C0.34 16.68 -0.32 15.36 -1 14 C-1.99 14.495 -1.99 14.495 -3 15 C-2.44854729 9.76119922 -1.57077907 5.02649303 0 0 Z " fill="#E5B962" transform="translate(441,635)"/>
<path d="M0 0 C0.33 1.32 0.66 2.64 1 4 C1.66 4 2.32 4 3 4 C2.71831703 5.95979427 2.42433283 7.91782378 2.125 9.875 C1.96257813 10.96554687 1.80015625 12.05609375 1.6328125 13.1796875 C1 16 1 16 -1 18 C-1 17.34 -1 16.68 -1 16 C-1.66 16 -2.32 16 -3 16 C-2.30834212 10.58201328 -1.24200752 5.3177215 0 0 Z " fill="#E1AD50" transform="translate(761,601)"/>
<path d="M0 0 C0.66 0.66 1.32 1.32 2 2 C1.60167969 2.54527344 1.20335937 3.09054687 0.79296875 3.65234375 C-2.89984877 8.90854387 -5.32856508 13.79809675 -7 20 C-8.32 18.68 -9.64 17.36 -11 16 C-10.4225 15.54625 -9.845 15.0925 -9.25 14.625 C-6.48906147 11.40390504 -5.40212611 8.21902575 -4.02734375 4.2421875 C-3 2 -3 2 0 0 Z " fill="#DEBD7B" transform="translate(786,475)"/>
<path d="M0 0 C0.33 0 0.66 0 1 0 C0.6083965 5.95507399 -0.37124595 10.62819824 -3 16 C-3.66 16 -4.32 16 -5 16 C-4.24228029 4.24228029 -4.24228029 4.24228029 0 0 Z " fill="#DEA740" transform="translate(752,641)"/>
<path d="M0 0 C-1 3 -1 3 -3.6171875 4.421875 C-5.22980469 5.07929688 -5.22980469 5.07929688 -6.875 5.75 C-8.47988281 6.42289062 -8.47988281 6.42289062 -10.1171875 7.109375 C-13 8 -13 8 -16 7 C-11.77028022 2.09352505 -6.55854758 -0.5962316 0 0 Z " fill="#E0AB43" transform="translate(594,493)"/>
<path d="M0 0 C0.33 0 0.66 0 1 0 C2.05619003 4.28297531 2.11702092 8.42985646 2.0625 12.8125 C2.05798828 13.50537109 2.05347656 14.19824219 2.04882812 14.91210938 C2.03713156 16.60811068 2.01919924 18.30406703 2 20 C1.34 18.68 0.68 17.36 0 16 C-0.33 17.65 -0.66 19.3 -1 21 C-1.33 21 -1.66 21 -2 21 C-2.28100502 13.83437211 -1.20443195 7.05453001 0 0 Z " fill="#C79D4B" transform="translate(777,388)"/>
<path d="M0 0 C0.99 0 1.98 0 3 0 C2.44854729 5.23880078 1.57077907 9.97350697 0 15 C-0.99 15 -1.98 15 -3 15 C-4.57156655 11.8568669 -3.11705576 9.634536 -2.0625 6.375 C-1.68222656 5.18648438 -1.30195312 3.99796875 -0.91015625 2.7734375 C-0.60980469 1.85820312 -0.30945313 0.94296875 0 0 Z " fill="#D59F43" transform="translate(792,325)"/>
<path d="M0 0 C0.33 1.32 0.66 2.64 1 4 C1.66 4 2.32 4 3 4 C2.22092044 7.43301724 1.37574553 10.75410038 0 14 C-2.6875 15.625 -2.6875 15.625 -5 16 C-3.41078475 10.63904723 -1.81027062 5.29156027 0 0 Z " fill="#E5B557" transform="translate(746,653)"/>
<path d="M0 0 C0.99 1.485 0.99 1.485 2 3 C2.99 3 3.98 3 5 3 C4.67 3.33 4.34 3.66 4 4 C3.76298761 6.85877909 3.57780818 9.69883297 3.4375 12.5625 C3.39431641 13.36880859 3.35113281 14.17511719 3.30664062 15.00585938 C3.20024738 17.00368805 3.09959112 19.0018207 3 21 C2.34 21.33 1.68 21.66 1 22 C0.67 14.74 0.34 7.48 0 0 Z " fill="#D6A546" transform="translate(801,515)"/>
<path d="M0 0 C2.49118953 3.7367843 2.2065226 5.74451819 2.125 10.1875 C2.10695313 11.45980469 2.08890625 12.73210937 2.0703125 14.04296875 C2.03550781 15.50669922 2.03550781 15.50669922 2 17 C3.32 17.66 4.64 18.32 6 19 C4.68 19.33 3.36 19.66 2 20 C-0.2270059 16.38225163 -0.42056799 13.06714533 -0.6875 8.875 C-0.77386719 7.63492187 -0.86023438 6.39484375 -0.94921875 5.1171875 C-1 2 -1 2 0 0 Z " fill="#C18E3A" transform="translate(802,448)"/>
<path d="M0 0 C0.33 0 0.66 0 1 0 C0.85761163 2.04190981 0.71092972 4.08352045 0.5625 6.125 C0.48128906 7.26195312 0.40007813 8.39890625 0.31640625 9.5703125 C0.02269035 12.7540478 -0.43124313 15.85510907 -1 19 C-3.707295 14.9390575 -3.4136881 11.76146896 -3 7 C-1.53658537 1.53658537 -1.53658537 1.53658537 0 0 Z " fill="#C38E32" transform="translate(781,377)"/>
<path d="M0 0 C5.85788403 5.32534912 11.90755963 11.95043936 13 20 C9.20045115 16.4533108 6.3573694 12.78592444 3.6875 8.3125 C3.32849609 7.73177734 2.96949219 7.15105469 2.59960938 6.55273438 C0 2.26956845 0 2.26956845 0 0 Z " fill="#E1A62E" transform="translate(502,734)"/>
<path d="M0 0 C1.01771484 0.00451172 2.03542969 0.00902344 3.08398438 0.01367188 C5.57688509 0.02537563 8.06966074 0.04177152 10.5625 0.0625 C10.5625 0.7225 10.5625 1.3825 10.5625 2.0625 C9.83804688 2.05089844 9.11359375 2.03929687 8.3671875 2.02734375 C2.46525666 1.93117784 2.46525666 1.93117784 -3.375 2.625 C-8.41157115 3.34451016 -13.39814099 2.59252967 -18.4375 2.0625 C-18.4375 1.7325 -18.4375 1.4025 -18.4375 1.0625 C-12.2698971 -0.03607724 -6.25334877 -0.05289104 0 0 Z " fill="#CB9124" transform="translate(740.4375,464.9375)"/>
<path d="M0 0 C-2.13900716 3.20851073 -2.38872561 3.43434335 -5.875 4.25 C-6.55304687 4.42015625 -7.23109375 4.5903125 -7.9296875 4.765625 C-10.21384039 5.02420835 -11.8209213 4.68401574 -14 4 C-13.67 3.67 -13.34 3.34 -13 3 C-13.66 2.34 -14.32 1.68 -15 1 C-9.94997778 -0.03590199 -5.12583611 -0.10251672 0 0 Z " fill="#CB932C" transform="translate(901,461)"/>
<path d="M0 0 C5 1 5 1 6.8125 3.0625 C7.204375 3.701875 7.59625 4.34125 8 5 C6.35 4.67 4.7 4.34 3 4 C2.67 8.95 2.34 13.9 2 19 C1.67 19 1.34 19 1 19 C0.67 12.73 0.34 6.46 0 0 Z " fill="#ECCF91" transform="translate(773,519)"/>
<path d="M0 0 C1.32796291 0.35412344 2.66216607 0.68521554 4 1 C5.33362019 1.33218378 6.6669954 1.66535449 8 2 C6.06643218 2.69848264 4.12797702 3.38344814 2.1875 4.0625 C1.10855469 4.44535156 0.02960937 4.82820313 -1.08203125 5.22265625 C-4 6 -4 6 -7 5 C-6.34 4.34 -5.68 3.68 -5 3 C-5.99 2.34 -6.98 1.68 -8 1 C-2.25 -1.125 -2.25 -1.125 0 0 Z " fill="#E8BB60" transform="translate(955,447)"/>
<path d="M0 0 C0.66 1.32 1.32 2.64 2 4 C0.02 4.33 -1.96 4.66 -4 5 C-4.33 6.32 -4.66 7.64 -5 9 C-5.33 9 -5.66 9 -6 9 C-6.103125 8.05125 -6.20625 7.1025 -6.3125 6.125 C-6.68539295 2.70892499 -6.68539295 2.70892499 -10 1 C-6.52674819 -0.1577506 -3.63932552 -0.06866652 0 0 Z " fill="#D5AD64" transform="translate(787,472)"/>
<path d="M0 0 C1 3 1 3 -0.109375 5.2265625 C-0.92148438 6.41378906 -0.92148438 6.41378906 -1.75 7.625 C-2.54664063 8.81996094 -2.54664063 8.81996094 -3.359375 10.0390625 C-5 12 -5 12 -8 13 C-7.48118887 8.8275894 -6.28848726 6.74583179 -3.4375 3.6875 C-2.79683594 2.99011719 -2.15617187 2.29273438 -1.49609375 1.57421875 C-1.00238281 1.05472656 -0.50867187 0.53523438 0 0 Z " fill="#DCA444" transform="translate(1080,354)"/>
<path d="M0 0 C0.99 0.33 1.98 0.66 3 1 C2.06725891 2.12894876 1.12859878 3.25300876 0.1875 4.375 C-0.33457031 5.00148438 -0.85664062 5.62796875 -1.39453125 6.2734375 C-3 8 -3 8 -6 10 C-6 9.01 -6 8.02 -6 7 C-6.99 7.66 -7.98 8.32 -9 9 C-7.53471687 5.13698083 -5.55307561 3.95419158 -2 2 C-1.34 1.34 -0.68 0.68 0 0 Z " fill="#C8963F" transform="translate(826,467)"/>
<path d="M0 0 C0.33 0 0.66 0 1 0 C0.50341703 5.66104589 -0.54510684 9.87674471 -3 15 C-3.33 15 -3.66 15 -4 15 C-3.39425587 4.24281984 -3.39425587 4.24281984 0 0 Z " fill="#D9A243" transform="translate(446,624)"/>
<path d="M0 0 C0 0.66 0 1.32 0 2 C-7.425 3.485 -7.425 3.485 -15 5 C-11.19450521 -0.70824218 -6.30442274 -0.21370925 0 0 Z " fill="#DFA631" transform="translate(661,474)"/>
<path d="M0 0 C0.33 0.66 0.66 1.32 1 2 C0.06553465 4.03144641 -0.93224776 6.03533587 -2 8 C0.31 8 2.62 8 5 8 C4.67 8.99 4.34 9.98 4 11 C1.75 11.6875 1.75 11.6875 -1 12 C-3.3125 10.5625 -3.3125 10.5625 -5 9 C-3.50163895 5.88801935 -1.80066242 2.9465385 0 0 Z " fill="#E7D0A3" transform="translate(774,459)"/>
<path d="M0 0 C1.91635217 -0.05423638 3.83314925 -0.09289963 5.75 -0.125 C7.35101562 -0.15980469 7.35101562 -0.15980469 8.984375 -0.1953125 C11.92470106 -0.00487687 13.52361878 0.47329896 16 2 C15.67 2.99 15.34 3.98 15 5 C15 4.34 15 3.68 15 3 C13.87851562 3.01740234 13.87851562 3.01740234 12.734375 3.03515625 C11.74953125 3.04417969 10.7646875 3.05320312 9.75 3.0625 C8.28820312 3.07990234 8.28820312 3.07990234 6.796875 3.09765625 C4.34241322 3.01195577 2.33831086 2.70706066 0 2 C0 1.34 0 0.68 0 0 Z " fill="#D3A445" transform="translate(760,490)"/>
<path d="M0 0 C1.06546953 3.1964086 1.07427838 5.65747276 1 9 C-0.65 9 -2.3 9 -4 9 C-4.25 6.1875 -4.25 6.1875 -4 3 C-2 1.125 -2 1.125 0 0 Z " fill="#DBBA79" transform="translate(768,466)"/>
<path d="M0 0 C0.33 0 0.66 0 1 0 C1.20413361 5.73842251 1.27141454 10.60539047 -1 16 C-1.33 16 -1.66 16 -2 16 C-2.08997924 10.87118304 -1.93119789 6.0698552 -1 1 C-0.67 0.67 -0.34 0.34 0 0 Z " fill="#B77C21" transform="translate(775,418)"/>
<path d="M0 0 C2.9719385 1.12451727 5.33440687 2.22293791 8 4 C9.1875 7.125 9.1875 7.125 10 10 C6.63820226 8.55922954 4.40843732 6.75249979 2 4 C2 3.34 2 2.68 2 2 C1.34 2 0.68 2 0 2 C0 1.34 0 0.68 0 0 Z " fill="#E3AA34" transform="translate(482,787)"/>
<path d="M0 0 C0.66 0.66 1.32 1.32 2 2 C1.875 4 1.875 4 1 6 C-1.0625 7.25 -1.0625 7.25 -3 8 C-3 7.34 -3 6.68 -3 6 C-5.64 6.33 -8.28 6.66 -11 7 C-11.33 6.34 -11.66 5.68 -12 5 C-8.37 5 -4.74 5 -1 5 C-0.67 3.35 -0.34 1.7 0 0 Z " fill="#C38B2E" transform="translate(770,459)"/>
<path d="M0 0 C0.33 0 0.66 0 1 0 C1.33 4.62 1.66 9.24 2 14 C2.33 14 2.66 14 3 14 C3 15.65 3 17.3 3 19 C2.01 19.33 1.02 19.66 0 20 C0 13.4 0 6.8 0 0 Z " fill="#D39F3F" transform="translate(1089,304)"/>
<path d="M0 0 C-0.625 1.9375 -0.625 1.9375 -2 4 C-5.125 4.75 -5.125 4.75 -8 5 C-8 3.68 -8 2.36 -8 1 C-4.93251126 -0.86240388 -3.40254489 -1.2151946 0 0 Z " fill="#BB8325" transform="translate(919,161)"/>
<path d="M0 0 C-1.305239 2.61047801 -2.35826574 2.68066423 -5.0625 3.625 C-5.79597656 3.88539063 -6.52945313 4.14578125 -7.28515625 4.4140625 C-7.85105469 4.60742188 -8.41695312 4.80078125 -9 5 C-9 3.68 -9 2.36 -9 1 C-5.64919071 -1.10976881 -3.77897651 -1.0497157 0 0 Z " fill="#DFAA42" transform="translate(576,502)"/>
<path d="M0 0 C3.07454047 0.07090135 6.01122299 0.2475065 9 1 C11.0625 3.5625 11.0625 3.5625 12 6 C7.76570244 4.68938409 3.92592596 3.05643741 0 1 C0 0.67 0 0.34 0 0 Z " fill="#D7A031" transform="translate(1017,201)"/>
<path d="M0 0 C3.53600465 1.91135386 5.78972846 3.62642766 8 7 C5.6875 7.25 5.6875 7.25 3 7 C1.1875 5.1875 1.1875 5.1875 0 3 C0 2.01 0 1.02 0 0 Z " fill="#F2BA37" transform="translate(490,792)"/>
<path d="M0 0 C1 3 1 3 -0.4375 6.1875 C-1.2109375 7.5796875 -1.2109375 7.5796875 -2 9 C-2.66 9 -3.32 9 -4 9 C-3.6875 5.625 -3.6875 5.625 -3 2 C-2.01 1.34 -1.02 0.68 0 0 Z " fill="#DCA84A" transform="translate(451,614)"/>
<path d="M0 0 C0 0.66 0 1.32 0 2 C-4.455 1.01 -4.455 1.01 -9 0 C-9.33 0.66 -9.66 1.32 -10 2 C-10.99 1.67 -11.98 1.34 -13 1 C-12.34 1 -11.68 1 -11 1 C-11 0.01 -11 -0.98 -11 -2 C-6.38619749 -3.49270081 -4.10342037 -2.38570952 0 0 Z " fill="#DFAD4D" transform="translate(830,511)"/>
<path d="M0 0 C0.99 0 1.98 0 3 0 C3 2.64 3 5.28 3 8 C2.01 8 1.02 8 0 8 C0 5.36 0 2.72 0 0 Z " fill="#DEA545" transform="translate(436,656)"/>
<path d="M0 0 C0.33 0 0.66 0 1 0 C2.51708428 11.52164009 2.51708428 11.52164009 0 17 C-0.33 17 -0.66 17 -1 17 C-0.67 11.39 -0.34 5.78 0 0 Z " fill="#DBAD57" transform="translate(768,553)"/>
<path d="M0 0 C0 0.99 0 1.98 0 3 C-1.98 3.33 -3.96 3.66 -6 4 C-6 3.34 -6 2.68 -6 2 C-7.32 1.67 -8.64 1.34 -10 1 C-6.61981469 -0.04005702 -3.5219721 -0.08004482 0 0 Z " fill="#E0B049" transform="translate(667,472)"/>
<path d="M0 0 C0.33 0 0.66 0 1 0 C1.17942163 3.94727588 1.09350689 6.5980513 -1 10 C-1.66 10 -2.32 10 -3 10 C-3.3648363 5.74357648 -2.47460354 3.46444495 0 0 Z " fill="#CD902C" transform="translate(798,312)"/>
<path d="M0 0 C0.33 0 0.66 0 1 0 C0.67 2.97 0.34 5.94 0 9 C-0.66 9 -1.32 9 -2 9 C-2.6875 7.3125 -2.6875 7.3125 -3 5 C-1.625 2.25 -1.625 2.25 0 0 Z " fill="#D89D3A" transform="translate(752,641)"/>
<path d="M0 0 C0.66 0 1.32 0 2 0 C2 2.64 2 5.28 2 8 C0.68 8.33 -0.64 8.66 -2 9 C-1.34 6.03 -0.68 3.06 0 0 Z " fill="#D7A040" transform="translate(769,564)"/>
<path d="M0 0 C-2.57404971 3.86107457 -4.61020259 3.94319692 -9 5 C-8.3125 2.5625 -8.3125 2.5625 -7 0 C-4.11143484 -1.01099781 -2.76813517 -1.38406758 0 0 Z " fill="#DAAD55" transform="translate(811,514)"/>
<path d="M0 0 C0.33 0 0.66 0 1 0 C0.67 3.3 0.34 6.6 0 10 C-0.99 10.33 -1.98 10.66 -3 11 C-2.88590407 9.54077307 -2.75834456 8.08259402 -2.625 6.625 C-2.55539062 5.81289063 -2.48578125 5.00078125 -2.4140625 4.1640625 C-2 2 -2 2 0 0 Z " fill="#CB8E29" transform="translate(790,338)"/>
<path d="M0 0 C0.66 0.33 1.32 0.66 2 1 C0.1875 3.5 0.1875 3.5 -2 6 C-2.99 6 -3.98 6 -5 6 C-5 6.66 -5 7.32 -5 8 C-6.32 7.67 -7.64 7.34 -9 7 C-8.43410156 6.57847656 -7.86820313 6.15695312 -7.28515625 5.72265625 C-6.55167969 5.17480469 -5.81820312 4.62695312 -5.0625 4.0625 C-4.33160156 3.51722656 -3.60070312 2.97195313 -2.84765625 2.41015625 C-1.0865547 1.13092062 -1.0865547 1.13092062 0 0 Z " fill="#EDD7AA" transform="translate(680,764)"/>
<path d="M0 0 C2.64 0 5.28 0 8 0 C7.67 0.99 7.34 1.98 7 3 C4.69 3 2.38 3 0 3 C0 2.01 0 1.02 0 0 Z " fill="#D2A142" transform="translate(830,490)"/>
<path d="M0 0 C0 2.31 0 4.62 0 7 C-0.99 7.495 -0.99 7.495 -2 8 C-2.99 6.68 -3.98 5.36 -5 4 C-1.125 0 -1.125 0 0 0 Z " fill="#DEB76E" transform="translate(780,487)"/>
<path d="M0 0 C0.33 1.32 0.66 2.64 1 4 C-2.96 5.98 -2.96 5.98 -7 8 C-5.25 3.125 -5.25 3.125 -3 2 C-2.34 2.33 -1.68 2.66 -1 3 C-0.67 2.01 -0.34 1.02 0 0 Z " fill="#C38F33" transform="translate(789,464)"/>
<path d="M0 0 C0.33 0.99 0.66 1.98 1 3 C-0.4375 5.1875 -0.4375 5.1875 -2 7 C-3.32 6.34 -4.64 5.68 -6 5 C-4.02 3.35 -2.04 1.7 0 0 Z " fill="#E2AB44" transform="translate(1070,370)"/>
<path d="M0 0 C0.99 0.33 1.98 0.66 3 1 C2.67 4.3 2.34 7.6 2 11 C1.67 11 1.34 11 1 11 C1 8.69 1 6.38 1 4 C0.34 4.66 -0.32 5.32 -1 6 C-0.67 4.02 -0.34 2.04 0 0 Z " fill="#E2B55F" transform="translate(1088,323)"/>
<path d="M0 0 C1.07310858 3.27185553 0.89263102 5.42947592 0.0625 8.75 C-0.13214844 9.54921875 -0.32679688 10.3484375 -0.52734375 11.171875 C-0.68332031 11.77515625 -0.83929688 12.3784375 -1 13 C-1.33 13 -1.66 13 -2 13 C-2.05416188 11.39620659 -2.09286638 9.79188594 -2.125 8.1875 C-2.14820313 7.29417969 -2.17140625 6.40085937 -2.1953125 5.48046875 C-2 3 -2 3 0 0 Z " fill="#F2D7A1" transform="translate(443,640)"/>
<path d="M0 0 C2.97 0 5.94 0 9 0 C6.14521674 1.90318884 4.58058692 2.4619099 1.3125 3.125 C0.50425781 3.29257812 -0.30398438 3.46015625 -1.13671875 3.6328125 C-1.75160156 3.75398438 -2.36648438 3.87515625 -3 4 C-2.34 3.67 -1.68 3.34 -1 3 C-0.67 2.01 -0.34 1.02 0 0 Z " fill="#ECBA54" transform="translate(954,448)"/>
<path d="M0 0 C0.66 0.33 1.32 0.66 2 1 C-1.60957611 4.2910841 -4.12637153 5.54663921 -9 6 C-6.12050853 3.76039553 -3.23257974 1.70135776 0 0 Z " fill="#F9E6B7" transform="translate(560,510)"/>
<path d="M0 0 C0.99 0.66 1.98 1.32 3 2 C-2.2734375 5.22265625 -2.2734375 5.22265625 -4 6 C-4.66 5.67 -5.32 5.34 -6 5 C-2.25 1.125 -2.25 1.125 0 0 Z " fill="#DAA742" transform="translate(779,507)"/>
<path d="M0 0 C0.66 0.33 1.32 0.66 2 1 C-1.625 6.875 -1.625 6.875 -5 8 C-4.64950425 4.75791433 -4.43778819 3.38472296 -1.9375 1.1875 C-1.298125 0.795625 -0.65875 0.40375 0 0 Z " fill="#E6B855" transform="translate(1029,408)"/>
<path d="M0 0 C1.5 1.125 1.5 1.125 3 3 C3.1875 6.1875 3.1875 6.1875 3 9 C2.34 8.34 1.68 7.68 1 7 C0.01 7.495 0.01 7.495 -1 8 C-0.67 5.36 -0.34 2.72 0 0 Z " fill="#CFA24F" transform="translate(783,357)"/>
<path d="M0 0 C0.33 0.99 0.66 1.98 1 3 C-1.97 5.475 -1.97 5.475 -5 8 C-3.375 2.25 -3.375 2.25 0 0 Z " fill="#F6EBD3" transform="translate(832,249)"/>
<path d="M0 0 C1.32 0.33 2.64 0.66 4 1 C2.72553565 3.5489287 1.53636507 3.80641644 -1 5 C-1.99 5.66 -2.98 6.32 -4 7 C-2.79618552 4.50638429 -1.54571278 2.31856917 0 0 Z " fill="#DDAB4E" transform="translate(709,727)"/>
<path d="M0 0 C-0.33 0.66 -0.66 1.32 -1 2 C-3.06640625 2.4140625 -3.06640625 2.4140625 -5.5625 2.625 C-6.38878906 2.69976562 -7.21507812 2.77453125 -8.06640625 2.8515625 C-9.02353516 2.92503906 -9.02353516 2.92503906 -10 3 C-6.68152292 -0.06320961 -4.44849969 -0.3033068 0 0 Z " fill="#DCA230" transform="translate(632,481)"/>
<path d="M0 0 C0.33 1.32 0.66 2.64 1 4 C1.66 4 2.32 4 3 4 C2.67 5.32 2.34 6.64 2 8 C1.01 7.67 0.02 7.34 -1 7 C-0.67 4.69 -0.34 2.38 0 0 Z " fill="#DFB45B" transform="translate(761,601)"/>
<path d="M0 0 C-1.3125 1.5 -1.3125 1.5 -3 3 C-3.99 3 -4.98 3 -6 3 C-6 2.01 -6 1.02 -6 0 C-3.50907189 -1.24546405 -2.58919267 -0.7767578 0 0 Z " fill="#DBA53C" transform="translate(552,514)"/>
<path d="M0 0 C0.99 1.32 1.98 2.64 3 4 C1.125 5.0625 1.125 5.0625 -1 6 C-1.66 5.67 -2.32 5.34 -3 5 C-2.01 3.35 -1.02 1.7 0 0 Z M-5 6 C-3 7 -3 7 -3 7 Z " fill="#E6C077" transform="translate(820,503)"/>
<path d="M0 0 C0 0.66 0 1.32 0 2 C-4.455 2.495 -4.455 2.495 -9 3 C-5.92807025 0.26939578 -4.09590633 -0.34132553 0 0 Z " fill="#E0A534" transform="translate(618,485)"/>
<path d="M0 0 C1.65 0 3.3 0 5 0 C4.34 1.32 3.68 2.64 3 4 C1.68 3.67 0.36 3.34 -1 3 C-0.67 2.01 -0.34 1.02 0 0 Z " fill="#CA9B3F" transform="translate(775,474)"/>
<path d="M0 0 C0.33 0.99 0.66 1.98 1 3 C-1.375 3.625 -1.375 3.625 -4 4 C-4.66 3.34 -5.32 2.68 -6 2 C-4.02 1.34 -2.04 0.68 0 0 Z " fill="#DEA233" transform="translate(960,445)"/>
<path d="M0 0 C0.66 0.33 1.32 0.66 2 1 C-2.625 6.875 -2.625 6.875 -6 8 C-4.55746343 4.63408134 -2.66735273 2.48952921 0 0 Z " fill="#FCF1D3" transform="translate(1050,395)"/>
<path d="M0 0 C0.33 1.32 0.66 2.64 1 4 C1.66 4 2.32 4 3 4 C2.67 5.65 2.34 7.3 2 9 C1.67 8.34 1.34 7.68 1 7 C0.34 7 -0.32 7 -1 7 C-0.67 4.69 -0.34 2.38 0 0 Z " fill="#DAAB5B" transform="translate(794,318)"/>
<path d="M0 0 C0.66 0 1.32 0 2 0 C0.8141763 3.37503669 -0.27573689 5.64722731 -3 8 C-3 4.40142046 -2.04169485 2.90548882 0 0 Z " fill="#F4E0B4" transform="translate(840,234)"/>
</svg>
